SplineFontDB: 3.2
FontName: guzrati15m
FullName: guzrati15m
FamilyName: guzrati15m
Weight: Regular
Copyright: Copyright 2022 The Noto Project Authors (https://github.com/notofonts/gujarati)
Version: 2.102
ItalicAngle: 0
UnderlinePosition: -125
UnderlineWidth: 50
Ascent: 800
Descent: 200
InvalidEm: 0
sfntRevision: 0x00021a1d
LayerCount: 2
Layer: 0 1 "Back" 1
Layer: 1 1 "Fore" 0
XUID: [1021 467 -1121320856 7870834]
StyleMap: 0x0040
FSType: 0
OS2Version: 4
OS2_WeightWidthSlopeOnly: 0
OS2_UseTypoMetrics: 1
CreationTime: 1634404486
ModificationTime: 1741115772
PfmFamily: 81
TTFWeight: 400
TTFWidth: 5
LineGap: 0
VLineGap: 0
Panose: 0 0 0 0 0 0 0 0 0 0
OS2TypoAscent: 896
OS2TypoAOffset: 0
OS2TypoDescent: -408
OS2TypoDOffset: 0
OS2TypoLinegap: 0
OS2WinAscent: 896
OS2WinAOffset: 0
OS2WinDescent: 408
OS2WinDOffset: 0
HheadAscent: 896
HheadAOffset: 0
HheadDescent: -408
HheadDOffset: 0
OS2SubXSize: 650
OS2SubYSize: 600
OS2SubXOff: 0
OS2SubYOff: 75
OS2SupXSize: 650
OS2SupYSize: 600
OS2SupXOff: 0
OS2SupYOff: 350
OS2StrikeYSize: 50
OS2StrikeYPos: 322
OS2CapHeight: 592
OS2XHeight: 536
OS2Vendor: 'GOOG'
OS2CodePages: 00000093.00000000
OS2UnicodeRanges: 80048003.00002042.00000000.00000000

















































































































MarkAttachClasses: 3

StartChar: exclam.gujr
Encoding: 33 33 3
Width: 808
Flags: W
LayerCount: 2
Fore
SplineSet
399 112 m 0,0,1
 383 112 383 112 374 123 c 128,-1,2
 365 134 365 134 360.5 161 c 128,-1,3
 356 188 356 188 355 233.5 c 128,-1,4
 354 279 354 279 354 348 c 0,5,6
 354 445 354 445 355 499 c 128,-1,7
 356 553 356 553 362 579 c 128,-1,8
 368 605 368 605 380.5 610.5 c 128,-1,9
 393 616 393 616 416 616 c 0,10,11
 428 616 428 616 435 609 c 128,-1,12
 442 602 442 602 446.5 579 c 128,-1,13
 451 556 451 556 452.5 511 c 128,-1,14
 454 466 454 466 454 389 c 0,15,16
 454 249 454 249 444 180.5 c 128,-1,17
 434 112 434 112 399 112 c 0,0,1
386 593 m 0,18,19
 382 593 382 593 376 581 c 128,-1,20
 370 569 370 569 370 544 c 0,21,22
 370 531 370 531 371.5 518.5 c 128,-1,23
 373 506 373 506 380 506 c 0,24,25
 386 506 386 506 388 510 c 128,-1,26
 390 514 390 514 390 519.5 c 128,-1,27
 390 525 390 525 389.5 532 c 128,-1,28
 389 539 389 539 389 545 c 0,29,30
 390 562 390 562 392 577.5 c 128,-1,31
 394 593 394 593 386 593 c 0,18,19
400 -8 m 0,32,33
 381 -8 381 -8 369.5 4.5 c 128,-1,34
 358 17 358 17 358 38 c 0,35,36
 358 57 358 57 368 73.5 c 128,-1,37
 378 90 378 90 400 90 c 0,38,39
 423 90 423 90 435 74.5 c 128,-1,40
 447 59 447 59 447 38 c 0,41,42
 447 15 447 15 433.5 3.5 c 128,-1,43
 420 -8 420 -8 400 -8 c 0,32,33
382 44 m 0,44,45
 383 55 383 55 387 64 c 128,-1,46
 391 73 391 73 386 73 c 0,47,48
 379 73 379 73 374.5 58.5 c 128,-1,49
 370 44 370 44 370 33 c 0,50,51
 370 23 370 23 375 23 c 0,52,53
 379 23 379 23 380 30.5 c 128,-1,54
 381 38 381 38 382 44 c 0,44,45
EndSplineSet
EndChar

StartChar: quotedbl.gujr
Encoding: 34 34 4
Width: 808
Flags: W
LayerCount: 2
Fore
SplineSet
360 714 m 1,0,-1
 340 456 l 1,1,-1
 285 456 l 1,2,-1
 265 714 l 1,3,-1
 360 714 l 1,0,-1
543 714 m 1,4,-1
 523 456 l 1,5,-1
 468 456 l 1,6,-1
 448 714 l 1,7,-1
 543 714 l 1,4,-1
EndSplineSet
EndChar

StartChar: numbersign.gujr
Encoding: 35 35 5
Width: 808
Flags: W
LayerCount: 2
Fore
SplineSet
417.954101562 108 m 0,0,1
 399.954101562 108 399.954101562 108 393.454101562 120 c 128,-1,2
 386.954101562 132 386.954101562 132 385.954101562 147 c 0,3,4
 384.954101562 164 384.954101562 164 391.454101562 181 c 128,-1,5
 397.954101562 198 397.954101562 198 396.954101562 211 c 0,6,7
 396.954101562 214 396.954101562 214 389.454101562 215 c 128,-1,8
 381.954101562 216 381.954101562 216 379.954101562 216 c 2,9,-1
 348.954101562 216 l 1,10,11
 345.954101562 207 345.954101562 207 339.954101562 192 c 128,-1,12
 333.954101562 177 333.954101562 177 325.954101562 162 c 128,-1,13
 317.954101562 147 317.954101562 147 307.454101562 136.5 c 128,-1,14
 296.954101562 126 296.954101562 126 283.954101562 126 c 0,15,16
 267.954101562 126 267.954101562 126 261.454101562 136 c 128,-1,17
 254.954101562 146 254.954101562 146 253.954101562 160 c 0,18,19
 252.954101562 177 252.954101562 177 257.454101562 187.5 c 128,-1,20
 261.954101562 198 261.954101562 198 260.954101562 214 c 0,21,22
 260.954101562 222 260.954101562 222 251.454101562 222.5 c 128,-1,23
 241.954101562 223 241.954101562 223 229.954101562 225 c 128,-1,24
 217.954101562 227 217.954101562 227 207.954101562 234.5 c 128,-1,25
 197.954101562 242 197.954101562 242 196.954101562 264 c 0,26,27
 196.954101562 276 196.954101562 276 202.954101562 283.5 c 128,-1,28
 208.954101562 291 208.954101562 291 217.954101562 295 c 128,-1,29
 226.954101562 299 226.954101562 299 237.954101562 300.5 c 128,-1,30
 248.954101562 302 248.954101562 302 258.954101562 302 c 0,31,32
 270.954101562 302 270.954101562 302 278.454101562 309.5 c 128,-1,33
 285.954101562 317 285.954101562 317 289.954101562 328 c 128,-1,34
 293.954101562 339 293.954101562 339 296.454101562 351 c 128,-1,35
 298.954101562 363 298.954101562 363 300.954101562 372 c 1,36,37
 292.954101562 372 292.954101562 372 280.954101562 373.5 c 128,-1,38
 268.954101562 375 268.954101562 375 257.454101562 378.5 c 128,-1,39
 245.954101562 382 245.954101562 382 237.954101562 389.5 c 128,-1,40
 229.954101562 397 229.954101562 397 229.954101562 409 c 0,41,42
 228.954101562 435 228.954101562 435 243.454101562 442 c 128,-1,43
 257.954101562 449 257.954101562 449 295.954101562 449 c 0,44,45
 311.954101562 449 311.954101562 449 317.954101562 452.5 c 128,-1,46
 323.954101562 456 323.954101562 456 328.954101562 472 c 0,47,48
 331.954101562 479 331.954101562 479 334.954101562 489.5 c 128,-1,49
 337.954101562 500 337.954101562 500 343.454101562 510 c 128,-1,50
 348.954101562 520 348.954101562 520 357.954101562 527 c 128,-1,51
 366.954101562 534 366.954101562 534 381.954101562 534 c 0,52,53
 401.954101562 534 401.954101562 534 409.454101562 522 c 128,-1,54
 416.954101562 510 416.954101562 510 417.954101562 499 c 0,55,56
 417.954101562 489 417.954101562 489 414.454101562 480.5 c 128,-1,57
 410.954101562 472 410.954101562 472 411.954101562 462 c 0,58,59
 411.954101562 457 411.954101562 457 416.454101562 454.5 c 128,-1,60
 420.954101562 452 420.954101562 452 426.454101562 450.5 c 128,-1,61
 431.954101562 449 431.954101562 449 437.954101562 449 c 128,-1,62
 443.954101562 449 443.954101562 449 446.954101562 449 c 0,63,64
 456.954101562 449 456.954101562 449 462.954101562 461 c 128,-1,65
 468.954101562 473 468.954101562 473 474.954101562 488 c 128,-1,66
 480.954101562 503 480.954101562 503 488.954101562 515 c 128,-1,67
 496.954101562 527 496.954101562 527 511.954101562 527 c 0,68,69
 531.954101562 527 531.954101562 527 540.954101562 511 c 128,-1,70
 549.954101562 495 549.954101562 495 550.954101562 483 c 0,71,72
 550.954101562 475 550.954101562 475 547.954101562 467.5 c 128,-1,73
 544.954101562 460 544.954101562 460 544.954101562 451 c 0,74,75
 544.954101562 444 544.954101562 444 555.454101562 443.5 c 128,-1,76
 565.954101562 443 565.954101562 443 577.954101562 441.5 c 128,-1,77
 589.954101562 440 589.954101562 440 599.954101562 434.5 c 128,-1,78
 609.954101562 429 609.954101562 429 610.954101562 412 c 0,79,80
 611.954101562 398 611.954101562 398 601.954101562 390 c 128,-1,81
 591.954101562 382 591.954101562 382 578.454101562 377.5 c 128,-1,82
 564.954101562 373 564.954101562 373 549.954101562 371.5 c 128,-1,83
 534.954101562 370 534.954101562 370 525.954101562 370 c 1,84,85
 518.954101562 351 518.954101562 351 514.454101562 335 c 128,-1,86
 509.954101562 319 509.954101562 319 502.954101562 299 c 1,87,88
 513.954101562 299 513.954101562 299 525.954101562 299.5 c 128,-1,89
 537.954101562 300 537.954101562 300 547.954101562 297.5 c 128,-1,90
 557.954101562 295 557.954101562 295 564.454101562 288 c 128,-1,91
 570.954101562 281 570.954101562 281 571.954101562 265 c 0,92,93
 572.954101562 251 572.954101562 251 566.954101562 241.5 c 128,-1,94
 560.954101562 232 560.954101562 232 550.954101562 226 c 128,-1,95
 540.954101562 220 540.954101562 220 529.454101562 217.5 c 128,-1,96
 517.954101562 215 517.954101562 215 506.954101562 215 c 2,97,-1
 501.954101562 215 l 1,98,-1
 490.954101562 216 l 1,99,-1
 485.954101562 216 l 1,100,101
 482.954101562 204 482.954101562 204 479.454101562 186 c 128,-1,102
 475.954101562 168 475.954101562 168 469.454101562 150.5 c 128,-1,103
 462.954101562 133 462.954101562 133 450.954101562 120.5 c 128,-1,104
 438.954101562 108 438.954101562 108 417.954101562 108 c 0,0,1
349.954101562 457 m 0,105,106
 352.954101562 457 352.954101562 457 356.954101562 463 c 128,-1,107
 360.954101562 469 360.954101562 469 364.454101562 476.5 c 128,-1,108
 367.954101562 484 367.954101562 484 370.954101562 492 c 128,-1,109
 373.954101562 500 373.954101562 500 373.954101562 503 c 0,110,111
 373.954101562 508 373.954101562 508 368.954101562 508 c 0,112,113
 364.954101562 509 364.954101562 509 360.454101562 504 c 128,-1,114
 355.954101562 499 355.954101562 499 352.454101562 492 c 128,-1,115
 348.954101562 485 348.954101562 485 346.454101562 477.5 c 128,-1,116
 343.954101562 470 343.954101562 470 343.954101562 466 c 0,117,118
 343.954101562 463 343.954101562 463 345.954101562 460 c 128,-1,119
 347.954101562 457 347.954101562 457 349.954101562 457 c 0,105,106
247.954101562 404 m 0,120,121
 252.954101562 404 252.954101562 404 255.954101562 415 c 128,-1,122
 258.954101562 426 258.954101562 426 257.954101562 430 c 0,123,124
 257.954101562 434 257.954101562 434 254.954101562 434 c 0,125,126
 249.954101562 436 249.954101562 436 245.454101562 429 c 128,-1,127
 240.954101562 422 240.954101562 422 241.954101562 416 c 0,128,129
 241.954101562 404 241.954101562 404 247.954101562 404 c 0,120,121
394.954101562 298 m 0,130,131
 405.954101562 298 405.954101562 298 413.954101562 305.5 c 128,-1,132
 421.954101562 313 421.954101562 313 426.954101562 323.5 c 128,-1,133
 431.954101562 334 431.954101562 334 433.954101562 345.5 c 128,-1,134
 435.954101562 357 435.954101562 357 435.954101562 366 c 0,135,136
 435.954101562 369 435.954101562 369 434.954101562 372 c 128,-1,137
 433.954101562 375 433.954101562 375 429.954101562 375 c 0,138,139
 406.954101562 375 406.954101562 375 397.954101562 369 c 128,-1,140
 388.954101562 363 388.954101562 363 380.954101562 342 c 0,141,142
 378.954101562 336 378.954101562 336 374.454101562 323 c 128,-1,143
 369.954101562 310 369.954101562 310 370.954101562 304 c 2,144,-1
 370.954101562 303 l 1,145,146
 375.954101562 300 375.954101562 300 382.454101562 299 c 128,-1,147
 388.954101562 298 388.954101562 298 394.954101562 298 c 0,130,131
229.954101562 279 m 0,148,149
 229.954101562 285 229.954101562 285 222.954101562 285 c 0,150,151
 213.954101562 285 213.954101562 285 210.954101562 273 c 128,-1,152
 207.954101562 261 207.954101562 261 209.954101562 256 c 256,153,154
 211.954101562 251 211.954101562 251 213.954101562 250 c 0,155,156
 215.954101562 250 215.954101562 250 218.954101562 253.5 c 128,-1,157
 221.954101562 257 221.954101562 257 224.454101562 262 c 128,-1,158
 226.954101562 267 226.954101562 267 228.454101562 272 c 128,-1,159
 229.954101562 277 229.954101562 277 229.954101562 279 c 0,148,149
EndSplineSet
EndChar

StartChar: percent.gujr
Encoding: 37 37 6
Width: 808
Flags: W
LayerCount: 2
Fore
SplineSet
266.5 -6 m 0,0,1
 262.5 -6 262.5 -6 255 -4 c 128,-1,2
 247.5 -2 247.5 -2 240.5 2 c 128,-1,3
 233.5 6 233.5 6 228.5 11.5 c 128,-1,4
 223.5 17 223.5 17 223.5 23 c 0,5,6
 223.5 30 223.5 30 227.5 46.5 c 128,-1,7
 231.5 63 231.5 63 243.5 93 c 128,-1,8
 255.5 123 255.5 123 277 168.5 c 128,-1,9
 298.5 214 298.5 214 333.5 280 c 0,10,11
 387.5 383 387.5 383 421 450 c 128,-1,12
 454.5 517 454.5 517 475.5 556 c 0,13,14
 496.5 596 496.5 596 514 607.5 c 128,-1,15
 531.5 619 531.5 619 544.5 619 c 0,16,17
 561.5 619 561.5 619 568 607 c 128,-1,18
 574.5 595 574.5 595 573.5 577.5 c 128,-1,19
 572.5 560 572.5 560 567 541.5 c 128,-1,20
 561.5 523 561.5 523 555.5 510 c 0,21,22
 541.5 481 541.5 481 518.5 434.5 c 128,-1,23
 495.5 388 495.5 388 469 335.5 c 128,-1,24
 442.5 283 442.5 283 415 229 c 128,-1,25
 387.5 175 387.5 175 364.5 130.5 c 128,-1,26
 341.5 86 341.5 86 326 56 c 128,-1,27
 310.5 26 310.5 26 307.5 22 c 0,28,29
 296.5 5 296.5 5 286 -0.5 c 128,-1,30
 275.5 -6 275.5 -6 266.5 -6 c 0,0,1
272.5 393 m 0,31,32
 249.5 393 249.5 393 232 402.5 c 128,-1,33
 214.5 412 214.5 412 202.5 428 c 128,-1,34
 190.5 444 190.5 444 184.5 465 c 128,-1,35
 178.5 486 178.5 486 178.5 510 c 0,36,37
 178.5 529 178.5 529 185 548 c 128,-1,38
 191.5 567 191.5 567 203.5 582.5 c 128,-1,39
 215.5 598 215.5 598 232.5 608 c 128,-1,40
 249.5 618 249.5 618 270.5 618 c 0,41,42
 312.5 618 312.5 618 336.5 594.5 c 128,-1,43
 360.5 571 360.5 571 360.5 517 c 0,44,45
 360.5 490 360.5 490 353.5 467.5 c 128,-1,46
 346.5 445 346.5 445 334.5 428.5 c 128,-1,47
 322.5 412 322.5 412 306.5 402.5 c 128,-1,48
 290.5 393 290.5 393 272.5 393 c 0,31,32
272.5 460 m 0,49,50
 279.5 460 279.5 460 284.5 465.5 c 128,-1,51
 289.5 471 289.5 471 292.5 479.5 c 128,-1,52
 295.5 488 295.5 488 297 498 c 128,-1,53
 298.5 508 298.5 508 298.5 517 c 0,54,55
 298.5 534 298.5 534 291.5 546 c 128,-1,56
 284.5 558 284.5 558 272.5 558 c 0,57,58
 261.5 558 261.5 558 253.5 543.5 c 128,-1,59
 245.5 529 245.5 529 245.5 512 c 256,60,61
 245.5 495 245.5 495 252.5 477.5 c 128,-1,62
 259.5 460 259.5 460 272.5 460 c 0,49,50
204.5 512 m 256,63,64
 204.5 528 204.5 528 204.5 535.5 c 128,-1,65
 204.5 543 204.5 543 201.5 543 c 0,66,67
 195.5 543 195.5 543 193.5 530.5 c 128,-1,68
 191.5 518 191.5 518 191.5 514 c 0,69,70
 191.5 511 191.5 511 191.5 505.5 c 128,-1,71
 191.5 500 191.5 500 193 494.5 c 128,-1,72
 194.5 489 194.5 489 197 484.5 c 128,-1,73
 199.5 480 199.5 480 204.5 480 c 0,74,75
 208.5 480 208.5 480 206.5 488 c 128,-1,76
 204.5 496 204.5 496 204.5 512 c 256,63,64
229.5 453 m 0,77,78
 229.5 464 229.5 464 220.5 464 c 0,79,80
 214.5 464 214.5 464 214.5 456 c 0,81,82
 214.5 454 214.5 454 217 450 c 128,-1,83
 219.5 446 219.5 446 222.5 446 c 0,84,85
 229.5 446 229.5 446 229.5 453 c 0,77,78
541.5 -6 m 0,86,87
 518.5 -6 518.5 -6 501 3.5 c 128,-1,88
 483.5 13 483.5 13 471.5 29 c 128,-1,89
 459.5 45 459.5 45 453.5 66 c 128,-1,90
 447.5 87 447.5 87 447.5 111 c 0,91,92
 447.5 130 447.5 130 454 149 c 128,-1,93
 460.5 168 460.5 168 472.5 183.5 c 128,-1,94
 484.5 199 484.5 199 501.5 209 c 128,-1,95
 518.5 219 518.5 219 539.5 219 c 0,96,97
 581.5 219 581.5 219 605.5 195.5 c 128,-1,98
 629.5 172 629.5 172 629.5 118 c 0,99,100
 629.5 91 629.5 91 622.5 68.5 c 128,-1,101
 615.5 46 615.5 46 603.5 29.5 c 128,-1,102
 591.5 13 591.5 13 575.5 3.5 c 128,-1,103
 559.5 -6 559.5 -6 541.5 -6 c 0,86,87
541.5 61 m 0,104,105
 548.5 61 548.5 61 553.5 66.5 c 128,-1,106
 558.5 72 558.5 72 561.5 80.5 c 128,-1,107
 564.5 89 564.5 89 566 99 c 128,-1,108
 567.5 109 567.5 109 567.5 118 c 0,109,110
 567.5 135 567.5 135 560.5 147 c 128,-1,111
 553.5 159 553.5 159 541.5 159 c 0,112,113
 530.5 159 530.5 159 522.5 144.5 c 128,-1,114
 514.5 130 514.5 130 514.5 113 c 256,115,116
 514.5 96 514.5 96 521.5 78.5 c 128,-1,117
 528.5 61 528.5 61 541.5 61 c 0,104,105
473.5 113 m 256,118,119
 473.5 129 473.5 129 473.5 136.5 c 128,-1,120
 473.5 144 473.5 144 470.5 144 c 0,121,122
 464.5 144 464.5 144 462.5 131.5 c 128,-1,123
 460.5 119 460.5 119 460.5 115 c 0,124,125
 460.5 112 460.5 112 460.5 106.5 c 128,-1,126
 460.5 101 460.5 101 462 95.5 c 128,-1,127
 463.5 90 463.5 90 466 85.5 c 128,-1,128
 468.5 81 468.5 81 473.5 81 c 0,129,130
 477.5 81 477.5 81 475.5 89 c 128,-1,131
 473.5 97 473.5 97 473.5 113 c 256,118,119
264.5 82 m 0,132,133
 259.5 87 259.5 87 254 82 c 128,-1,134
 248.5 77 248.5 77 245.5 69 c 256,135,136
 242.5 61 242.5 61 239.5 50 c 128,-1,137
 236.5 39 236.5 39 236.5 34 c 0,138,139
 237.5 23 237.5 23 241 23 c 128,-1,140
 244.5 23 244.5 23 251.5 40 c 0,141,142
 256.5 52 256.5 52 261.5 66 c 128,-1,143
 266.5 80 266.5 80 264.5 82 c 0,132,133
498.5 54 m 0,144,145
 498.5 65 498.5 65 489.5 65 c 0,146,147
 483.5 65 483.5 65 483.5 57 c 0,148,149
 483.5 55 483.5 55 486 51 c 128,-1,150
 488.5 47 488.5 47 491.5 47 c 0,151,152
 498.5 47 498.5 47 498.5 54 c 0,144,145
EndSplineSet
EndChar

StartChar: quotesingle.gujr
Encoding: 39 39 7
Width: 808
Flags: W
LayerCount: 2
Fore
SplineSet
451.5 714 m 1,0,-1
 431.5 456 l 1,1,-1
 376.5 456 l 1,2,-1
 356.5 714 l 1,3,-1
 451.5 714 l 1,0,-1
EndSplineSet
EndChar

StartChar: parenleft.gujr
Encoding: 40 40 8
Width: 808
Flags: W
LayerCount: 2
Fore
SplineSet
468.5 -72 m 0,0,1
 414.5 -51 414.5 -51 378 -13 c 128,-1,2
 341.5 25 341.5 25 319 71.5 c 128,-1,3
 296.5 118 296.5 118 286.5 169.5 c 128,-1,4
 276.5 221 276.5 221 276.5 269 c 0,5,6
 276.5 315 276.5 315 285 363 c 128,-1,7
 293.5 411 293.5 411 309 456 c 128,-1,8
 324.5 501 324.5 501 347.5 540.5 c 128,-1,9
 370.5 580 370.5 580 398.5 609 c 0,10,11
 425.5 636 425.5 636 450.5 654 c 128,-1,12
 475.5 672 475.5 672 495.5 672 c 0,13,14
 510.5 672 510.5 672 519.5 660 c 128,-1,15
 528.5 648 528.5 648 528.5 636 c 0,16,17
 528.5 628 528.5 628 516 617 c 128,-1,18
 503.5 606 503.5 606 480.5 582 c 0,19,20
 450.5 550 450.5 550 430.5 512 c 128,-1,21
 410.5 474 410.5 474 398.5 433.5 c 128,-1,22
 386.5 393 386.5 393 382 351.5 c 128,-1,23
 377.5 310 377.5 310 377.5 272 c 256,24,25
 377.5 234 377.5 234 383.5 192.5 c 128,-1,26
 389.5 151 389.5 151 403.5 113 c 128,-1,27
 417.5 75 417.5 75 440.5 43.5 c 128,-1,28
 463.5 12 463.5 12 497.5 -7 c 0,29,30
 514.5 -16 514.5 -16 523 -22.5 c 128,-1,31
 531.5 -29 531.5 -29 531.5 -43 c 0,32,33
 531.5 -56 531.5 -56 518.5 -66 c 128,-1,34
 505.5 -76 505.5 -76 488.5 -76 c 0,35,36
 477.5 -76 477.5 -76 468.5 -72 c 0,0,1
454.5 620 m 0,37,38
 459.5 625 459.5 625 465.5 630.5 c 128,-1,39
 471.5 636 471.5 636 464.5 636 c 0,40,41
 456.5 636 456.5 636 446 628.5 c 128,-1,42
 435.5 621 435.5 621 425.5 611 c 128,-1,43
 415.5 601 415.5 601 409 590.5 c 128,-1,44
 402.5 580 402.5 580 402.5 574 c 0,45,46
 402.5 569 402.5 569 406.5 569 c 0,47,48
 411.5 569 411.5 569 416 575.5 c 128,-1,49
 420.5 582 420.5 582 423.5 587 c 0,50,51
 427.5 594 427.5 594 434.5 601.5 c 128,-1,52
 441.5 609 441.5 609 454.5 620 c 0,37,38
396.5 547 m 0,53,54
 396.5 555 396.5 555 390.5 555 c 0,55,56
 378.5 555 378.5 555 378.5 547 c 0,57,58
 378.5 541 378.5 541 381.5 539.5 c 128,-1,59
 384.5 538 384.5 538 386.5 538 c 256,60,61
 388.5 538 388.5 538 392.5 539.5 c 128,-1,62
 396.5 541 396.5 541 396.5 547 c 0,53,54
EndSplineSet
EndChar

StartChar: parenright.gujr
Encoding: 41 41 9
Width: 808
Flags: W
LayerCount: 2
Fore
SplineSet
333 -93 m 0,0,1
 319 -93 319 -93 306.5 -84.5 c 128,-1,2
 294 -76 294 -76 294 -66 c 0,3,4
 294 -57 294 -57 304 -43 c 128,-1,5
 314 -29 314 -29 328.5 -8.5 c 128,-1,6
 343 12 343 12 360.5 41 c 128,-1,7
 378 70 378 70 392.5 108 c 128,-1,8
 407 146 407 146 417 195 c 128,-1,9
 427 244 427 244 427 305 c 0,10,11
 427 352 427 352 419.5 398.5 c 128,-1,12
 412 445 412 445 398 484 c 128,-1,13
 384 523 384 523 364.5 552 c 128,-1,14
 345 581 345 581 321 594 c 0,15,16
 309 601 309 601 295 610.5 c 128,-1,17
 281 620 281 620 281 638 c 0,18,19
 281 653 281 653 294 662.5 c 128,-1,20
 307 672 307 672 328 672 c 0,21,22
 365 672 365 672 401 646 c 128,-1,23
 437 620 437 620 465 572 c 128,-1,24
 493 524 493 524 510 455.5 c 128,-1,25
 527 387 527 387 527 302 c 0,26,27
 527 227 527 227 518.5 175 c 128,-1,28
 510 123 510 123 494.5 85 c 128,-1,29
 479 47 479 47 458 17 c 128,-1,30
 437 -13 437 -13 412 -44 c 0,31,32
 389 -73 389 -73 369.5 -83 c 128,-1,33
 350 -93 350 -93 333 -93 c 0,0,1
301 621 m 0,34,35
 305 621 305 621 308.5 628.5 c 128,-1,36
 312 636 312 636 312 644 c 0,37,38
 312 657 312 657 305 657 c 0,39,40
 301 657 301 657 297.5 649.5 c 128,-1,41
 294 642 294 642 294 634 c 0,42,43
 294 621 294 621 301 621 c 0,34,35
328 -60 m 256,44,45
 333 -50 333 -50 333.5 -40 c 128,-1,46
 334 -30 334 -30 330 -29 c 0,47,48
 328 -29 328 -29 324.5 -33 c 128,-1,49
 321 -37 321 -37 317.5 -43 c 128,-1,50
 314 -49 314 -49 311.5 -55 c 128,-1,51
 309 -61 309 -61 309 -64 c 0,52,53
 309 -72 309 -72 313 -73 c 0,54,55
 316 -74 316 -74 319.5 -72 c 128,-1,56
 323 -70 323 -70 328 -60 c 256,44,45
EndSplineSet
EndChar

StartChar: asterisk.gujr
Encoding: 42 42 10
Width: 808
Flags: W
LayerCount: 2
Fore
SplineSet
451.5 760 m 1,0,-1
 431.5 568 l 1,1,-1
 623.5 622 l 1,2,-1
 637.5 530 l 1,3,-1
 453.5 515 l 1,4,-1
 572.5 357 l 1,5,-1
 486.5 310 l 1,6,-1
 401.5 485 l 1,7,-1
 324.5 310 l 1,8,-1
 235.5 357 l 1,9,-1
 352.5 515 l 1,10,-1
 170.5 530 l 1,11,-1
 184.5 622 l 1,12,-1
 374.5 568 l 1,13,-1
 353.5 760 l 1,14,-1
 451.5 760 l 1,0,-1
EndSplineSet
EndChar

StartChar: plus.gujr
Encoding: 43 43 11
Width: 808
Flags: W
LayerCount: 2
Fore
SplineSet
440 388 m 1,0,-1
 639 388 l 1,1,-1
 639 317 l 1,2,-1
 440 317 l 1,3,-1
 440 111 l 1,4,-1
 368 111 l 1,5,-1
 368 317 l 1,6,-1
 169 317 l 1,7,-1
 169 388 l 1,8,-1
 368 388 l 1,9,-1
 368 595 l 1,10,-1
 440 595 l 1,11,-1
 440 388 l 1,0,-1
EndSplineSet
EndChar

StartChar: comma.gujr
Encoding: 44 44 12
Width: 808
Flags: W
LayerCount: 2
Fore
SplineSet
479.5 105 m 1,0,1
 470.5 70 470.5 70 456.5 29 c 128,-1,2
 442.5 -12 442.5 -12 426 -52.5 c 128,-1,3
 409.5 -93 409.5 -93 393.5 -129 c 1,4,-1
 328.5 -129 l 1,5,6
 338.5 -91 338.5 -91 348 -47.5 c 128,-1,7
 357.5 -4 357.5 -4 365.5 38.5 c 128,-1,8
 373.5 81 373.5 81 378.5 116 c 1,9,-1
 472.5 116 l 1,10,-1
 479.5 105 l 1,0,1
EndSplineSet
EndChar

StartChar: hyphen.gujr
Encoding: 45 45 13
Width: 808
Flags: W
LayerCount: 2
Fore
SplineSet
283 229 m 1,0,-1
 283 307 l 1,1,-1
 525 307 l 1,2,-1
 525 229 l 1,3,-1
 283 229 l 1,0,-1
EndSplineSet
EndChar

StartChar: period.gujr
Encoding: 46 46 14
Width: 808
Flags: W
LayerCount: 2
Fore
SplineSet
398.5 -8 m 0,0,1
 358.5 -8 358.5 -8 330 20 c 128,-1,2
 301.5 48 301.5 48 301.5 92 c 0,3,4
 301.5 116 301.5 116 310 137.5 c 128,-1,5
 318.5 159 318.5 159 333.5 174.5 c 128,-1,6
 348.5 190 348.5 190 369.5 199.5 c 128,-1,7
 390.5 209 390.5 209 415.5 209 c 0,8,9
 435.5 209 435.5 209 452.5 200.5 c 128,-1,10
 469.5 192 469.5 192 481.5 177 c 128,-1,11
 493.5 162 493.5 162 500 143 c 128,-1,12
 506.5 124 506.5 124 506.5 103 c 0,13,14
 506.5 76 506.5 76 498 55.5 c 128,-1,15
 489.5 35 489.5 35 474.5 21 c 128,-1,16
 459.5 7 459.5 7 440 -0.5 c 128,-1,17
 420.5 -8 420.5 -8 398.5 -8 c 0,0,1
361.5 165 m 0,18,19
 368.5 172 368.5 172 370 177 c 128,-1,20
 371.5 182 371.5 182 369.5 182 c 0,21,22
 361.5 182 361.5 182 352.5 174.5 c 128,-1,23
 343.5 167 343.5 167 336 156.5 c 128,-1,24
 328.5 146 328.5 146 323.5 134 c 128,-1,25
 318.5 122 318.5 122 318.5 112 c 0,26,27
 318.5 110 318.5 110 320 104 c 128,-1,28
 321.5 98 321.5 98 324.5 98 c 0,29,30
 328.5 98 328.5 98 334.5 120 c 0,31,32
 337.5 134 337.5 134 345.5 145.5 c 128,-1,33
 353.5 157 353.5 157 361.5 165 c 0,18,19
402.5 49 m 0,34,35
 414.5 49 414.5 49 431 63 c 128,-1,36
 447.5 77 447.5 77 447.5 103 c 0,37,38
 447.5 123 447.5 123 437 136.5 c 128,-1,39
 426.5 150 426.5 150 409.5 150 c 256,40,41
 392.5 150 392.5 150 378.5 136.5 c 128,-1,42
 364.5 123 364.5 123 364.5 99 c 256,43,44
 364.5 75 364.5 75 375.5 62 c 128,-1,45
 386.5 49 386.5 49 402.5 49 c 0,34,35
EndSplineSet
EndChar

StartChar: slash.gujr
Encoding: 47 47 15
Width: 808
Flags: W
LayerCount: 2
Fore
SplineSet
290.5 -77 m 0,0,1
 286.5 -77 286.5 -77 275 -75 c 128,-1,2
 263.5 -73 263.5 -73 251.5 -68.5 c 128,-1,3
 239.5 -64 239.5 -64 230.5 -57 c 128,-1,4
 221.5 -50 221.5 -50 221.5 -41 c 0,5,6
 221.5 -38 221.5 -38 232 -9.5 c 128,-1,7
 242.5 19 242.5 19 259.5 64 c 128,-1,8
 276.5 109 276.5 109 299 166 c 128,-1,9
 321.5 223 321.5 223 345.5 283 c 128,-1,10
 369.5 343 369.5 343 393.5 402 c 128,-1,11
 417.5 461 417.5 461 437.5 509.5 c 128,-1,12
 457.5 558 457.5 558 472.5 592 c 128,-1,13
 487.5 626 487.5 626 493.5 636 c 0,14,15
 500.5 647 500.5 647 512 656.5 c 128,-1,16
 523.5 666 523.5 666 537.5 666 c 0,17,18
 544.5 666 544.5 666 553 663.5 c 128,-1,19
 561.5 661 561.5 661 569 656.5 c 128,-1,20
 576.5 652 576.5 652 581.5 646 c 128,-1,21
 586.5 640 586.5 640 586.5 633 c 0,22,23
 586.5 625 586.5 625 578 599.5 c 128,-1,24
 569.5 574 569.5 574 558 544.5 c 128,-1,25
 546.5 515 546.5 515 535 487.5 c 128,-1,26
 523.5 460 523.5 460 517.5 447 c 0,27,28
 513.5 438 513.5 438 502.5 410.5 c 128,-1,29
 491.5 383 491.5 383 476.5 344.5 c 128,-1,30
 461.5 306 461.5 306 443.5 259.5 c 128,-1,31
 425.5 213 425.5 213 406.5 166.5 c 128,-1,32
 387.5 120 387.5 120 369 76 c 128,-1,33
 350.5 32 350.5 32 335 -2 c 128,-1,34
 319.5 -36 319.5 -36 307.5 -56.5 c 128,-1,35
 295.5 -77 295.5 -77 290.5 -77 c 0,0,1
265.5 -37 m 0,36,37
 269.5 -25 269.5 -25 277.5 -7 c 128,-1,38
 285.5 11 285.5 11 292.5 27.5 c 128,-1,39
 299.5 44 299.5 44 303 56.5 c 128,-1,40
 306.5 69 306.5 69 301.5 70 c 0,41,42
 299.5 71 299.5 71 294.5 71 c 128,-1,43
 289.5 71 289.5 71 286.5 66 c 0,44,45
 284.5 62 284.5 62 278 48.5 c 128,-1,46
 271.5 35 271.5 35 265 19.5 c 128,-1,47
 258.5 4 258.5 4 253.5 -10.5 c 128,-1,48
 248.5 -25 248.5 -25 248.5 -31 c 0,49,50
 248.5 -38 248.5 -38 256 -40 c 128,-1,51
 263.5 -42 263.5 -42 265.5 -37 c 0,36,37
EndSplineSet
EndChar

StartChar: zero.gujr
Encoding: 48 48 16
Width: 808
Flags: W
LayerCount: 2
Fore
SplineSet
409 -17 m 0,0,1
 357 -17 357 -17 322.5 11.5 c 128,-1,2
 288 40 288 40 267 86 c 128,-1,3
 246 132 246 132 237.5 190 c 128,-1,4
 229 248 229 248 229 307 c 256,5,6
 229 366 229 366 239 422.5 c 128,-1,7
 249 479 249 479 271.5 523 c 128,-1,8
 294 567 294 567 330 594 c 128,-1,9
 366 621 366 621 417 621 c 0,10,11
 451 621 451 621 476 604 c 128,-1,12
 501 587 501 587 519 560 c 128,-1,13
 537 533 537 533 549 499 c 128,-1,14
 561 465 561 465 567.5 430 c 128,-1,15
 574 395 574 395 576.5 362.5 c 128,-1,16
 579 330 579 330 579 307 c 0,17,18
 579 258 579 258 570 201 c 128,-1,19
 561 144 561 144 541 95.5 c 128,-1,20
 521 47 521 47 488.5 15 c 128,-1,21
 456 -17 456 -17 409 -17 c 0,0,1
302 512 m 0,22,23
 311 531 311 531 316 540.5 c 128,-1,24
 321 550 321 550 321 553 c 0,25,26
 321 555 321 555 317 555.5 c 128,-1,27
 313 556 313 556 308 549 c 0,28,29
 304 543 304 543 297 530.5 c 128,-1,30
 290 518 290 518 283 504 c 128,-1,31
 276 490 276 490 271.5 476.5 c 128,-1,32
 267 463 267 463 267 456 c 256,33,34
 267 449 267 449 272 451 c 128,-1,35
 277 453 277 453 280 460 c 0,36,37
 283 468 283 468 288 481 c 128,-1,38
 293 494 293 494 302 512 c 0,22,23
410 59 m 0,39,40
 441 59 441 59 459 85 c 128,-1,41
 477 111 477 111 486.5 150 c 128,-1,42
 496 189 496 189 498.5 234 c 128,-1,43
 501 279 501 279 501 316 c 0,44,45
 501 339 501 339 498 377 c 128,-1,46
 495 415 495 415 486 451.5 c 128,-1,47
 477 488 477 488 460.5 514.5 c 128,-1,48
 444 541 444 541 417 541 c 0,49,50
 395 541 395 541 379 514 c 128,-1,51
 363 487 363 487 352.5 449.5 c 128,-1,52
 342 412 342 412 337 371 c 128,-1,53
 332 330 332 330 332 301 c 0,54,55
 332 286 332 286 332 262.5 c 128,-1,56
 332 239 332 239 334 212 c 128,-1,57
 336 185 336 185 340.5 158 c 128,-1,58
 345 131 345 131 353.5 109 c 128,-1,59
 362 87 362 87 376 73 c 128,-1,60
 390 59 390 59 410 59 c 0,39,40
EndSplineSet
EndChar

StartChar: one.gujr
Encoding: 49 49 17
Width: 808
Flags: W
LayerCount: 2
Fore
SplineSet
453.5 0 m 0,0,1
 408.5 0 408.5 0 408.5 47 c 2,2,-1
 408.5 450 l 2,3,4
 408.5 459 408.5 459 408 466 c 128,-1,5
 407.5 473 407.5 473 405.5 473 c 0,6,7
 402.5 473 402.5 473 396.5 465.5 c 128,-1,8
 390.5 458 390.5 458 383 448.5 c 128,-1,9
 375.5 439 375.5 439 367 429.5 c 128,-1,10
 358.5 420 358.5 420 350.5 416 c 0,11,12
 341.5 411 341.5 411 331.5 411 c 0,13,14
 317.5 411 317.5 411 308.5 421 c 128,-1,15
 299.5 431 299.5 431 299.5 445 c 0,16,17
 299.5 450 299.5 450 309 463 c 128,-1,18
 318.5 476 318.5 476 325.5 486 c 0,19,20
 334.5 499 334.5 499 352.5 521 c 128,-1,21
 370.5 543 370.5 543 391 564 c 128,-1,22
 411.5 585 411.5 585 430.5 600.5 c 128,-1,23
 449.5 616 449.5 616 461.5 616 c 0,24,25
 467.5 616 467.5 616 475.5 615 c 128,-1,26
 483.5 614 483.5 614 491 611 c 128,-1,27
 498.5 608 498.5 608 503.5 602.5 c 128,-1,28
 508.5 597 508.5 597 508.5 587 c 2,29,-1
 508.5 48 l 2,30,31
 508.5 30 508.5 30 492 15 c 128,-1,32
 475.5 0 475.5 0 453.5 0 c 0,0,1
452.5 592 m 0,33,34
 457.5 600 457.5 600 460.5 602.5 c 128,-1,35
 463.5 605 463.5 605 460.5 606 c 0,36,37
 458.5 606 458.5 606 451.5 603.5 c 128,-1,38
 444.5 601 444.5 601 438.5 595 c 0,39,40
 433.5 590 433.5 590 425.5 583 c 128,-1,41
 417.5 576 417.5 576 417.5 572 c 0,42,43
 417.5 569 417.5 569 421.5 568 c 0,44,45
 428.5 567 428.5 567 438.5 577 c 128,-1,46
 448.5 587 448.5 587 452.5 592 c 0,33,34
441.5 45 m 0,47,48
 441.5 53 441.5 53 439 58 c 128,-1,49
 436.5 63 436.5 63 436.5 74 c 0,50,51
 436.5 79 436.5 79 436 83 c 128,-1,52
 435.5 87 435.5 87 430.5 87 c 0,53,54
 426.5 87 426.5 87 424.5 77.5 c 128,-1,55
 422.5 68 422.5 68 422.5 57 c 128,-1,56
 422.5 46 422.5 46 424.5 36.5 c 128,-1,57
 426.5 27 426.5 27 430.5 27 c 0,58,59
 441.5 27 441.5 27 441.5 45 c 0,47,48
EndSplineSet
EndChar

StartChar: two.gujr
Encoding: 50 50 18
Width: 808
Flags: W
LayerCount: 2
Fore
SplineSet
273.2109375 0 m 2,0,1
 264.2109375 0 264.2109375 0 256.7109375 13 c 128,-1,2
 249.2109375 26 249.2109375 26 251.2109375 38 c 256,3,4
 253.2109375 50 253.2109375 50 267.2109375 68 c 128,-1,5
 281.2109375 86 281.2109375 86 297.2109375 106 c 0,6,7
 333.2109375 151 333.2109375 151 362.2109375 198.5 c 128,-1,8
 391.2109375 246 391.2109375 246 411.7109375 292.5 c 128,-1,9
 432.2109375 339 432.2109375 339 443.2109375 383 c 128,-1,10
 454.2109375 427 454.2109375 427 454.2109375 465 c 0,11,12
 454.2109375 506 454.2109375 506 436.7109375 520 c 128,-1,13
 419.2109375 534 419.2109375 534 399.2109375 534 c 256,14,15
 379.2109375 534 379.2109375 534 364.2109375 517.5 c 128,-1,16
 349.2109375 501 349.2109375 501 349.2109375 464 c 0,17,18
 349.2109375 442 349.2109375 442 354.2109375 430.5 c 128,-1,19
 359.2109375 419 359.2109375 419 359.2109375 403 c 0,20,21
 359.2109375 389 359.2109375 389 343.7109375 383 c 128,-1,22
 328.2109375 377 328.2109375 377 317.2109375 377 c 0,23,24
 291.2109375 377 291.2109375 377 273.7109375 403.5 c 128,-1,25
 256.2109375 430 256.2109375 430 256.2109375 470 c 0,26,27
 256.2109375 502 256.2109375 502 266.7109375 529.5 c 128,-1,28
 277.2109375 557 277.2109375 557 296.7109375 577.5 c 128,-1,29
 316.2109375 598 316.2109375 598 342.7109375 610 c 128,-1,30
 369.2109375 622 369.2109375 622 400.2109375 622 c 0,31,32
 430.2109375 622 430.2109375 622 458.7109375 610.5 c 128,-1,33
 487.2109375 599 487.2109375 599 509.2109375 577.5 c 128,-1,34
 531.2109375 556 531.2109375 556 544.2109375 525.5 c 128,-1,35
 557.2109375 495 557.2109375 495 557.2109375 457 c 0,36,37
 557.2109375 410 557.2109375 410 545.2109375 364 c 128,-1,38
 533.2109375 318 533.2109375 318 514.7109375 277 c 128,-1,39
 496.2109375 236 496.2109375 236 475.2109375 201 c 128,-1,40
 454.2109375 166 454.2109375 166 435.7109375 140 c 128,-1,41
 417.2109375 114 417.2109375 114 405.2109375 98 c 128,-1,42
 393.2109375 82 393.2109375 82 393.2109375 79 c 1,43,44
 396.2109375 79 396.2109375 79 401.2109375 79 c 2,45,-1
 425.2109375 79 l 1,46,-1
 512.2109375 82 l 2,47,48
 530.2109375 83 530.2109375 83 539.2109375 79 c 128,-1,49
 548.2109375 75 548.2109375 75 552.2109375 67.5 c 128,-1,50
 556.2109375 60 556.2109375 60 556.2109375 50 c 128,-1,51
 556.2109375 40 556.2109375 40 556.2109375 29 c 0,52,53
 556.2109375 11 556.2109375 11 545.7109375 5.5 c 128,-1,54
 535.2109375 0 535.2109375 0 503.2109375 0 c 2,55,-1
 273.2109375 0 l 2,0,1
289.2109375 488 m 0,56,57
 290.2109375 500 290.2109375 500 288.2109375 507 c 128,-1,58
 286.2109375 514 286.2109375 514 283.2109375 513 c 0,59,60
 279.2109375 513 279.2109375 513 276.7109375 506.5 c 128,-1,61
 274.2109375 500 274.2109375 500 273.7109375 491.5 c 128,-1,62
 273.2109375 483 273.2109375 483 273.2109375 475.5 c 128,-1,63
 273.2109375 468 273.2109375 468 273.2109375 465 c 0,64,65
 275.2109375 452 275.2109375 452 278.2109375 450 c 0,66,67
 283.2109375 445 283.2109375 445 285.2109375 452 c 128,-1,68
 287.2109375 459 287.2109375 459 289.2109375 488 c 0,56,57
291.2109375 424 m 0,69,70
 291.2109375 431 291.2109375 431 284.2109375 431 c 256,71,72
 277.2109375 431 277.2109375 431 277.2109375 423 c 0,73,74
 277.2109375 421 277.2109375 421 279.2109375 418 c 128,-1,75
 281.2109375 415 281.2109375 415 283.2109375 415 c 0,76,77
 287.2109375 415 287.2109375 415 289.2109375 418 c 128,-1,78
 291.2109375 421 291.2109375 421 291.2109375 424 c 0,69,70
290.2109375 50 m 0,79,80
 298.2109375 69 298.2109375 69 295.2109375 69 c 0,81,82
 288.2109375 69 288.2109375 69 280.7109375 60 c 128,-1,83
 273.2109375 51 273.2109375 51 273.2109375 40 c 0,84,85
 273.2109375 32 273.2109375 32 277.2109375 32 c 0,86,87
 282.2109375 32 282.2109375 32 290.2109375 50 c 0,79,80
EndSplineSet
EndChar

StartChar: three.gujr
Encoding: 51 51 19
Width: 808
Flags: W
LayerCount: 2
Fore
SplineSet
456 486 m 0,0,1
 456 515 456 515 442 527.5 c 128,-1,2
 428 540 428 540 400 540 c 0,3,4
 367 540 367 540 351 514.5 c 128,-1,5
 335 489 335 489 335 430 c 0,6,7
 335 416 335 416 324.5 410 c 128,-1,8
 314 404 314 404 303 404 c 0,9,10
 242 404 242 404 242 493 c 0,11,12
 242 520 242 520 255.5 543.5 c 128,-1,13
 269 567 269 567 290.5 584.5 c 128,-1,14
 312 602 312 602 340 612 c 128,-1,15
 368 622 368 622 396 622 c 0,16,17
 440 622 440 622 471.5 611 c 128,-1,18
 503 600 503 600 523 581 c 128,-1,19
 543 562 543 562 553 537.5 c 128,-1,20
 563 513 563 513 563 487 c 0,21,22
 563 447 563 447 545.5 418 c 128,-1,23
 528 389 528 389 506.5 368.5 c 128,-1,24
 485 348 485 348 467.5 336 c 128,-1,25
 450 324 450 324 450 318 c 256,26,27
 450 312 450 312 468 305.5 c 128,-1,28
 486 299 486 299 508 284 c 128,-1,29
 530 269 530 269 548 241.5 c 128,-1,30
 566 214 566 214 566 167 c 0,31,32
 566 121 566 121 548.5 88.5 c 128,-1,33
 531 56 531 56 502.5 35 c 128,-1,34
 474 14 474 14 438 4 c 128,-1,35
 402 -6 402 -6 365 -6 c 0,36,37
 349 -6 349 -6 329 -1.5 c 128,-1,38
 309 3 309 3 291.5 12.5 c 128,-1,39
 274 22 274 22 262 36.5 c 128,-1,40
 250 51 250 51 250 71 c 0,41,42
 250 86 250 86 256 95.5 c 128,-1,43
 262 105 262 105 273 105 c 0,44,45
 286 105 286 105 296.5 100.5 c 128,-1,46
 307 96 307 96 317.5 90.5 c 128,-1,47
 328 85 328 85 340 80.5 c 128,-1,48
 352 76 352 76 367 76 c 0,49,50
 394 76 394 76 412 84 c 128,-1,51
 430 92 430 92 440.5 105 c 128,-1,52
 451 118 451 118 455 134 c 128,-1,53
 459 150 459 150 459 166 c 0,54,55
 459 198 459 198 441 220 c 128,-1,56
 423 242 423 242 394 242 c 0,57,58
 352 242 352 242 335 257 c 128,-1,59
 318 272 318 272 318 292 c 0,60,61
 318 311 318 311 339.5 334.5 c 128,-1,62
 361 358 361 358 387 383 c 128,-1,63
 413 408 413 408 434.5 434.5 c 128,-1,64
 456 461 456 461 456 486 c 0,0,1
283 515 m 0,65,66
 284 527 284 527 282 534 c 128,-1,67
 280 541 280 541 277 540 c 0,68,69
 273 540 273 540 269.5 534 c 128,-1,70
 266 528 266 528 263.5 520 c 128,-1,71
 261 512 261 512 259.5 504 c 128,-1,72
 258 496 258 496 259 492 c 0,73,74
 261 479 261 479 264 477 c 0,75,76
 269 472 269 472 275 479 c 128,-1,77
 281 486 281 486 283 515 c 0,65,66
277 451 m 0,78,79
 277 458 277 458 270 458 c 256,80,81
 263 458 263 458 263 450 c 0,82,83
 263 448 263 448 265 445 c 128,-1,84
 267 442 267 442 269 442 c 0,85,86
 273 442 273 442 275 445 c 128,-1,87
 277 448 277 448 277 451 c 0,78,79
351 291 m 0,88,89
 353 296 353 296 357 304 c 128,-1,90
 361 312 361 312 366 319 c 0,91,92
 370 325 370 325 371 330 c 128,-1,93
 372 335 372 335 370 335 c 0,94,95
 366 335 366 335 360 329 c 128,-1,96
 354 323 354 323 348.5 315 c 128,-1,97
 343 307 343 307 339 298.5 c 128,-1,98
 335 290 335 290 335 284 c 0,99,100
 335 275 335 275 340 275 c 256,101,102
 345 275 345 275 351 291 c 0,88,89
281 80 m 0,103,104
 281 101 281 101 272 92 c 0,105,106
 267 87 267 87 265 78 c 128,-1,107
 263 69 263 69 264 62 c 0,108,109
 265 58 265 58 267 56.5 c 128,-1,110
 269 55 269 55 271 55 c 256,111,112
 273 55 273 55 277 63.5 c 128,-1,113
 281 72 281 72 281 80 c 0,103,104
EndSplineSet
EndChar

StartChar: four.gujr
Encoding: 52 52 20
Width: 808
Flags: W
LayerCount: 2
Fore
SplineSet
511.5 0 m 0,0,1
 487.5 0 487.5 0 479 19.5 c 128,-1,2
 470.5 39 470.5 39 470.5 62 c 2,3,-1
 470.5 130 l 2,4,5
 470.5 142 470.5 142 457.5 142 c 2,6,-1
 276.5 142 l 2,7,8
 254.5 142 254.5 142 244 152 c 128,-1,9
 233.5 162 233.5 162 233.5 173 c 0,10,11
 233.5 178 233.5 178 242 209.5 c 128,-1,12
 250.5 241 250.5 241 263 286 c 128,-1,13
 275.5 331 275.5 331 290.5 382 c 128,-1,14
 305.5 433 305.5 433 319 478 c 128,-1,15
 332.5 523 332.5 523 342.5 555 c 128,-1,16
 352.5 587 352.5 587 355.5 592 c 0,17,18
 363.5 607 363.5 607 373.5 610.5 c 128,-1,19
 383.5 614 383.5 614 393.5 614 c 0,20,21
 398.5 614 398.5 614 407.5 612 c 128,-1,22
 416.5 610 416.5 610 425 606.5 c 128,-1,23
 433.5 603 433.5 603 440 598 c 128,-1,24
 446.5 593 446.5 593 446.5 587 c 256,25,26
 446.5 581 446.5 581 441.5 558.5 c 128,-1,27
 436.5 536 436.5 536 428.5 503.5 c 128,-1,28
 420.5 471 420.5 471 410.5 433 c 128,-1,29
 400.5 395 400.5 395 390.5 358.5 c 128,-1,30
 380.5 322 380.5 322 371.5 291.5 c 128,-1,31
 362.5 261 362.5 261 356.5 243 c 0,32,33
 354.5 238 354.5 238 353.5 235 c 128,-1,34
 352.5 232 352.5 232 352.5 229 c 0,35,36
 352.5 224 352.5 224 360.5 224 c 2,37,-1
 457.5 224 l 2,38,39
 465.5 224 465.5 224 468 226.5 c 128,-1,40
 470.5 229 470.5 229 470.5 235 c 2,41,-1
 470.5 536 l 2,42,43
 470.5 561 470.5 561 475 576.5 c 128,-1,44
 479.5 592 479.5 592 486.5 601 c 128,-1,45
 493.5 610 493.5 610 502.5 613 c 128,-1,46
 511.5 616 511.5 616 521.5 616 c 0,47,48
 548.5 616 548.5 616 561.5 597 c 128,-1,49
 574.5 578 574.5 578 574.5 550 c 2,50,-1
 574.5 70 l 2,51,52
 574.5 49 574.5 49 569.5 35 c 128,-1,53
 564.5 21 564.5 21 555.5 13.5 c 128,-1,54
 546.5 6 546.5 6 535 3 c 128,-1,55
 523.5 0 523.5 0 511.5 0 c 0,0,1
490.5 541 m 256,56,57
 494.5 541 494.5 541 498 547 c 128,-1,58
 501.5 553 501.5 553 504 561 c 128,-1,59
 506.5 569 506.5 569 508 577.5 c 128,-1,60
 509.5 586 509.5 586 509.5 591 c 0,61,62
 509.5 598 509.5 598 502.5 598 c 0,63,64
 499.5 598 499.5 598 496.5 593.5 c 128,-1,65
 493.5 589 493.5 589 491 582.5 c 128,-1,66
 488.5 576 488.5 576 486.5 569.5 c 128,-1,67
 484.5 563 484.5 563 484.5 558 c 0,68,69
 484.5 552 484.5 552 485.5 546.5 c 128,-1,70
 486.5 541 486.5 541 490.5 541 c 256,56,57
277.5 215 m 0,71,72
 281.5 228 281.5 228 284 235 c 128,-1,73
 286.5 242 286.5 242 285.5 251 c 0,74,75
 285.5 259 285.5 259 280.5 259 c 0,76,77
 277.5 259 277.5 259 274 251.5 c 128,-1,78
 270.5 244 270.5 244 267 234 c 128,-1,79
 263.5 224 263.5 224 261.5 214 c 128,-1,80
 259.5 204 259.5 204 259.5 199 c 0,81,82
 259.5 188 259.5 188 264.5 188 c 0,83,84
 271.5 189 271.5 189 277.5 215 c 0,71,72
267.5 169 m 0,85,86
 267.5 179 267.5 179 259.5 179 c 256,87,88
 251.5 179 251.5 179 251.5 169 c 0,89,90
 251.5 167 251.5 167 252.5 166 c 0,91,92
 256.5 162 256.5 162 259.5 162 c 0,93,94
 261.5 162 261.5 162 264.5 164 c 128,-1,95
 267.5 166 267.5 166 267.5 169 c 0,85,86
503.5 29 m 0,96,97
 500.5 35 500.5 35 497.5 37.5 c 128,-1,98
 494.5 40 494.5 40 494.5 45 c 0,99,100
 494.5 49 494.5 49 493.5 53 c 0,101,102
 493.5 61 493.5 61 488.5 61 c 0,103,104
 482.5 61 482.5 61 482.5 50 c 0,105,106
 482.5 42 482.5 42 487 28.5 c 128,-1,107
 491.5 15 491.5 15 497.5 15 c 0,108,109
 500.5 15 500.5 15 503.5 19.5 c 128,-1,110
 506.5 24 506.5 24 503.5 29 c 0,96,97
EndSplineSet
EndChar

StartChar: five.gujr
Encoding: 53 53 21
Width: 808
Flags: W
LayerCount: 2
Fore
SplineSet
304 -8 m 0,0,1
 282 -8 282 -8 269.5 -1.5 c 128,-1,2
 257 5 257 5 251 14 c 128,-1,3
 245 23 245 23 243.5 32.5 c 128,-1,4
 242 42 242 42 242 48 c 0,5,6
 242 62 242 62 247.5 70 c 128,-1,7
 253 78 253 78 262 81.5 c 128,-1,8
 271 85 271 85 282 85.5 c 128,-1,9
 293 86 293 86 304 86 c 0,10,11
 391 86 391 86 427.5 112.5 c 128,-1,12
 464 139 464 139 464 196 c 0,13,14
 464 251 464 251 438 277 c 128,-1,15
 412 303 412 303 363 303 c 0,16,17
 344 303 344 303 332 300 c 128,-1,18
 320 297 320 297 311 293.5 c 128,-1,19
 302 290 302 290 294 287 c 128,-1,20
 286 284 286 284 276 284 c 256,21,22
 266 284 266 284 260 293 c 128,-1,23
 254 302 254 302 251 314.5 c 128,-1,24
 248 327 248 327 247.5 341.5 c 128,-1,25
 247 356 247 356 247 366 c 2,26,-1
 247 568 l 2,27,28
 247 595 247 595 260.5 605.5 c 128,-1,29
 274 616 274 616 293 616 c 2,30,-1
 526 616 l 2,31,32
 534 616 534 616 541 608.5 c 128,-1,33
 548 601 548 601 548 587 c 0,34,35
 548 569 548 569 540.5 552.5 c 128,-1,36
 533 536 533 536 524 536 c 2,37,-1
 356 535 l 2,38,39
 351 535 351 535 349 530.5 c 128,-1,40
 347 526 347 526 347 521 c 2,41,-1
 347 399 l 2,42,43
 347 383 347 383 350 381 c 128,-1,44
 353 379 353 379 360 379 c 2,45,-1
 384 380 l 2,46,47
 424 382 424 382 457.5 371.5 c 128,-1,48
 491 361 491 361 515 338 c 128,-1,49
 539 315 539 315 552.5 280 c 128,-1,50
 566 245 566 245 566 197 c 0,51,52
 566 158 566 158 550 121.5 c 128,-1,53
 534 85 534 85 501.5 56 c 128,-1,54
 469 27 469 27 420 9.5 c 128,-1,55
 371 -8 371 -8 304 -8 c 0,0,1
275 403 m 0,56,57
 275 422 275 422 274 432 c 128,-1,58
 273 442 273 442 267 436 c 0,59,60
 264 433 264 433 262 421 c 128,-1,61
 260 409 260 409 260 395 c 128,-1,62
 260 381 260 381 262 369 c 128,-1,63
 264 357 264 357 267 354 c 256,64,65
 270 351 270 351 271 351 c 0,66,67
 275 351 275 351 275 403 c 0,56,57
283 326 m 0,68,69
 283 336 283 336 278 336 c 0,70,71
 267 336 267 336 267 322 c 0,72,73
 267 315 267 315 275 315 c 0,74,75
 280 315 280 315 281.5 319.5 c 128,-1,76
 283 324 283 324 283 326 c 0,68,69
274 48 m 0,77,78
 273 50 273 50 273.5 54 c 128,-1,79
 274 58 274 58 274.5 61.5 c 128,-1,80
 275 65 275 65 274 67.5 c 128,-1,81
 273 70 273 70 269 70 c 0,82,83
 264 70 264 70 262 61.5 c 128,-1,84
 260 53 260 53 261 42 c 256,85,86
 262 31 262 31 265 21.5 c 128,-1,87
 268 12 268 12 274 12 c 0,88,89
 276 12 276 12 277.5 23 c 128,-1,90
 279 34 279 34 274 48 c 0,77,78
EndSplineSet
EndChar

StartChar: six.gujr
Encoding: 54 54 22
Width: 808
Flags: W
LayerCount: 2
Fore
SplineSet
405.5 -11 m 0,0,1
 353.5 -11 353.5 -11 317 8.5 c 128,-1,2
 280.5 28 280.5 28 257.5 61 c 128,-1,3
 234.5 94 234.5 94 224 136.5 c 128,-1,4
 213.5 179 213.5 179 213.5 225 c 0,5,6
 213.5 276 213.5 276 221.5 328.5 c 128,-1,7
 229.5 381 229.5 381 246.5 429 c 128,-1,8
 263.5 477 263.5 477 291 518 c 128,-1,9
 318.5 559 318.5 559 357.5 587 c 0,10,11
 385.5 607 385.5 607 413.5 613.5 c 128,-1,12
 441.5 620 441.5 620 463.5 620 c 0,13,14
 468.5 620 468.5 620 476 618.5 c 128,-1,15
 483.5 617 483.5 617 490.5 614 c 128,-1,16
 497.5 611 497.5 611 503 606 c 128,-1,17
 508.5 601 508.5 601 508.5 593 c 0,18,19
 508.5 579 508.5 579 503.5 567.5 c 128,-1,20
 498.5 556 498.5 556 471.5 547 c 0,21,22
 445.5 538 445.5 538 424.5 521 c 128,-1,23
 403.5 504 403.5 504 387 482.5 c 128,-1,24
 370.5 461 370.5 461 358.5 435.5 c 128,-1,25
 346.5 410 346.5 410 337.5 385 c 0,26,27
 332.5 373 332.5 373 328.5 354.5 c 128,-1,28
 324.5 336 324.5 336 324.5 325 c 0,29,30
 324.5 315 324.5 315 328.5 315 c 0,31,32
 331.5 315 331.5 315 338.5 324.5 c 128,-1,33
 345.5 334 345.5 334 358.5 345 c 128,-1,34
 371.5 356 371.5 356 390.5 365.5 c 128,-1,35
 409.5 375 409.5 375 436.5 375 c 0,36,37
 513.5 375 513.5 375 554 323 c 128,-1,38
 594.5 271 594.5 271 594.5 187 c 0,39,40
 594.5 146 594.5 146 579.5 110 c 128,-1,41
 564.5 74 564.5 74 538.5 47 c 128,-1,42
 512.5 20 512.5 20 478 4.5 c 128,-1,43
 443.5 -11 443.5 -11 405.5 -11 c 0,0,1
400.5 80 m 0,44,45
 442.5 80 442.5 80 468 106.5 c 128,-1,46
 493.5 133 493.5 133 493.5 190 c 0,47,48
 493.5 207 493.5 207 490.5 224 c 128,-1,49
 487.5 241 487.5 241 479.5 255 c 128,-1,50
 471.5 269 471.5 269 458 277.5 c 128,-1,51
 444.5 286 444.5 286 423.5 286 c 0,52,53
 404.5 286 404.5 286 385 276 c 128,-1,54
 365.5 266 365.5 266 350.5 250.5 c 128,-1,55
 335.5 235 335.5 235 326 215.5 c 128,-1,56
 316.5 196 316.5 196 316.5 178 c 0,57,58
 316.5 137 316.5 137 334 108.5 c 128,-1,59
 351.5 80 351.5 80 400.5 80 c 0,44,45
274.5 107 m 0,60,61
 271.5 118 271.5 118 267.5 127.5 c 128,-1,62
 263.5 137 263.5 137 260.5 148 c 0,63,64
 258.5 154 258.5 154 257 159 c 128,-1,65
 255.5 164 255.5 164 251.5 163 c 0,66,67
 248.5 163 248.5 163 246.5 155 c 0,68,69
 245.5 148 245.5 148 249 135 c 128,-1,70
 252.5 122 252.5 122 257.5 110 c 128,-1,71
 262.5 98 262.5 98 268 89.5 c 128,-1,72
 273.5 81 273.5 81 275.5 81 c 0,73,74
 280.5 81 280.5 81 280.5 86 c 0,75,76
 280.5 90 280.5 90 278.5 95 c 128,-1,77
 276.5 100 276.5 100 274.5 107 c 0,60,61
EndSplineSet
EndChar

StartChar: seven.gujr
Encoding: 55 55 23
Width: 808
Flags: W
LayerCount: 2
Fore
SplineSet
325.5 -2 m 0,0,1
 311.5 -2 311.5 -2 302 6.5 c 128,-1,2
 292.5 15 292.5 15 292.5 25 c 0,3,4
 292.5 34 292.5 34 302.5 70 c 128,-1,5
 312.5 106 312.5 106 327.5 156 c 128,-1,6
 342.5 206 342.5 206 360.5 263 c 128,-1,7
 378.5 320 378.5 320 395 371 c 128,-1,8
 411.5 422 411.5 422 424.5 461 c 128,-1,9
 437.5 500 437.5 500 442.5 514 c 0,10,11
 447.5 529 447.5 529 435.5 529 c 2,12,-1
 305.5 529 l 2,13,14
 278.5 529 278.5 529 263.5 537.5 c 128,-1,15
 248.5 546 248.5 546 248.5 573 c 256,16,17
 248.5 600 248.5 600 265 608 c 128,-1,18
 281.5 616 281.5 616 307.5 616 c 2,19,-1
 518.5 616 l 2,20,21
 535.5 616 535.5 616 547.5 605.5 c 128,-1,22
 559.5 595 559.5 595 559.5 581 c 0,23,24
 559.5 571 559.5 571 548.5 529 c 128,-1,25
 537.5 487 537.5 487 520 429 c 128,-1,26
 502.5 371 502.5 371 481 303.5 c 128,-1,27
 459.5 236 459.5 236 439.5 176 c 128,-1,28
 419.5 116 419.5 116 403.5 71 c 128,-1,29
 387.5 26 387.5 26 379.5 11 c 0,30,31
 377.5 6 377.5 6 363 2 c 128,-1,32
 348.5 -2 348.5 -2 325.5 -2 c 0,0,1
280.5 594 m 0,33,34
 280.5 602 280.5 602 275.5 602 c 256,35,36
 270.5 602 270.5 602 264 594.5 c 128,-1,37
 257.5 587 257.5 587 257.5 576 c 0,38,39
 257.5 556 257.5 556 265.5 556 c 0,40,41
 268.5 556 268.5 556 271.5 560.5 c 128,-1,42
 274.5 565 274.5 565 276.5 571 c 128,-1,43
 278.5 577 278.5 577 279.5 583.5 c 128,-1,44
 280.5 590 280.5 590 280.5 594 c 0,33,34
325.5 38 m 0,45,46
 327.5 48 327.5 48 329.5 58.5 c 128,-1,47
 331.5 69 331.5 69 333.5 73 c 0,48,49
 337.5 78 337.5 78 336 83 c 128,-1,50
 334.5 88 334.5 88 329.5 88 c 0,51,52
 326.5 88 326.5 88 323 81 c 128,-1,53
 319.5 74 319.5 74 317 64.5 c 128,-1,54
 314.5 55 314.5 55 312.5 45.5 c 128,-1,55
 310.5 36 310.5 36 310.5 31 c 0,56,57
 310.5 19 310.5 19 315.5 19 c 256,58,59
 320.5 19 320.5 19 325.5 38 c 0,45,46
EndSplineSet
EndChar

StartChar: eight.gujr
Encoding: 56 56 24
Width: 808
Flags: W
LayerCount: 2
Fore
SplineSet
395.5 -6 m 0,0,1
 355.5 -6 355.5 -6 322 8.5 c 128,-1,2
 288.5 23 288.5 23 265 46.5 c 128,-1,3
 241.5 70 241.5 70 228.5 100.5 c 128,-1,4
 215.5 131 215.5 131 215.5 163 c 0,5,6
 215.5 201 215.5 201 232.5 228 c 128,-1,7
 249.5 255 249.5 255 270 274 c 128,-1,8
 290.5 293 290.5 293 307.5 305.5 c 128,-1,9
 324.5 318 324.5 318 324.5 325 c 0,10,11
 324.5 333 324.5 333 309 342 c 128,-1,12
 293.5 351 293.5 351 274.5 367 c 128,-1,13
 255.5 383 255.5 383 240 407.5 c 128,-1,14
 224.5 432 224.5 432 224.5 471 c 0,15,16
 224.5 503 224.5 503 239 531 c 128,-1,17
 253.5 559 253.5 559 278.5 580 c 128,-1,18
 303.5 601 303.5 601 335.5 613 c 128,-1,19
 367.5 625 367.5 625 402.5 625 c 0,20,21
 428.5 625 428.5 625 458.5 614.5 c 128,-1,22
 488.5 604 488.5 604 514 584.5 c 128,-1,23
 539.5 565 539.5 565 556 536 c 128,-1,24
 572.5 507 572.5 507 572.5 469 c 0,25,26
 572.5 432 572.5 432 558.5 409.5 c 128,-1,27
 544.5 387 544.5 387 528 373.5 c 128,-1,28
 511.5 360 511.5 360 497.5 353 c 128,-1,29
 483.5 346 483.5 346 483.5 340 c 0,30,31
 483.5 331 483.5 331 500.5 319.5 c 128,-1,32
 517.5 308 517.5 308 538 289.5 c 128,-1,33
 558.5 271 558.5 271 575.5 242 c 128,-1,34
 592.5 213 592.5 213 592.5 169 c 0,35,36
 592.5 136 592.5 136 577 104.5 c 128,-1,37
 561.5 73 561.5 73 534.5 48 c 128,-1,38
 507.5 23 507.5 23 472 8.5 c 128,-1,39
 436.5 -6 436.5 -6 395.5 -6 c 0,0,1
267.5 512 m 0,40,41
 268.5 518 268.5 518 273.5 525 c 128,-1,42
 278.5 532 278.5 532 284.5 538.5 c 128,-1,43
 290.5 545 290.5 545 296 550.5 c 128,-1,44
 301.5 556 301.5 556 304.5 559 c 0,45,46
 315.5 571 315.5 571 315.5 578 c 0,47,48
 315.5 582 315.5 582 311.5 582 c 0,49,50
 302.5 582 302.5 582 292 572.5 c 128,-1,51
 281.5 563 281.5 563 272.5 549.5 c 128,-1,52
 263.5 536 263.5 536 257.5 522.5 c 128,-1,53
 251.5 509 251.5 509 251.5 501 c 256,54,55
 251.5 493 251.5 493 255.5 493 c 0,56,57
 262.5 493 262.5 493 267.5 512 c 0,40,41
402.5 371 m 0,58,59
 415.5 371 415.5 371 428 379.5 c 128,-1,60
 440.5 388 440.5 388 450.5 402 c 128,-1,61
 460.5 416 460.5 416 467 433.5 c 128,-1,62
 473.5 451 473.5 451 473.5 469 c 0,63,64
 473.5 504 473.5 504 453.5 529.5 c 128,-1,65
 433.5 555 433.5 555 401.5 555 c 256,66,67
 369.5 555 369.5 555 346.5 533 c 128,-1,68
 323.5 511 323.5 511 323.5 473 c 0,69,70
 323.5 459 323.5 459 328.5 441.5 c 128,-1,71
 333.5 424 333.5 424 343.5 408 c 128,-1,72
 353.5 392 353.5 392 368.5 381.5 c 128,-1,73
 383.5 371 383.5 371 402.5 371 c 0,58,59
257.5 469 m 0,74,75
 257.5 478 257.5 478 250.5 478 c 0,76,77
 245.5 478 245.5 478 244 475 c 128,-1,78
 242.5 472 242.5 472 242.5 469 c 0,79,80
 242.5 467 242.5 467 243.5 465 c 0,81,82
 245.5 461 245.5 461 249.5 461 c 0,83,84
 251.5 461 251.5 461 254.5 463 c 128,-1,85
 257.5 465 257.5 465 257.5 469 c 0,74,75
397.5 73 m 0,86,87
 445.5 73 445.5 73 463 98 c 128,-1,88
 480.5 123 480.5 123 480.5 169 c 0,89,90
 480.5 188 480.5 188 473 208.5 c 128,-1,91
 465.5 229 465.5 229 454 246 c 128,-1,92
 442.5 263 442.5 263 429.5 274 c 128,-1,93
 416.5 285 416.5 285 405.5 285 c 0,94,95
 390.5 285 390.5 285 375.5 273.5 c 128,-1,96
 360.5 262 360.5 262 348.5 244.5 c 128,-1,97
 336.5 227 336.5 227 329 205.5 c 128,-1,98
 321.5 184 321.5 184 321.5 163 c 0,99,100
 321.5 147 321.5 147 327 131 c 128,-1,101
 332.5 115 332.5 115 342 102 c 128,-1,102
 351.5 89 351.5 89 365.5 81 c 128,-1,103
 379.5 73 379.5 73 397.5 73 c 0,86,87
261.5 222 m 256,104,105
 264.5 230 264.5 230 261.5 233 c 128,-1,106
 258.5 236 258.5 236 251.5 229 c 0,107,108
 248.5 226 248.5 226 243.5 218.5 c 128,-1,109
 238.5 211 238.5 211 234 202 c 128,-1,110
 229.5 193 229.5 193 226 183.5 c 128,-1,111
 222.5 174 222.5 174 222.5 166 c 0,112,113
 221.5 158 221.5 158 225 150.5 c 128,-1,114
 228.5 143 228.5 143 235.5 143 c 0,115,116
 243.5 143 243.5 143 242.5 155.5 c 128,-1,117
 241.5 168 241.5 168 243.5 179 c 0,118,119
 246.5 194 246.5 194 252.5 204 c 128,-1,120
 258.5 214 258.5 214 261.5 222 c 256,104,105
EndSplineSet
EndChar

StartChar: nine.gujr
Encoding: 57 57 25
Width: 808
Flags: W
LayerCount: 2
Fore
SplineSet
402 623 m 0,0,1
 457 623 457 623 494 601.5 c 128,-1,2
 531 580 531 580 553 546 c 128,-1,3
 575 512 575 512 584.5 470 c 128,-1,4
 594 428 594 428 594 387 c 0,5,6
 594 336 594 336 582.5 284 c 128,-1,7
 571 232 571 232 550.5 185 c 128,-1,8
 530 138 530 138 502 99 c 128,-1,9
 474 60 474 60 441 34 c 0,10,11
 414 13 414 13 385.5 2.5 c 128,-1,12
 357 -8 357 -8 335 -8 c 0,13,14
 317 -8 317 -8 304.5 -1.5 c 128,-1,15
 292 5 292 5 292 21 c 0,16,17
 292 36 292 36 300 51.5 c 128,-1,18
 308 67 308 67 335 76 c 0,19,20
 361 85 361 85 381.5 100 c 128,-1,21
 402 115 402 115 418 135 c 128,-1,22
 434 155 434 155 445.5 178.5 c 128,-1,23
 457 202 457 202 466 227 c 0,24,25
 471 239 471 239 475 257.5 c 128,-1,26
 479 276 479 276 479 287 c 0,27,28
 479 297 479 297 475 297 c 0,29,30
 472 297 472 297 465.5 289 c 128,-1,31
 459 281 459 281 446 272 c 128,-1,32
 433 263 433 263 413 255 c 128,-1,33
 393 247 393 247 363 247 c 0,34,35
 293 247 293 247 253.5 295 c 128,-1,36
 214 343 214 343 214 425 c 0,37,38
 214 463 214 463 226 499 c 128,-1,39
 238 535 238 535 262 562.5 c 128,-1,40
 286 590 286 590 321 606.5 c 128,-1,41
 356 623 356 623 402 623 c 0,0,1
407 535 m 0,42,43
 365 535 365 535 339.5 508 c 128,-1,44
 314 481 314 481 314 432 c 0,45,46
 314 390 314 390 332.5 364.5 c 128,-1,47
 351 339 351 339 384 339 c 0,48,49
 404 339 404 339 422.5 347 c 128,-1,50
 441 355 441 355 455 368 c 128,-1,51
 469 381 469 381 478 398.5 c 128,-1,52
 487 416 487 416 487 434 c 0,53,54
 487 455 487 455 483.5 473 c 128,-1,55
 480 491 480 491 471 505 c 128,-1,56
 462 519 462 519 446.5 527 c 128,-1,57
 431 535 431 535 407 535 c 0,42,43
264 486 m 0,58,59
 266 496 266 496 268.5 503.5 c 128,-1,60
 271 511 271 511 271 517 c 0,61,62
 271 524 271 524 264 524 c 0,63,64
 261 524 261 524 255.5 511 c 128,-1,65
 250 498 250 498 245.5 480 c 128,-1,66
 241 462 241 462 238 444 c 128,-1,67
 235 426 235 426 237 415 c 0,68,69
 240 403 240 403 245 403 c 256,70,71
 250 403 250 403 252.5 410.5 c 128,-1,72
 255 418 255 418 257 426 c 0,73,74
 261 443 261 443 261 457 c 128,-1,75
 261 471 261 471 264 486 c 0,58,59
260 380 m 0,76,77
 260 385 260 385 258.5 388.5 c 128,-1,78
 257 392 257 392 254 392 c 0,79,80
 249 392 249 392 245 389 c 128,-1,81
 241 386 241 386 241 376 c 0,82,83
 241 373 241 373 243.5 370 c 128,-1,84
 246 367 246 367 250 367 c 0,85,86
 256 367 256 367 258 372.5 c 128,-1,87
 260 378 260 378 260 380 c 0,76,77
332 58 m 2,88,89
 332 61 332 61 327.5 60 c 128,-1,90
 323 59 323 59 318 55 c 128,-1,91
 313 51 313 51 309 44 c 128,-1,92
 305 37 305 37 305 28 c 0,93,94
 305 26 305 26 306.5 20 c 128,-1,95
 308 14 308 14 312 14 c 0,96,97
 315 14 315 14 318.5 20.5 c 128,-1,98
 322 27 322 27 325 35.5 c 128,-1,99
 328 44 328 44 330 51 c 128,-1,100
 332 58 332 58 332 58 c 2,88,89
EndSplineSet
EndChar

StartChar: colon.gujr
Encoding: 58 58 26
Width: 808
Flags: W
LayerCount: 2
Fore
SplineSet
342 54 m 0,0,1
 342 91 342 91 360 106 c 128,-1,2
 378 121 378 121 403 121 c 0,3,4
 429 121 429 121 447.5 106 c 128,-1,5
 466 91 466 91 466 54 c 0,6,7
 466 18 466 18 447.5 2 c 128,-1,8
 429 -14 429 -14 403 -14 c 0,9,10
 378 -14 378 -14 360 2 c 128,-1,11
 342 18 342 18 342 54 c 0,0,1
342 482 m 0,12,13
 342 520 342 520 360 535 c 128,-1,14
 378 550 378 550 403 550 c 0,15,16
 429 550 429 550 447.5 535 c 128,-1,17
 466 520 466 520 466 482 c 0,18,19
 466 446 466 446 447.5 430 c 128,-1,20
 429 414 429 414 403 414 c 0,21,22
 378 414 378 414 360 430 c 128,-1,23
 342 446 342 446 342 482 c 0,12,13
EndSplineSet
EndChar

StartChar: semicolon.gujr
Encoding: 59 59 27
Width: 808
Flags: W
LayerCount: 2
Fore
SplineSet
474.5 105 m 1,0,1
 465.5 70 465.5 70 451.5 29 c 128,-1,2
 437.5 -12 437.5 -12 421 -52.5 c 128,-1,3
 404.5 -93 404.5 -93 388.5 -129 c 1,4,-1
 322.5 -129 l 1,5,6
 329.5 -101 329.5 -101 337 -69 c 128,-1,7
 344.5 -37 344.5 -37 351.5 -4.5 c 128,-1,8
 358.5 28 358.5 28 364 59 c 128,-1,9
 369.5 90 369.5 90 373.5 116 c 1,10,-1
 467.5 116 l 1,11,-1
 474.5 105 l 1,0,1
361.5 482 m 0,12,13
 361.5 520 361.5 520 379.5 535 c 128,-1,14
 397.5 550 397.5 550 422.5 550 c 0,15,16
 448.5 550 448.5 550 467 535 c 128,-1,17
 485.5 520 485.5 520 485.5 482 c 0,18,19
 485.5 446 485.5 446 467 430 c 128,-1,20
 448.5 414 448.5 414 422.5 414 c 0,21,22
 397.5 414 397.5 414 379.5 430 c 128,-1,23
 361.5 446 361.5 446 361.5 482 c 0,12,13
EndSplineSet
EndChar

StartChar: less.gujr
Encoding: 60 60 28
Width: 808
Flags: W
LayerCount: 2
Fore
SplineSet
639.5 116 m 1,0,-1
 168.5 323 l 1,1,-1
 168.5 373 l 1,2,-1
 639.5 608 l 1,3,-1
 639.5 530 l 1,4,-1
 262.5 352 l 1,5,-1
 639.5 194 l 1,6,-1
 639.5 116 l 1,0,-1
EndSplineSet
EndChar

StartChar: equal.gujr
Encoding: 61 61 29
Width: 808
Flags: W
LayerCount: 2
Fore
SplineSet
175 416 m 1,0,-1
 175 487 l 1,1,-1
 633 487 l 1,2,-1
 633 416 l 1,3,-1
 175 416 l 1,0,-1
175 217 m 1,4,-1
 175 288 l 1,5,-1
 633 288 l 1,6,-1
 633 217 l 1,7,-1
 175 217 l 1,4,-1
EndSplineSet
EndChar

StartChar: greater.gujr
Encoding: 62 62 30
Width: 808
Flags: W
LayerCount: 2
Fore
SplineSet
168.5 194 m 1,0,-1
 545.5 351 l 1,1,-1
 168.5 530 l 1,2,-1
 168.5 608 l 1,3,-1
 639.5 373 l 1,4,-1
 639.5 323 l 1,5,-1
 168.5 116 l 1,6,-1
 168.5 194 l 1,0,-1
EndSplineSet
EndChar

StartChar: question.gujr
Encoding: 63 63 31
Width: 808
Flags: W
LayerCount: 2
Fore
SplineSet
334 199 m 6,0,1
 334 237 334 237 341.5 264.5 c 132,-1,2
 349 292 349 292 367.5 317 c 132,-1,3
 386 342 386 342 418 369 c 4,4,5
 457 402 457 402 478.5 424 c 132,-1,6
 500 446 500 446 509 467 c 132,-1,7
 518 488 518 488 518 518 c 4,8,9
 518 566 518 566 487 592 c 132,-1,10
 456 618 456 618 397 618 c 4,11,12
 348 618 348 618 310 605.5 c 132,-1,13
 272 593 272 593 237 576 c 5,14,-1
 206 646 l 5,15,16
 246 667 246 667 294.5 681 c 132,-1,17
 343 695 343 695 403 695 c 4,18,19
 498 695 498 695 550 648 c 132,-1,20
 602 601 602 601 602 520 c 4,21,22
 602 475 602 475 587.5 443.5 c 132,-1,23
 573 412 573 412 546.5 385.5 c 132,-1,24
 520 359 520 359 484 329 c 4,25,26
 451 301 451 301 433.5 280 c 132,-1,27
 416 259 416 259 410 238.5 c 132,-1,28
 404 218 404 218 404 189 c 6,29,-1
 404 172 l 5,30,-1
 334 172 l 5,31,-1
 334 199 l 6,0,1
311 25 m 4,32,33
 311 62 311 62 328.5 77 c 132,-1,34
 346 92 346 92 373 92 c 4,35,36
 398 92 398 92 416 77 c 132,-1,37
 434 62 434 62 434 25 c 4,38,39
 434 -11 434 -11 416 -27 c 132,-1,40
 398 -43 398 -43 373 -43 c 4,41,42
 346 -43 346 -43 328.5 -27 c 132,-1,43
 311 -11 311 -11 311 25 c 4,32,33
EndSplineSet
EndChar

StartChar: bracketleft.gujr
Encoding: 91 91 32
Width: 808
Flags: W
LayerCount: 2
Fore
SplineSet
308.930664062 -70 m 0,0,1
 305.930664062 -67 305.930664062 -67 304.430664062 -56.5 c 128,-1,2
 302.930664062 -46 302.930664062 -46 301.930664062 -12.5 c 128,-1,3
 300.930664062 21 300.930664062 21 300.930664062 86.5 c 128,-1,4
 300.930664062 152 300.930664062 152 300.930664062 266 c 0,5,6
 300.930664062 347 300.930664062 347 300.930664062 405 c 128,-1,7
 300.930664062 463 300.930664062 463 300.930664062 503.5 c 128,-1,8
 300.930664062 544 300.930664062 544 301.930664062 570 c 128,-1,9
 302.930664062 596 302.930664062 596 304.930664062 611.5 c 128,-1,10
 306.930664062 627 306.930664062 627 309.930664062 635 c 128,-1,11
 312.930664062 643 312.930664062 643 317.930664062 649 c 0,12,13
 321.930664062 654 321.930664062 654 333.430664062 657 c 128,-1,14
 344.930664062 660 344.930664062 660 360.430664062 661.5 c 128,-1,15
 375.930664062 663 375.930664062 663 395.430664062 663.5 c 128,-1,16
 414.930664062 664 414.930664062 664 434.930664062 664 c 0,17,18
 475.930664062 664 475.930664062 664 496.430664062 650 c 128,-1,19
 516.930664062 636 516.930664062 636 497.930664062 616 c 0,20,21
 492.930664062 610 492.930664062 610 478.930664062 606 c 128,-1,22
 464.930664062 602 464.930664062 602 434.930664062 602 c 0,23,24
 420.930664062 602 420.930664062 602 413.430664062 600 c 128,-1,25
 405.930664062 598 405.930664062 598 402.930664062 593 c 128,-1,26
 399.930664062 588 399.930664062 588 399.930664062 579.5 c 128,-1,27
 399.930664062 571 399.930664062 571 399.930664062 557 c 2,28,-1
 399.930664062 -20 l 1,29,-1
 417.930664062 -20 l 2,30,31
 460.930664062 -20 460.930664062 -20 475.430664062 -27.5 c 128,-1,32
 489.930664062 -35 489.930664062 -35 489.930664062 -56 c 0,33,34
 489.930664062 -66 489.930664062 -66 486.430664062 -71.5 c 128,-1,35
 482.930664062 -77 482.930664062 -77 472.430664062 -79.5 c 128,-1,36
 461.930664062 -82 461.930664062 -82 443.930664062 -82.5 c 128,-1,37
 425.930664062 -83 425.930664062 -83 395.930664062 -83 c 0,38,39
 368.930664062 -83 368.930664062 -83 353.430664062 -83 c 128,-1,40
 337.930664062 -83 337.930664062 -83 328.930664062 -81.5 c 128,-1,41
 319.930664062 -80 319.930664062 -80 315.930664062 -77.5 c 128,-1,42
 311.930664062 -75 311.930664062 -75 308.930664062 -70 c 0,0,1
345.930664062 616 m 256,43,44
 347.930664062 624 347.930664062 624 356.930664062 630 c 128,-1,45
 365.930664062 636 365.930664062 636 371.930664062 636 c 0,46,47
 380.930664062 636 380.930664062 636 380.930664062 643 c 0,48,49
 380.930664062 644 380.930664062 644 379.430664062 644 c 128,-1,50
 377.930664062 644 377.930664062 644 371.930664062 644 c 0,51,52
 356.930664062 644 356.930664062 644 342.930664062 634 c 128,-1,53
 328.930664062 624 328.930664062 624 328.930664062 610 c 0,54,55
 328.930664062 598 328.930664062 598 332.930664062 598 c 256,56,57
 336.930664062 598 336.930664062 598 340.430664062 603 c 128,-1,58
 343.930664062 608 343.930664062 608 345.930664062 616 c 256,43,44
EndSplineSet
EndChar

StartChar: backslash.gujr
Encoding: 92 92 33
Width: 808
Flags: W
LayerCount: 2
Fore
SplineSet
290.5 666 m 0,0,1
 297.5 666 297.5 666 315.5 630.5 c 128,-1,2
 333.5 595 333.5 595 357 541 c 128,-1,3
 380.5 487 380.5 487 406.5 422.5 c 128,-1,4
 432.5 358 432.5 358 455.5 299.5 c 128,-1,5
 478.5 241 478.5 241 495 197.5 c 128,-1,6
 511.5 154 511.5 154 517.5 142 c 0,7,8
 523.5 129 523.5 129 535 101.5 c 128,-1,9
 546.5 74 546.5 74 558 44.5 c 128,-1,10
 569.5 15 569.5 15 578 -10.5 c 128,-1,11
 586.5 -36 586.5 -36 586.5 -44 c 0,12,13
 586.5 -51 586.5 -51 581.5 -57 c 128,-1,14
 576.5 -63 576.5 -63 569 -67.5 c 128,-1,15
 561.5 -72 561.5 -72 553 -74.5 c 128,-1,16
 544.5 -77 544.5 -77 537.5 -77 c 0,17,18
 523.5 -77 523.5 -77 512 -67.5 c 128,-1,19
 500.5 -58 500.5 -58 493.5 -47 c 0,20,21
 487.5 -37 487.5 -37 472.5 -3 c 128,-1,22
 457.5 31 457.5 31 437.5 79.5 c 128,-1,23
 417.5 128 417.5 128 393.5 187 c 128,-1,24
 369.5 246 369.5 246 345.5 306 c 128,-1,25
 321.5 366 321.5 366 299 423 c 128,-1,26
 276.5 480 276.5 480 259.5 525 c 128,-1,27
 242.5 570 242.5 570 232 598.5 c 128,-1,28
 221.5 627 221.5 627 221.5 630 c 0,29,30
 221.5 639 221.5 639 230.5 646 c 128,-1,31
 239.5 653 239.5 653 251.5 657.5 c 128,-1,32
 263.5 662 263.5 662 275 664 c 128,-1,33
 286.5 666 286.5 666 290.5 666 c 0,0,1
265.5 626 m 0,34,35
 263.5 631 263.5 631 256 629 c 128,-1,36
 248.5 627 248.5 627 248.5 620 c 0,37,38
 248.5 614 248.5 614 253.5 599.5 c 128,-1,39
 258.5 585 258.5 585 265 569.5 c 128,-1,40
 271.5 554 271.5 554 278 540.5 c 128,-1,41
 284.5 527 284.5 527 286.5 523 c 0,42,43
 289.5 518 289.5 518 294.5 518 c 128,-1,44
 299.5 518 299.5 518 301.5 519 c 0,45,46
 306.5 520 306.5 520 303 532.5 c 128,-1,47
 299.5 545 299.5 545 292.5 561.5 c 128,-1,48
 285.5 578 285.5 578 277.5 596 c 128,-1,49
 269.5 614 269.5 614 265.5 626 c 0,34,35
EndSplineSet
EndChar

StartChar: bracketright.gujr
Encoding: 93 93 34
Width: 808
Flags: W
LayerCount: 2
Fore
SplineSet
333.75 -80 m 0,0,1
 318.75 -80 318.75 -80 308.25 -71.5 c 128,-1,2
 297.75 -63 297.75 -63 297.75 -55 c 0,3,4
 297.75 -33 297.75 -33 311.25 -25 c 128,-1,5
 324.75 -17 324.75 -17 344.75 -17 c 0,6,7
 368.75 -17 368.75 -17 382.25 -15 c 128,-1,8
 395.75 -13 395.75 -13 402.25 -8.5 c 128,-1,9
 408.75 -4 408.75 -4 410.25 3.5 c 128,-1,10
 411.75 11 411.75 11 411.75 21 c 2,11,-1
 411.75 551 l 2,12,13
 411.75 580 411.75 580 399.75 590 c 128,-1,14
 387.75 600 387.75 600 376.75 600 c 256,15,16
 365.75 600 365.75 600 353.75 598 c 128,-1,17
 341.75 596 341.75 596 330.75 596 c 0,18,19
 316.75 596 316.75 596 307.25 603 c 128,-1,20
 297.75 610 297.75 610 297.75 633 c 0,21,22
 297.75 645 297.75 645 314.25 653.5 c 128,-1,23
 330.75 662 330.75 662 359.75 662 c 0,24,25
 384.75 662 384.75 662 408.75 662 c 128,-1,26
 432.75 662 432.75 662 452.25 660.5 c 128,-1,27
 471.75 659 471.75 659 484.75 656 c 128,-1,28
 497.75 653 497.75 653 500.75 647 c 0,29,30
 503.75 642 503.75 642 504.25 625.5 c 128,-1,31
 504.75 609 504.75 609 504.75 570.5 c 128,-1,32
 504.75 532 504.75 532 505.25 466 c 128,-1,33
 505.75 400 505.75 400 506.75 295 c 0,34,35
 508.75 193 508.75 193 509.75 127.5 c 128,-1,36
 510.75 62 510.75 62 509.75 21 c 0,37,38
 509.75 -7 509.75 -7 505.75 -25 c 128,-1,39
 501.75 -43 501.75 -43 495.75 -54 c 128,-1,40
 489.75 -65 489.75 -65 481.25 -70 c 128,-1,41
 472.75 -75 472.75 -75 462.75 -76 c 0,42,43
 444.75 -78 444.75 -78 423.25 -79 c 128,-1,44
 401.75 -80 401.75 -80 382.75 -80 c 128,-1,45
 363.75 -80 363.75 -80 349.75 -80 c 128,-1,46
 335.75 -80 335.75 -80 333.75 -80 c 0,0,1
328.75 644 m 256,47,48
 324.75 649 324.75 649 317.75 645 c 128,-1,49
 310.75 641 310.75 641 310.75 633 c 0,50,51
 310.75 623 310.75 623 314.75 623 c 256,52,53
 318.75 623 318.75 623 318.75 630 c 0,54,55
 319.75 634 319.75 634 326.25 636.5 c 128,-1,56
 332.75 639 332.75 639 328.75 644 c 256,47,48
EndSplineSet
EndChar

StartChar: asciicircum.gujr
Encoding: 94 94 35
Width: 808
Flags: W
LayerCount: 2
Fore
SplineSet
156 267 m 1,0,-1
 368 719 l 1,1,-1
 418 719 l 1,2,-1
 652 267 l 1,3,-1
 574 267 l 1,4,-1
 394 626 l 1,5,-1
 234 267 l 1,6,-1
 156 267 l 1,0,-1
EndSplineSet
EndChar

StartChar: underscore.gujr
Encoding: 95 95 36
Width: 808
Flags: W
LayerCount: 2
Fore
SplineSet
628 -154 m 1,0,-1
 180 -154 l 1,1,-1
 180 -90 l 1,2,-1
 628 -90 l 1,3,-1
 628 -154 l 1,0,-1
EndSplineSet
EndChar

StartChar: braceleft.gujr
Encoding: 123 123 37
Width: 808
Flags: W
LayerCount: 2
Fore
SplineSet
480.5 -77 m 0,0,1
 427.5 -77 427.5 -77 397.5 -62 c 128,-1,2
 367.5 -47 367.5 -47 352 -21 c 128,-1,3
 336.5 5 336.5 5 332 39 c 128,-1,4
 327.5 73 327.5 73 325.5 111 c 0,5,6
 323.5 156 323.5 156 313 178 c 128,-1,7
 302.5 200 302.5 200 291 213 c 128,-1,8
 279.5 226 279.5 226 270.5 238 c 128,-1,9
 261.5 250 261.5 250 261.5 276 c 256,10,11
 261.5 302 261.5 302 274.5 315.5 c 128,-1,12
 287.5 329 287.5 329 303.5 345 c 128,-1,13
 319.5 361 319.5 361 333.5 387.5 c 128,-1,14
 347.5 414 347.5 414 349.5 466 c 0,15,16
 351.5 505 351.5 505 354.5 540.5 c 128,-1,17
 357.5 576 357.5 576 371 602.5 c 128,-1,18
 384.5 629 384.5 629 413 644.5 c 128,-1,19
 441.5 660 441.5 660 495.5 660 c 0,20,21
 510.5 660 510.5 660 520.5 656 c 128,-1,22
 530.5 652 530.5 652 536.5 646 c 128,-1,23
 542.5 640 542.5 640 544.5 633.5 c 128,-1,24
 546.5 627 546.5 627 546.5 622 c 0,25,26
 546.5 606 546.5 606 534 602 c 128,-1,27
 521.5 598 521.5 598 504.5 596.5 c 128,-1,28
 487.5 595 487.5 595 469.5 591 c 128,-1,29
 451.5 587 451.5 587 439.5 572 c 0,30,31
 431.5 562 431.5 562 432.5 540.5 c 128,-1,32
 433.5 519 433.5 519 436.5 492.5 c 128,-1,33
 439.5 466 439.5 466 441 436 c 128,-1,34
 442.5 406 442.5 406 436.5 378 c 0,35,36
 433.5 364 433.5 364 420 348 c 128,-1,37
 406.5 332 406.5 332 392.5 318 c 128,-1,38
 378.5 304 378.5 304 367 293 c 128,-1,39
 355.5 282 355.5 282 355.5 277 c 256,40,41
 355.5 272 355.5 272 366.5 260.5 c 128,-1,42
 377.5 249 377.5 249 390.5 232 c 128,-1,43
 403.5 215 403.5 215 414.5 192.5 c 128,-1,44
 425.5 170 425.5 170 425.5 143 c 0,45,46
 425.5 135 425.5 135 424.5 115.5 c 128,-1,47
 423.5 96 423.5 96 423 74.5 c 128,-1,48
 422.5 53 422.5 53 424 34 c 128,-1,49
 425.5 15 425.5 15 430.5 9 c 0,50,51
 439.5 -2 439.5 -2 452.5 -10 c 128,-1,52
 465.5 -18 465.5 -18 482.5 -18 c 0,53,54
 490.5 -18 490.5 -18 500 -18.5 c 128,-1,55
 509.5 -19 509.5 -19 517 -21.5 c 128,-1,56
 524.5 -24 524.5 -24 529.5 -30 c 128,-1,57
 534.5 -36 534.5 -36 534.5 -47 c 0,58,59
 534.5 -56 534.5 -56 529 -62 c 128,-1,60
 523.5 -68 523.5 -68 515.5 -71.5 c 128,-1,61
 507.5 -75 507.5 -75 498 -76 c 128,-1,62
 488.5 -77 488.5 -77 480.5 -77 c 0,0,1
399.5 584 m 0,63,64
 406.5 594 406.5 594 415 601.5 c 128,-1,65
 423.5 609 423.5 609 431 615 c 128,-1,66
 438.5 621 438.5 621 443 626 c 128,-1,67
 447.5 631 447.5 631 447.5 636 c 0,68,69
 447.5 640 447.5 640 442.5 640 c 0,70,71
 435.5 640 435.5 640 424.5 633 c 128,-1,72
 413.5 626 413.5 626 403.5 616 c 128,-1,73
 393.5 606 393.5 606 386.5 594.5 c 128,-1,74
 379.5 583 379.5 583 379.5 574 c 0,75,76
 379.5 572 379.5 572 381.5 571 c 128,-1,77
 383.5 570 383.5 570 384.5 570 c 0,78,79
 389.5 570 389.5 570 393 575 c 128,-1,80
 396.5 580 396.5 580 399.5 584 c 0,63,64
EndSplineSet
EndChar

StartChar: bar.gujr
Encoding: 124 124 38
Width: 808
Flags: W
LayerCount: 2
Fore
SplineSet
406 -99 m 256,0,1
 379 -99 379 -99 367.5 -80 c 128,-1,2
 356 -61 356 -61 356 -43 c 2,3,-1
 357 666 l 2,4,5
 357 682 357 682 367.5 694 c 128,-1,6
 378 706 378 706 398 706 c 0,7,8
 422 706 422 706 436 698 c 128,-1,9
 450 690 450 690 452 672 c 2,10,-1
 452 -38 l 2,11,12
 452 -60 452 -60 442.5 -79.5 c 128,-1,13
 433 -99 433 -99 406 -99 c 256,0,1
384 653 m 0,14,15
 384 664 384 664 386.5 671.5 c 128,-1,16
 389 679 389 679 390.5 683.5 c 128,-1,17
 392 688 392 688 392 690 c 128,-1,18
 392 692 392 692 387 692 c 0,19,20
 381 692 381 692 377.5 686.5 c 128,-1,21
 374 681 374 681 372 673.5 c 128,-1,22
 370 666 370 666 369.5 658.5 c 128,-1,23
 369 651 369 651 369 646 c 0,24,25
 369 633 369 633 372 622.5 c 128,-1,26
 375 612 375 612 381 612 c 0,27,28
 384 612 384 612 384.5 616.5 c 128,-1,29
 385 621 385 621 385 628 c 128,-1,30
 385 635 385 635 384.5 642 c 128,-1,31
 384 649 384 649 384 653 c 0,14,15
EndSplineSet
EndChar

StartChar: braceright.gujr
Encoding: 125 125 39
Width: 808
Flags: W
LayerCount: 2
Fore
SplineSet
330 -74 m 0,0,1
 323 -74 323 -74 314 -72.5 c 128,-1,2
 305 -71 305 -71 296.5 -67 c 128,-1,3
 288 -63 288 -63 282 -57 c 128,-1,4
 276 -51 276 -51 276 -42 c 0,5,6
 276 -34 276 -34 281 -29.5 c 128,-1,7
 286 -25 286 -25 292.5 -23 c 128,-1,8
 299 -21 299 -21 307 -21 c 128,-1,9
 315 -21 315 -21 321 -21 c 0,10,11
 348 -21 348 -21 360 -12.5 c 128,-1,12
 372 -4 372 -4 376.5 10.5 c 128,-1,13
 381 25 381 25 381 43 c 128,-1,14
 381 61 381 61 383 80 c 0,15,16
 385 97 385 97 387 122.5 c 128,-1,17
 389 148 389 148 394.5 175 c 128,-1,18
 400 202 400 202 408.5 226.5 c 128,-1,19
 417 251 417 251 430 264 c 0,20,21
 432 267 432 267 440 271.5 c 128,-1,22
 448 276 448 276 448 280 c 0,23,24
 448 286 448 286 436.5 289.5 c 128,-1,25
 425 293 425 293 421 296 c 0,26,27
 405 306 405 306 394.5 334 c 128,-1,28
 384 362 384 362 378.5 395 c 128,-1,29
 373 428 373 428 370.5 459 c 128,-1,30
 368 490 368 490 367 505 c 0,31,32
 366 514 366 514 366.5 529 c 128,-1,33
 367 544 367 544 365.5 558 c 128,-1,34
 364 572 364 572 360.5 583 c 128,-1,35
 357 594 357 594 348 596 c 0,36,37
 330 601 330 601 312 599 c 0,38,39
 283 597 283 597 270.5 605.5 c 128,-1,40
 258 614 258 614 258 631 c 0,41,42
 258 653 258 653 280.5 660.5 c 128,-1,43
 303 668 303 668 336 663 c 0,44,45
 372 659 372 659 395.5 642.5 c 128,-1,46
 419 626 419 626 433 603 c 128,-1,47
 447 580 447 580 453.5 553.5 c 128,-1,48
 460 527 460 527 462 502 c 0,49,50
 464 472 464 472 465 443 c 128,-1,51
 466 414 466 414 470.5 389 c 128,-1,52
 475 364 475 364 485.5 344.5 c 128,-1,53
 496 325 496 325 517 315 c 0,54,55
 526 311 526 311 538 301.5 c 128,-1,56
 550 292 550 292 550 281 c 0,57,58
 550 273 550 273 544 267.5 c 128,-1,59
 538 262 538 262 532 257 c 0,60,61
 512 242 512 242 503 227.5 c 128,-1,62
 494 213 494 213 490.5 197.5 c 128,-1,63
 487 182 487 182 487 164.5 c 128,-1,64
 487 147 487 147 486 126 c 0,65,66
 484 87 484 87 480.5 51 c 128,-1,67
 477 15 477 15 462.5 -12.5 c 128,-1,68
 448 -40 448 -40 417 -57 c 128,-1,69
 386 -74 386 -74 330 -74 c 0,0,1
283 616 m 0,70,71
 286 616 286 616 289.5 620.5 c 128,-1,72
 293 625 293 625 295.5 630.5 c 128,-1,73
 298 636 298 636 299.5 641.5 c 128,-1,74
 301 647 301 647 301 649 c 0,75,76
 301 656 301 656 294 656 c 0,77,78
 288 656 288 656 284 652 c 128,-1,79
 280 648 280 648 277.5 643 c 128,-1,80
 275 638 275 638 274 632.5 c 128,-1,81
 273 627 273 627 274 625 c 0,82,83
 277 616 277 616 283 616 c 0,70,71
EndSplineSet
EndChar

StartChar: asciitilde.gujr
Encoding: 126 126 40
Width: 808
Flags: W
LayerCount: 2
Fore
SplineSet
387.5 319 m 0,0,1
 351.5 335 351.5 335 328 340.5 c 128,-1,2
 304.5 346 304.5 346 282.5 346 c 0,3,4
 254.5 346 254.5 346 223.5 329 c 128,-1,5
 192.5 312 192.5 312 168.5 287 c 1,6,-1
 168.5 365 l 1,7,8
 192.5 391 192.5 391 222.5 404.5 c 128,-1,9
 252.5 418 252.5 418 288.5 418 c 0,10,11
 317.5 418 317.5 418 346 412 c 128,-1,12
 374.5 406 374.5 406 420.5 386 c 0,13,14
 456.5 370 456.5 370 480 364.5 c 128,-1,15
 503.5 359 503.5 359 524.5 359 c 0,16,17
 553.5 359 553.5 359 584.5 376 c 128,-1,18
 615.5 393 615.5 393 639.5 418 c 1,19,-1
 639.5 341 l 1,20,21
 615.5 315 615.5 315 585.5 301 c 128,-1,22
 555.5 287 555.5 287 519.5 287 c 0,23,24
 491.5 287 491.5 287 462 293.5 c 128,-1,25
 432.5 300 432.5 300 387.5 319 c 0,0,1
EndSplineSet
EndChar

StartChar: A
Encoding: 65 65 41
Width: 808
Flags: W
LayerCount: 2
Fore
SplineSet
359.5 -8 m 0,0,1
 292.5 -8 292.5 -8 255 71 c 128,-1,2
 217.5 150 217.5 150 217.5 291 c 0,3,4
 217.5 444 217.5 444 261.5 530 c 128,-1,5
 305.5 616 305.5 616 385.5 621 c 0,6,7
 414.5 623 414.5 623 433 614.5 c 128,-1,8
 451.5 606 451.5 606 463.5 595 c 128,-1,9
 475.5 584 475.5 584 481.5 575 c 128,-1,10
 487.5 566 487.5 566 490.5 566 c 256,11,12
 493.5 566 493.5 566 494.5 575 c 128,-1,13
 495.5 584 495.5 584 499.5 595 c 128,-1,14
 503.5 606 503.5 606 512 615 c 128,-1,15
 520.5 624 520.5 624 539.5 624 c 256,16,17
 558.5 624 558.5 624 571.5 615 c 128,-1,18
 584.5 606 584.5 606 584.5 592 c 2,19,-1
 584.5 204 l 2,20,21
 584.5 163 584.5 163 587.5 126.5 c 128,-1,22
 590.5 90 590.5 90 590.5 71 c 0,23,24
 590.5 36 590.5 36 577 14 c 128,-1,25
 563.5 -8 563.5 -8 542.5 -8 c 0,26,27
 518.5 -8 518.5 -8 503.5 19 c 128,-1,28
 488.5 46 488.5 46 488.5 88 c 0,29,30
 488.5 114 488.5 114 483.5 114 c 0,31,32
 479.5 114 479.5 114 472.5 95 c 128,-1,33
 465.5 76 465.5 76 452 53 c 128,-1,34
 438.5 30 438.5 30 416.5 11 c 128,-1,35
 394.5 -8 394.5 -8 359.5 -8 c 0,0,1
513.5 557 m 0,36,37
 517.5 557 517.5 557 519 563.5 c 128,-1,38
 520.5 570 520.5 570 522.5 577 c 0,39,40
 525.5 587 525.5 587 528.5 594 c 128,-1,41
 531.5 601 531.5 601 531.5 606 c 256,42,43
 531.5 611 531.5 611 527.5 611 c 0,44,45
 522.5 611 522.5 611 514.5 601 c 128,-1,46
 506.5 591 506.5 591 506.5 575 c 0,47,48
 506.5 567 506.5 567 508.5 562 c 128,-1,49
 510.5 557 510.5 557 513.5 557 c 0,36,37
383.5 90 m 0,50,51
 397.5 90 397.5 90 413.5 117 c 128,-1,52
 429.5 144 429.5 144 443 185.5 c 128,-1,53
 456.5 227 456.5 227 465.5 275.5 c 128,-1,54
 474.5 324 474.5 324 474.5 366 c 0,55,56
 474.5 399 474.5 399 469 428.5 c 128,-1,57
 463.5 458 463.5 458 453.5 480.5 c 128,-1,58
 443.5 503 443.5 503 431 516 c 128,-1,59
 418.5 529 418.5 529 404.5 529 c 0,60,61
 388.5 529 388.5 529 373.5 511.5 c 128,-1,62
 358.5 494 358.5 494 348 463.5 c 128,-1,63
 337.5 433 337.5 433 331 392.5 c 128,-1,64
 324.5 352 324.5 352 324.5 306 c 0,65,66
 324.5 265 324.5 265 329.5 226 c 128,-1,67
 334.5 187 334.5 187 343 157 c 128,-1,68
 351.5 127 351.5 127 362 108.5 c 128,-1,69
 372.5 90 372.5 90 383.5 90 c 0,50,51
311.5 33 m 0,70,71
 315.5 33 315.5 33 318 36.5 c 128,-1,72
 320.5 40 320.5 40 319.5 43 c 256,73,74
 318.5 46 318.5 46 314 51.5 c 128,-1,75
 309.5 57 309.5 57 303.5 64.5 c 128,-1,76
 297.5 72 297.5 72 292 80.5 c 128,-1,77
 286.5 89 286.5 89 284.5 97 c 0,78,79
 283.5 101 283.5 101 282 107.5 c 128,-1,80
 280.5 114 280.5 114 278.5 120.5 c 128,-1,81
 276.5 127 276.5 127 274.5 131.5 c 128,-1,82
 272.5 136 272.5 136 269.5 136 c 0,83,84
 264.5 136 264.5 136 264.5 122.5 c 128,-1,85
 264.5 109 264.5 109 271.5 89 c 0,86,87
 279.5 69 279.5 69 291.5 51 c 128,-1,88
 303.5 33 303.5 33 311.5 33 c 0,70,71
540.5 22 m 256,89,90
 540.5 25 540.5 25 537 29 c 128,-1,91
 533.5 33 533.5 33 529 38 c 128,-1,92
 524.5 43 524.5 43 521 49.5 c 128,-1,93
 517.5 56 517.5 56 517.5 63 c 0,94,95
 517.5 66 517.5 66 516.5 69 c 0,96,97
 514.5 74 514.5 74 510.5 74 c 0,98,99
 503.5 74 503.5 74 503.5 62 c 0,100,101
 503.5 46 503.5 46 512.5 29.5 c 128,-1,102
 521.5 13 521.5 13 530.5 13 c 0,103,104
 534.5 13 534.5 13 537.5 16 c 128,-1,105
 540.5 19 540.5 19 540.5 22 c 256,89,90
336.5 17 m 256,106,107
 339.5 17 339.5 17 343 21 c 128,-1,108
 346.5 25 346.5 25 348 29.5 c 128,-1,109
 349.5 34 349.5 34 348 38 c 128,-1,110
 346.5 42 346.5 42 340.5 42 c 0,111,112
 328.5 42 328.5 42 328.5 30 c 0,113,114
 328.5 25 328.5 25 331 21 c 128,-1,115
 333.5 17 333.5 17 336.5 17 c 256,106,107
EndSplineSet

EndChar

StartChar: B
Encoding: 66 66 42
Width: 808
Flags: W
LayerCount: 2
Fore
SplineSet
469 546 m 0,0,1
 429 546 429 546 400.5 574 c 128,-1,2
 372 602 372 602 372 646 c 0,3,4
 372 670 372 670 380.5 691.5 c 128,-1,5
 389 713 389 713 404 728.5 c 128,-1,6
 419 744 419 744 440 753.5 c 128,-1,7
 461 763 461 763 486 763 c 0,8,9
 506 763 506 763 523 754.5 c 128,-1,10
 540 746 540 746 552 731 c 128,-1,11
 564 716 564 716 570.5 697 c 128,-1,12
 577 678 577 678 577 657 c 0,13,14
 577 630 577 630 568.5 609.5 c 128,-1,15
 560 589 560 589 545 575 c 128,-1,16
 530 561 530 561 510.5 553.5 c 128,-1,17
 491 546 491 546 469 546 c 0,0,1
432 719 m 0,18,19
 439 726 439 726 440.5 731 c 128,-1,20
 442 736 442 736 440 736 c 0,21,22
 432 736 432 736 423 728.5 c 128,-1,23
 414 721 414 721 406.5 710.5 c 128,-1,24
 399 700 399 700 394 688 c 128,-1,25
 389 676 389 676 389 666 c 0,26,27
 389 664 389 664 390.5 658 c 128,-1,28
 392 652 392 652 395 652 c 0,29,30
 399 652 399 652 405 674 c 0,31,32
 408 688 408 688 416 699.5 c 128,-1,33
 424 711 424 711 432 719 c 0,18,19
473 603 m 0,34,35
 485 603 485 603 501.5 617 c 128,-1,36
 518 631 518 631 518 657 c 0,37,38
 518 677 518 677 507.5 690.5 c 128,-1,39
 497 704 497 704 480 704 c 256,40,41
 463 704 463 704 449 690.5 c 128,-1,42
 435 677 435 677 435 653 c 256,43,44
 435 629 435 629 446 616 c 128,-1,45
 457 603 457 603 473 603 c 0,34,35
276 655 m 0,46,47
 256 655 256 655 239 640 c 128,-1,48
 222 625 222 625 222 586 c 2,49,-1
 222 91 l 2,50,51
 222 70 222 70 230.5 53 c 128,-1,52
 239 36 239 36 253.5 24.5 c 128,-1,53
 268 13 268 13 286.5 7 c 128,-1,54
 305 1 305 1 325 1 c 2,55,-1
 384 1 l 2,56,57
 415 1 415 1 450.5 13 c 128,-1,58
 486 25 486 25 516 51 c 128,-1,59
 546 77 546 77 566 119 c 128,-1,60
 586 161 586 161 586 220 c 256,61,62
 586 279 586 279 566.5 325.5 c 128,-1,63
 547 372 547 372 518 403.5 c 128,-1,64
 489 435 489 435 455 451.5 c 128,-1,65
 421 468 421 468 391 468 c 2,66,-1
 362 468 l 2,67,68
 353 468 353 468 344.5 472 c 128,-1,69
 336 476 336 476 336 485 c 2,70,-1
 336 590 l 2,71,72
 336 608 336 608 330.5 620 c 128,-1,73
 325 632 325 632 316 640 c 128,-1,74
 307 648 307 648 296.5 651.5 c 128,-1,75
 286 655 286 655 276 655 c 0,46,47
380 379 m 2,76,77
 397 379 397 379 413 371 c 128,-1,78
 429 363 429 363 442.5 345.5 c 128,-1,79
 456 328 456 328 464 300 c 128,-1,80
 472 272 472 272 472 232 c 0,81,82
 472 189 472 189 464 160.5 c 128,-1,83
 456 132 456 132 443 115.5 c 128,-1,84
 430 99 430 99 414 92 c 128,-1,85
 398 85 398 85 383 85 c 2,86,-1
 361 85 l 2,87,88
 336 85 336 85 336 119 c 2,89,-1
 336 356 l 2,90,91
 336 379 336 379 367 379 c 2,92,-1
 380 379 l 2,76,77
262 620 m 256,93,94
 257 615 257 615 253.5 602 c 128,-1,95
 250 589 250 589 250 550.5 c 128,-1,96
 250 512 250 512 243 512 c 0,97,98
 238 512 238 512 236.5 520.5 c 128,-1,99
 235 529 235 529 235 541 c 0,100,101
 235 603 235 603 242 619 c 128,-1,102
 249 635 249 635 259 635 c 0,103,104
 261 635 261 635 264 633 c 128,-1,105
 267 631 267 631 267 629 c 0,106,107
 267 625 267 625 262 620 c 256,93,94
EndSplineSet
EndChar

StartChar: C
Encoding: 67 67 43
Width: 808
Flags: W
LayerCount: 2
Fore
SplineSet
417 584 m 0
 377 584 377 584 348.5 612 c 0
 320 640 320 640 320 684 c 0
 320 708 320 708 328.5 729.5 c 0
 337 751 337 751 352 766.5 c 0
 367 782 367 782 388 791.5 c 0
 409 801 409 801 434 801 c 0
 454 801 454 801 471 792.5 c 0
 488 784 488 784 500 769 c 0
 512 754 512 754 518.5 735 c 0
 525 716 525 716 525 695 c 0
 525 668 525 668 516.5 647.5 c 0
 508 627 508 627 493 613 c 0
 478 599 478 599 458.5 591.5 c 0
 439 584 439 584 417 584 c 0
380 757 m 0
 387 764 387 764 388.5 769 c 0
 390 774 390 774 388 774 c 0
 380 774 380 774 371 766.5 c 0
 362 759 362 759 354.5 748.5 c 0
 347 738 347 738 342 726 c 0
 337 714 337 714 337 704 c 0
 337 702 337 702 338.5 696 c 0
 340 690 340 690 343 690 c 0
 347 690 347 690 353 712 c 0
 356 726 356 726 364 737.5 c 0
 372 749 372 749 380 757 c 0
421 641 m 0
 433 641 433 641 449.5 655 c 0
 466 669 466 669 466 695 c 0
 466 715 466 715 455.5 728.5 c 0
 445 742 445 742 428 742 c 256
 411 742 411 742 397 728.5 c 0
 383 715 383 715 383 691 c 256
 383 667 383 667 394 654 c 0
 405 641 405 641 421 641 c 0
EndSplineSet
Refer: 69 99 N 1 0 0 1 0 -15 2
EndChar

StartChar: D
Encoding: 68 68 44
Width: 808
Flags: W
LayerCount: 2
Fore
SplineSet
304.5 0 m 2,0,1
 286.5 0 286.5 0 270 4 c 128,-1,2
 253.5 8 253.5 8 241 18 c 128,-1,3
 228.5 28 228.5 28 221 45 c 128,-1,4
 213.5 62 213.5 62 213.5 88 c 2,5,-1
 213.5 516 l 2,6,7
 213.5 543 213.5 543 223 562.5 c 128,-1,8
 232.5 582 232.5 582 248 594.5 c 128,-1,9
 263.5 607 263.5 607 284.5 612.5 c 128,-1,10
 305.5 618 305.5 618 328.5 618 c 2,11,-1
 373.5 618 l 2,12,13
 416.5 618 416.5 618 456.5 598.5 c 128,-1,14
 496.5 579 496.5 579 527 541.5 c 128,-1,15
 557.5 504 557.5 504 576 449.5 c 128,-1,16
 594.5 395 594.5 395 594.5 326 c 0,17,18
 594.5 253 594.5 253 575.5 192.5 c 128,-1,19
 556.5 132 556.5 132 524.5 89.5 c 128,-1,20
 492.5 47 492.5 47 449.5 23.5 c 128,-1,21
 406.5 0 406.5 0 359.5 0 c 2,22,-1
 304.5 0 l 2,0,1
354.5 96 m 2,23,24
 380.5 96 380.5 96 403.5 112.5 c 128,-1,25
 426.5 129 426.5 129 443 159.5 c 128,-1,26
 459.5 190 459.5 190 469 233 c 128,-1,27
 478.5 276 478.5 276 478.5 329 c 0,28,29
 478.5 424 478.5 424 448.5 472 c 128,-1,30
 418.5 520 418.5 520 370.5 520 c 2,31,-1
 355.5 520 l 2,32,33
 338.5 520 338.5 520 333 512.5 c 128,-1,34
 327.5 505 327.5 505 327.5 480 c 2,35,-1
 327.5 132 l 2,36,37
 327.5 112 327.5 112 331 104 c 128,-1,38
 334.5 96 334.5 96 341.5 96 c 2,39,-1
 354.5 96 l 2,23,24
244.5 83 m 0,40,41
 248.5 83 248.5 83 250 93.5 c 128,-1,42
 251.5 104 251.5 104 251.5 117.5 c 128,-1,43
 251.5 131 251.5 131 251 143.5 c 128,-1,44
 250.5 156 250.5 156 250.5 161 c 0,45,46
 250.5 216 250.5 216 244.5 216 c 0,47,48
 241.5 216 241.5 216 238.5 203.5 c 128,-1,49
 235.5 191 235.5 191 235.5 161 c 0,50,51
 235.5 116 235.5 116 236 99.5 c 128,-1,52
 236.5 83 236.5 83 244.5 83 c 0,40,41
243.5 69 m 0,53,54
 236.5 69 236.5 69 236.5 58 c 0,55,56
 236.5 40 236.5 40 244.5 40 c 0,57,58
 247.5 40 247.5 40 249.5 46 c 128,-1,59
 251.5 52 251.5 52 251.5 58 c 0,60,61
 251.5 69 251.5 69 243.5 69 c 0,53,54
EndSplineSet

EndChar

StartChar: E
Encoding: 69 69 45
Width: 808
Flags: W
LayerCount: 2
Fore
SplineSet
456 -10 m 0,0,1
 382 -10 382 -10 324.5 18.5 c 128,-1,2
 267 47 267 47 234 108 c 128,-1,3
 201 169 201 169 201 265 c 0,4,5
 201 365 201 365 235 427 c 128,-1,6
 269 489 269 489 327.5 517.5 c 128,-1,7
 386 546 386 546 459 546 c 0,8,9
 500 546 500 546 539.5 538 c 128,-1,10
 579 530 579 530 607 517 c 1,11,-1
 581 445 l 1,12,13
 553 456 553 456 519.5 463 c 128,-1,14
 486 470 486 470 457 470 c 0,15,16
 406 470 406 470 371 453 c 128,-1,17
 336 436 336 436 317 401 c 128,-1,18
 298 366 298 366 292 312 c 1,19,-1
 555 312 l 1,20,-1
 555 240 l 1,21,-1
 291 240 l 1,22,23
 294 181 294 181 313 142 c 128,-1,24
 332 103 332 103 367 84 c 128,-1,25
 402 65 402 65 454 65 c 0,26,27
 499 65 499 65 534 74 c 128,-1,28
 569 83 569 83 599 95 c 1,29,-1
 599 19 l 1,30,31
 571 5 571 5 537 -2.5 c 128,-1,32
 503 -10 503 -10 456 -10 c 0,0,1
EndSplineSet

EndChar

StartChar: F
Encoding: 70 70 46
Width: 808
Flags: W
LayerCount: 2
Fore
SplineSet
315.5 0 m 0,0,1
 288.5 0 288.5 0 271 9.5 c 128,-1,2
 253.5 19 253.5 19 253.5 49 c 2,3,-1
 253.5 543 l 2,4,5
 253.5 582 253.5 582 282 599.5 c 128,-1,6
 310.5 617 310.5 617 355.5 617 c 2,7,-1
 525.5 616 l 2,8,9
 536.5 616 536.5 616 545.5 604.5 c 128,-1,10
 554.5 593 554.5 593 554.5 579 c 0,11,12
 554.5 572 554.5 572 553 561.5 c 128,-1,13
 551.5 551 551.5 551 548.5 541.5 c 128,-1,14
 545.5 532 545.5 532 541 525.5 c 128,-1,15
 536.5 519 536.5 519 530.5 519 c 2,16,-1
 393.5 520 l 2,17,18
 367.5 520 367.5 520 367.5 494 c 2,19,-1
 367.5 345 l 2,20,21
 367.5 335 367.5 335 374 330.5 c 128,-1,22
 380.5 326 380.5 326 390.5 326 c 2,23,-1
 496.5 329 l 2,24,25
 504.5 329 504.5 329 510.5 324 c 128,-1,26
 516.5 319 516.5 319 521.5 310.5 c 128,-1,27
 526.5 302 526.5 302 529 293 c 128,-1,28
 531.5 284 531.5 284 531.5 276 c 0,29,30
 531.5 237 531.5 237 493.5 236 c 2,31,-1
 387.5 233 l 2,32,33
 379.5 233 379.5 233 373.5 227 c 128,-1,34
 367.5 221 367.5 221 367.5 213 c 2,35,-1
 367.5 48 l 2,36,37
 367.5 32 367.5 32 363 22.5 c 128,-1,38
 358.5 13 358.5 13 351 8 c 128,-1,39
 343.5 3 343.5 3 334 1.5 c 128,-1,40
 324.5 0 324.5 0 315.5 0 c 0,0,1
303.5 26 m 0,41,42
 302.5 31 302.5 31 294 42 c 128,-1,43
 285.5 53 285.5 53 283.5 78 c 0,44,45
 281.5 91 281.5 91 278 94 c 128,-1,46
 274.5 97 274.5 97 272.5 97 c 256,47,48
 270.5 97 270.5 97 269 91 c 128,-1,49
 267.5 85 267.5 85 269.5 75 c 0,50,51
 269.5 70 269.5 70 271.5 60.5 c 128,-1,52
 273.5 51 273.5 51 277 41.5 c 128,-1,53
 280.5 32 280.5 32 285.5 25 c 128,-1,54
 290.5 18 290.5 18 297.5 19 c 0,55,56
 303.5 19 303.5 19 303.5 26 c 0,41,42
EndSplineSet

EndChar

StartChar: G
Encoding: 71 71 47
Width: 808
Flags: W
LayerCount: 2
Fore
SplineSet
434 621 m 0,0,1
 394 621 394 621 365.5 649 c 128,-1,2
 337 677 337 677 337 721 c 0,3,4
 337 745 337 745 345.5 766.5 c 128,-1,5
 354 788 354 788 369 803.5 c 128,-1,6
 384 819 384 819 405 828.5 c 128,-1,7
 426 838 426 838 451 838 c 0,8,9
 471 838 471 838 488 829.5 c 128,-1,10
 505 821 505 821 517 806 c 128,-1,11
 529 791 529 791 535.5 772 c 128,-1,12
 542 753 542 753 542 732 c 0,13,14
 542 705 542 705 533.5 684.5 c 128,-1,15
 525 664 525 664 510 650 c 128,-1,16
 495 636 495 636 475.5 628.5 c 128,-1,17
 456 621 456 621 434 621 c 0,0,1
397 794 m 0,18,19
 404 801 404 801 405.5 806 c 128,-1,20
 407 811 407 811 405 811 c 0,21,22
 397 811 397 811 388 803.5 c 128,-1,23
 379 796 379 796 371.5 785.5 c 128,-1,24
 364 775 364 775 359 763 c 128,-1,25
 354 751 354 751 354 741 c 0,26,27
 354 739 354 739 355.5 733 c 128,-1,28
 357 727 357 727 360 727 c 0,29,30
 364 727 364 727 370 749 c 0,31,32
 373 763 373 763 381 774.5 c 128,-1,33
 389 786 389 786 397 794 c 0,18,19
438 678 m 0,34,35
 450 678 450 678 466.5 692 c 128,-1,36
 483 706 483 706 483 732 c 0,37,38
 483 752 483 752 472.5 765.5 c 128,-1,39
 462 779 462 779 445 779 c 256,40,41
 428 779 428 779 414 765.5 c 128,-1,42
 400 752 400 752 400 728 c 256,43,44
 400 704 400 704 411 691 c 128,-1,45
 422 678 422 678 438 678 c 0,34,35
403 -37 m 0,46,47
 340 -37 340 -37 299.5 -4 c 128,-1,48
 259 29 259 29 236 79 c 128,-1,49
 213 129 213 129 204.5 187 c 128,-1,50
 196 245 196 245 196 296 c 0,51,52
 196 352 196 352 209.5 405.5 c 128,-1,53
 223 459 223 459 251.5 500.5 c 128,-1,54
 280 542 280 542 325.5 567.5 c 128,-1,55
 371 593 371 593 435 593 c 0,56,57
 462 593 462 593 491.5 587 c 128,-1,58
 521 581 521 581 545.5 564.5 c 128,-1,59
 570 548 570 548 586.5 520 c 128,-1,60
 603 492 603 492 603 448 c 0,61,62
 603 432 603 432 596.5 422.5 c 128,-1,63
 590 413 590 413 580.5 407.5 c 128,-1,64
 571 402 571 402 561 400.5 c 128,-1,65
 551 399 551 399 545 399 c 0,66,67
 531 399 531 399 518.5 409 c 128,-1,68
 506 419 506 419 506 448 c 0,69,70
 506 471 506 471 498 483 c 128,-1,71
 490 495 490 495 479 500.5 c 128,-1,72
 468 506 468 506 457.5 507 c 128,-1,73
 447 508 447 508 441 508 c 0,74,75
 415 508 415 508 392 492.5 c 128,-1,76
 369 477 369 477 351.5 448 c 128,-1,77
 334 419 334 419 324 377 c 128,-1,78
 314 335 314 335 314 282 c 0,79,80
 314 253 314 253 317.5 213 c 128,-1,81
 321 173 321 173 333 137 c 128,-1,82
 345 101 345 101 367 75.5 c 128,-1,83
 389 50 389 50 425 50 c 0,84,85
 448 50 448 50 465 65 c 128,-1,86
 482 80 482 80 493.5 102 c 128,-1,87
 505 124 505 124 511 148.5 c 128,-1,88
 517 173 517 173 516 192 c 0,89,90
 515 208 515 208 496.5 209.5 c 128,-1,91
 478 211 478 211 455 211 c 2,92,-1
 393 211 l 2,93,94
 387 211 387 211 382 217 c 128,-1,95
 377 223 377 223 374 231.5 c 128,-1,96
 371 240 371 240 369 249 c 128,-1,97
 367 258 367 258 367 264 c 0,98,99
 367 280 367 280 377.5 292.5 c 128,-1,100
 388 305 388 305 411 305 c 2,101,-1
 536 304 l 2,102,103
 549 304 549 304 562.5 298.5 c 128,-1,104
 576 293 576 293 586.5 282.5 c 128,-1,105
 597 272 597 272 604 255.5 c 128,-1,106
 611 239 611 239 611 216 c 0,107,108
 611 181 611 181 611.5 151 c 128,-1,109
 612 121 612 121 612 77 c 0,110,111
 612 43 612 43 609.5 22 c 128,-1,112
 607 1 607 1 601 -11 c 128,-1,113
 595 -23 595 -23 586.5 -27.5 c 128,-1,114
 578 -32 578 -32 566 -32 c 0,115,116
 549 -32 549 -32 541 -19.5 c 128,-1,117
 533 -7 533 -7 529.5 8 c 128,-1,118
 526 23 526 23 525 35.5 c 128,-1,119
 524 48 524 48 521 48 c 256,120,121
 518 48 518 48 512 34.5 c 128,-1,122
 506 21 506 21 493 5.5 c 128,-1,123
 480 -10 480 -10 459 -23.5 c 128,-1,124
 438 -37 438 -37 403 -37 c 0,46,47
308 44 m 0,125,126
 308 49 308 49 292 72 c 0,127,128
 285 83 285 83 278 97.5 c 128,-1,129
 271 112 271 112 266 126 c 128,-1,130
 261 140 261 140 258 152 c 128,-1,131
 255 164 255 164 256 168 c 0,132,133
 257 173 257 173 254 175.5 c 128,-1,134
 251 178 251 178 250 178 c 0,135,136
 242 178 242 178 240 167 c 256,137,138
 238 156 238 156 243.5 135 c 128,-1,139
 249 114 249 114 258.5 93 c 128,-1,140
 268 72 268 72 279.5 56 c 128,-1,141
 291 40 291 40 300 39 c 0,142,143
 307 37 307 37 308 44 c 0,125,126
571 -7 m 0,144,145
 571 1 571 1 563 6.5 c 128,-1,146
 555 12 555 12 554 24 c 0,147,148
 554 27 554 27 553.5 35 c 128,-1,149
 553 43 553 43 548 43 c 256,150,151
 543 43 543 43 542 36.5 c 128,-1,152
 541 30 541 30 541 25 c 256,153,154
 541 20 541 20 542.5 12.5 c 128,-1,155
 544 5 544 5 547 -1.5 c 128,-1,156
 550 -8 550 -8 554 -13 c 128,-1,157
 558 -18 558 -18 563 -18 c 256,158,159
 568 -18 568 -18 569.5 -14 c 128,-1,160
 571 -10 571 -10 571 -7 c 0,144,145
328 27 m 0,161,162
 329 30 329 30 326.5 32.5 c 128,-1,163
 324 35 324 35 322 35 c 0,164,165
 318 36 318 36 316.5 33 c 128,-1,166
 315 30 315 30 314 28 c 0,167,168
 313 23 313 23 315.5 21.5 c 128,-1,169
 318 20 318 20 320 20 c 0,170,171
 326 20 326 20 328 27 c 0,161,162
EndSplineSet
EndChar

StartChar: H
Encoding: 72 72 48
Width: 808
Flags: W
LayerCount: 2
Fore
SplineSet
523 0 m 256,0,1
 506 0 506 0 496 9.5 c 128,-1,2
 486 19 486 19 481 33 c 128,-1,3
 476 47 476 47 474.5 63 c 128,-1,4
 473 79 473 79 473 92 c 2,5,-1
 473 238 l 2,6,7
 473 242 473 242 473 247 c 128,-1,8
 473 252 473 252 472 256.5 c 128,-1,9
 471 261 471 261 468 263.5 c 128,-1,10
 465 266 465 266 460 264 c 2,11,-1
 353 233 l 2,12,13
 344 231 344 231 339.5 229 c 128,-1,14
 335 227 335 227 335 217 c 2,15,-1
 335 105 l 2,16,17
 335 93 335 93 333 75 c 128,-1,18
 331 57 331 57 325.5 40.5 c 128,-1,19
 320 24 320 24 310 12 c 128,-1,20
 300 0 300 0 283 0 c 0,21,22
 262 0 262 0 250 10.5 c 128,-1,23
 238 21 238 21 232 37 c 128,-1,24
 226 53 226 53 224.5 71 c 128,-1,25
 223 89 223 89 223 105 c 2,26,-1
 223 542 l 2,27,28
 223 567 223 567 237.5 589.5 c 128,-1,29
 252 612 252 612 280 612 c 0,30,31
 294 612 294 612 304.5 605.5 c 128,-1,32
 315 599 315 599 322 588.5 c 128,-1,33
 329 578 329 578 332 565 c 128,-1,34
 335 552 335 552 335 540 c 2,35,-1
 335 339 l 2,36,37
 335 332 335 332 337 324.5 c 128,-1,38
 339 317 339 317 348 319 c 2,39,-1
 462 349 l 2,40,41
 471 351 471 351 472 356 c 128,-1,42
 473 361 473 361 473 368 c 2,43,-1
 473 540 l 2,44,45
 473 551 473 551 474.5 564 c 128,-1,46
 476 577 476 577 481 588.5 c 128,-1,47
 486 600 486 600 495 608 c 128,-1,48
 504 616 504 616 518 616 c 0,49,50
 551 616 551 616 568 591.5 c 128,-1,51
 585 567 585 567 585 537 c 2,52,-1
 585 91 l 2,53,54
 585 78 585 78 581.5 62 c 128,-1,55
 578 46 578 46 570.5 32 c 128,-1,56
 563 18 563 18 551.5 9 c 128,-1,57
 540 0 540 0 523 0 c 256,0,1
494 552 m 256,58,59
 497 552 497 552 501.5 558 c 128,-1,60
 506 564 506 564 510 571.5 c 128,-1,61
 514 579 514 579 516.5 586.5 c 128,-1,62
 519 594 519 594 519 597 c 256,63,64
 519 600 519 600 515 600 c 0,65,66
 503 600 503 600 496 586 c 128,-1,67
 489 572 489 572 489 562 c 0,68,69
 489 560 489 560 490 556 c 128,-1,70
 491 552 491 552 494 552 c 256,58,59
265 30 m 1,71,72
 264 36 264 36 262 40.5 c 128,-1,73
 260 45 260 45 257.5 50.5 c 128,-1,74
 255 56 255 56 253.5 64.5 c 128,-1,75
 252 73 252 73 252 86 c 0,76,77
 252 90 252 90 251 96.5 c 128,-1,78
 250 103 250 103 245 103 c 0,79,80
 241 103 241 103 240 96 c 128,-1,81
 239 89 239 89 239 86 c 0,82,83
 239 82 239 82 240 72 c 128,-1,84
 241 62 241 62 243 52 c 128,-1,85
 245 42 245 42 249 34.5 c 128,-1,86
 253 27 253 27 259 27 c 2,87,-1
 265 30 l 1,71,72
514 20 m 0,88,89
 514 22 514 22 513 23 c 128,-1,90
 512 24 512 24 511 26 c 0,91,92
 504 35 504 35 500 50.5 c 128,-1,93
 496 66 496 66 496 77 c 1,94,-1
 494 81 l 1,95,96
 489 81 489 81 488 71 c 128,-1,97
 487 61 487 61 487 58 c 0,98,99
 487 47 487 47 491.5 32 c 128,-1,100
 496 17 496 17 511 17 c 0,101,102
 514 17 514 17 514 20 c 0,88,89
EndSplineSet
EndChar

StartChar: I
Encoding: 73 73 49
Width: 808
Flags: W
LayerCount: 2
Fore
SplineSet
271 484 m 1,0,-1
 381 792 l 1,1,-1
 431 792 l 1,2,-1
 537 484 l 1,3,-1
 459 484 l 1,4,-1
 407 699 l 1,5,-1
 349 484 l 1,6,-1
 271 484 l 1,0,-1
399 -4 m 256,7,8
 375 -4 375 -4 362 6.5 c 128,-1,9
 349 17 349 17 349 32 c 2,10,-1
 349 387 l 2,11,12
 349 396 349 396 351.5 408 c 128,-1,13
 354 420 354 420 359.5 430 c 128,-1,14
 365 440 365 440 374.5 447 c 128,-1,15
 384 454 384 454 399 454 c 256,16,17
 414 454 414 454 424.5 448 c 128,-1,18
 435 442 435 442 441.5 433 c 128,-1,19
 448 424 448 424 451.5 413 c 128,-1,20
 455 402 455 402 455 392 c 2,21,-1
 455 32 l 2,22,23
 455 16 455 16 439 6 c 128,-1,24
 423 -4 423 -4 399 -4 c 256,7,8
367 359 m 0,25,26
 370 359 370 359 371 365 c 128,-1,27
 372 371 372 371 372 379.5 c 128,-1,28
 372 388 372 388 372.5 397.5 c 128,-1,29
 373 407 373 407 375 413 c 0,30,31
 376 417 376 417 378 424 c 128,-1,32
 380 431 380 431 377 431 c 0,33,34
 372 431 372 431 368.5 425.5 c 128,-1,35
 365 420 365 420 362.5 412.5 c 128,-1,36
 360 405 360 405 359 396.5 c 128,-1,37
 358 388 358 388 358 383 c 0,38,39
 358 376 358 376 360 367.5 c 128,-1,40
 362 359 362 359 367 359 c 0,25,26
EndSplineSet
EndChar

StartChar: J
Encoding: 74 74 50
Width: 808
Flags: W
LayerCount: 2
Fore
SplineSet
407 -8 m 0,0,1
 362 -8 362 -8 330 4.5 c 128,-1,2
 298 17 298 17 278 38.5 c 128,-1,3
 258 60 258 60 249 88.5 c 128,-1,4
 240 117 240 117 240 149 c 0,5,6
 240 203 240 203 253 221.5 c 128,-1,7
 266 240 266 240 282 240 c 0,8,9
 290 240 290 240 299 238 c 128,-1,10
 308 236 308 236 316 230.5 c 128,-1,11
 324 225 324 225 329 215 c 128,-1,12
 334 205 334 205 334 188 c 0,13,14
 334 172 334 172 335.5 153 c 128,-1,15
 337 134 337 134 342.5 118 c 128,-1,16
 348 102 348 102 359 91.5 c 128,-1,17
 370 81 370 81 390 81 c 0,18,19
 408 81 408 81 420 86 c 128,-1,20
 432 91 432 91 439.5 104.5 c 128,-1,21
 447 118 447 118 450 141 c 128,-1,22
 453 164 453 164 453 199 c 0,23,24
 453 237 453 237 453.5 290 c 128,-1,25
 454 343 454 343 454 412 c 2,26,-1
 454 517 l 2,27,28
 454 525 454 525 446.5 530.5 c 128,-1,29
 439 536 439 536 431 536 c 2,30,-1
 390 536 l 2,31,32
 336 536 336 536 313.5 546 c 128,-1,33
 291 556 291 556 291 579 c 0,34,35
 291 594 291 594 299 601.5 c 128,-1,36
 307 609 307 609 325 612 c 128,-1,37
 343 615 343 615 372 615.5 c 128,-1,38
 401 616 401 616 443 616 c 0,39,40
 503 616 503 616 532.5 609 c 128,-1,41
 562 602 562 602 567 584 c 0,42,43
 568 581 568 581 568 558.5 c 128,-1,44
 568 536 568 536 568 502.5 c 128,-1,45
 568 469 568 469 567.5 429.5 c 128,-1,46
 567 390 567 390 567 353 c 0,47,48
 566 289 566 289 566 247 c 128,-1,49
 566 205 566 205 565.5 177 c 128,-1,50
 565 149 565 149 562.5 129.5 c 128,-1,51
 560 110 560 110 555 90 c 0,52,53
 548 65 548 65 532 46.5 c 128,-1,54
 516 28 516 28 495 16 c 128,-1,55
 474 4 474 4 451 -2 c 128,-1,56
 428 -8 428 -8 407 -8 c 0,0,1
347 594 m 0,57,58
 349 599 349 599 345 600 c 0,59,60
 338 602 338 602 324.5 598 c 128,-1,61
 311 594 311 594 309 587 c 0,62,63
 308 584 308 584 309 580.5 c 128,-1,64
 310 577 310 577 312 576 c 0,65,66
 320 574 320 574 332.5 581 c 128,-1,67
 345 588 345 588 347 594 c 0,57,58
261 144 m 0,68,69
 266 145 266 145 267.5 157 c 128,-1,70
 269 169 269 169 270 173 c 0,71,72
 272 183 272 183 274.5 194 c 128,-1,73
 277 205 277 205 284 214 c 0,74,75
 289 219 289 219 288 223 c 0,76,77
 288 225 288 225 286 226.5 c 128,-1,78
 284 228 284 228 282 227 c 0,79,80
 273 226 273 226 267 217 c 128,-1,81
 261 208 261 208 258 197 c 128,-1,82
 255 186 255 186 254 176 c 128,-1,83
 253 166 253 166 253 163 c 0,84,85
 254 155 254 155 256 149 c 128,-1,86
 258 143 258 143 261 144 c 0,68,69
EndSplineSet
EndChar

StartChar: K
Encoding: 75 75 51
Width: 808
Flags: W
LayerCount: 2
Fore
SplineSet
355.5 575 m 0,0,1
 315.5 575 315.5 575 287 603 c 128,-1,2
 258.5 631 258.5 631 258.5 675 c 0,3,4
 258.5 699 258.5 699 267 720.5 c 128,-1,5
 275.5 742 275.5 742 290.5 757.5 c 128,-1,6
 305.5 773 305.5 773 326.5 782.5 c 128,-1,7
 347.5 792 347.5 792 372.5 792 c 0,8,9
 392.5 792 392.5 792 409.5 783.5 c 128,-1,10
 426.5 775 426.5 775 438.5 760 c 128,-1,11
 450.5 745 450.5 745 457 726 c 128,-1,12
 463.5 707 463.5 707 463.5 686 c 0,13,14
 463.5 659 463.5 659 455 638.5 c 128,-1,15
 446.5 618 446.5 618 431.5 604 c 128,-1,16
 416.5 590 416.5 590 397 582.5 c 128,-1,17
 377.5 575 377.5 575 355.5 575 c 0,0,1
318.5 748 m 0,18,19
 325.5 755 325.5 755 327 760 c 128,-1,20
 328.5 765 328.5 765 326.5 765 c 0,21,22
 318.5 765 318.5 765 309.5 757.5 c 128,-1,23
 300.5 750 300.5 750 293 739.5 c 128,-1,24
 285.5 729 285.5 729 280.5 717 c 128,-1,25
 275.5 705 275.5 705 275.5 695 c 0,26,27
 275.5 693 275.5 693 277 687 c 128,-1,28
 278.5 681 278.5 681 281.5 681 c 0,29,30
 285.5 681 285.5 681 291.5 703 c 0,31,32
 294.5 717 294.5 717 302.5 728.5 c 128,-1,33
 310.5 740 310.5 740 318.5 748 c 0,18,19
359.5 632 m 0,34,35
 371.5 632 371.5 632 388 646 c 128,-1,36
 404.5 660 404.5 660 404.5 686 c 0,37,38
 404.5 706 404.5 706 394 719.5 c 128,-1,39
 383.5 733 383.5 733 366.5 733 c 256,40,41
 349.5 733 349.5 733 335.5 719.5 c 128,-1,42
 321.5 706 321.5 706 321.5 682 c 256,43,44
 321.5 658 321.5 658 332.5 645 c 128,-1,45
 343.5 632 343.5 632 359.5 632 c 0,34,35
270.5 0 m 0,46,47
 249.5 0 249.5 0 239.5 11 c 128,-1,48
 229.5 22 229.5 22 226 38.5 c 128,-1,49
 222.5 55 222.5 55 222.5 73 c 128,-1,50
 222.5 91 222.5 91 222.5 105 c 2,51,-1
 222.5 204 l 1,52,-1
 221.5 402 l 1,53,-1
 221.5 428 l 2,54,55
 221.5 455 221.5 455 223.5 476 c 128,-1,56
 225.5 497 225.5 497 231.5 512 c 128,-1,57
 237.5 527 237.5 527 249 535 c 128,-1,58
 260.5 543 260.5 543 280.5 543 c 0,59,60
 303.5 543 303.5 543 321 524.5 c 128,-1,61
 338.5 506 338.5 506 338.5 476 c 0,62,63
 338.5 471 338.5 471 338 456 c 128,-1,64
 337.5 441 337.5 441 337.5 421 c 2,65,-1
 337.5 429 l 1,66,-1
 337.5 410 l 2,67,68
 337.5 391 337.5 391 339 379 c 128,-1,69
 340.5 367 340.5 367 342.5 367 c 0,70,71
 346.5 367 346.5 367 358 385.5 c 128,-1,72
 369.5 404 369.5 404 385 431.5 c 128,-1,73
 400.5 459 400.5 459 418.5 491.5 c 128,-1,74
 436.5 524 436.5 524 454.5 551.5 c 128,-1,75
 472.5 579 472.5 579 489 597.5 c 128,-1,76
 505.5 616 505.5 616 516.5 616 c 0,77,78
 525.5 616 525.5 616 536.5 613 c 128,-1,79
 547.5 610 547.5 610 556.5 604 c 128,-1,80
 565.5 598 565.5 598 571.5 589 c 128,-1,81
 577.5 580 577.5 580 577.5 567 c 0,82,83
 577.5 559 577.5 559 566.5 537.5 c 128,-1,84
 555.5 516 555.5 516 539.5 489 c 128,-1,85
 523.5 462 523.5 462 504.5 432 c 128,-1,86
 485.5 402 485.5 402 469.5 376.5 c 128,-1,87
 453.5 351 453.5 351 442.5 333.5 c 128,-1,88
 431.5 316 431.5 316 431.5 313 c 0,89,90
 431.5 309 431.5 309 443 290 c 128,-1,91
 454.5 271 454.5 271 471.5 245 c 128,-1,92
 488.5 219 488.5 219 509 188.5 c 128,-1,93
 529.5 158 529.5 158 546.5 130 c 128,-1,94
 563.5 102 563.5 102 575 80 c 128,-1,95
 586.5 58 586.5 58 586.5 48 c 0,96,97
 586.5 35 586.5 35 578 26 c 128,-1,98
 569.5 17 569.5 17 557.5 11 c 128,-1,99
 545.5 5 545.5 5 533.5 2 c 128,-1,100
 521.5 -1 521.5 -1 513.5 -1 c 0,101,102
 499.5 -1 499.5 -1 484.5 17.5 c 128,-1,103
 469.5 36 469.5 36 457.5 57 c 0,104,105
 453.5 64 453.5 64 445 80.5 c 128,-1,106
 436.5 97 436.5 97 425 118 c 128,-1,107
 413.5 139 413.5 139 401 161.5 c 128,-1,108
 388.5 184 388.5 184 377 203 c 128,-1,109
 365.5 222 365.5 222 357 234 c 128,-1,110
 348.5 246 348.5 246 344.5 246 c 0,111,112
 336.5 246 336.5 246 336.5 234.5 c 128,-1,113
 336.5 223 336.5 223 336.5 215 c 2,114,-1
 336.5 164 l 1,115,-1
 337.5 125 l 1,116,-1
 337.5 102 l 2,117,118
 337.5 51 337.5 51 321.5 25.5 c 128,-1,119
 305.5 0 305.5 0 270.5 0 c 0,46,47
240.5 488 m 0,120,121
 245.5 487 245.5 487 250 491 c 128,-1,122
 254.5 495 254.5 495 258 500.5 c 128,-1,123
 261.5 506 261.5 506 264.5 512.5 c 128,-1,124
 267.5 519 267.5 519 268.5 523 c 0,125,126
 269.5 526 269.5 526 266.5 528.5 c 128,-1,127
 263.5 531 263.5 531 260.5 531 c 0,128,129
 256.5 531 256.5 531 252.5 526 c 128,-1,130
 248.5 521 248.5 521 245 514.5 c 128,-1,131
 241.5 508 241.5 508 239.5 501.5 c 128,-1,132
 237.5 495 237.5 495 237.5 492 c 0,133,134
 237.5 488 237.5 488 240.5 488 c 0,120,121
490.5 558 m 0,135,136
 493.5 558 493.5 558 499.5 562.5 c 128,-1,137
 505.5 567 505.5 567 511.5 573 c 128,-1,138
 517.5 579 517.5 579 521.5 585.5 c 128,-1,139
 525.5 592 525.5 592 524.5 596 c 0,140,141
 524.5 600 524.5 600 520.5 600 c 0,142,143
 517.5 601 517.5 601 511 596.5 c 128,-1,144
 504.5 592 504.5 592 498 585.5 c 128,-1,145
 491.5 579 491.5 579 487 573 c 128,-1,146
 482.5 567 482.5 567 483.5 564 c 0,147,148
 485.5 559 485.5 559 490.5 558 c 0,135,136
255.5 70 m 0,149,150
 255.5 74 255.5 74 255.5 84.5 c 128,-1,151
 255.5 95 255.5 95 254.5 106 c 128,-1,152
 253.5 117 253.5 117 251.5 125.5 c 128,-1,153
 249.5 134 249.5 134 245.5 134 c 0,154,155
 242.5 134 242.5 134 240 129 c 128,-1,156
 237.5 124 237.5 124 236.5 117 c 128,-1,157
 235.5 110 235.5 110 235 103.5 c 128,-1,158
 234.5 97 234.5 97 234.5 95 c 0,159,160
 234.5 91 234.5 91 234.5 82.5 c 128,-1,161
 234.5 74 234.5 74 236 65 c 128,-1,162
 237.5 56 237.5 56 240.5 49.5 c 128,-1,163
 243.5 43 243.5 43 249.5 43 c 0,164,165
 251.5 43 251.5 43 253 47 c 128,-1,166
 254.5 51 254.5 51 255 55.5 c 128,-1,167
 255.5 60 255.5 60 255.5 64.5 c 128,-1,168
 255.5 69 255.5 69 255.5 70 c 0,149,150
516.5 21 m 0,169,170
 516.5 24 516.5 24 513.5 30.5 c 128,-1,171
 510.5 37 510.5 37 506 43 c 128,-1,172
 501.5 49 501.5 49 496.5 54 c 128,-1,173
 491.5 59 491.5 59 488.5 59 c 0,174,175
 486.5 59 486.5 59 485.5 55.5 c 128,-1,176
 484.5 52 484.5 52 484.5 50 c 0,177,178
 484.5 47 484.5 47 487 41 c 128,-1,179
 489.5 35 489.5 35 493 29 c 128,-1,180
 496.5 23 496.5 23 501.5 19 c 128,-1,181
 506.5 15 506.5 15 510.5 15 c 0,182,183
 516.5 15 516.5 15 516.5 21 c 0,169,170
265.5 25 m 0,184,185
 267.5 29 267.5 29 264.5 32.5 c 128,-1,186
 261.5 36 261.5 36 257.5 36 c 0,187,188
 252.5 36 252.5 36 250 32.5 c 128,-1,189
 247.5 29 247.5 29 249.5 25 c 0,190,191
 251.5 17 251.5 17 257.5 17 c 256,192,193
 263.5 17 263.5 17 265.5 25 c 0,184,185
EndSplineSet
EndChar

StartChar: L
Encoding: 76 76 52
Width: 808
Flags: W
LayerCount: 2
Fore
SplineSet
422 569 m 0,0,1
 382 569 382 569 353.5 597 c 128,-1,2
 325 625 325 625 325 669 c 0,3,4
 325 693 325 693 333.5 714.5 c 128,-1,5
 342 736 342 736 357 751.5 c 128,-1,6
 372 767 372 767 393 776.5 c 128,-1,7
 414 786 414 786 439 786 c 0,8,9
 459 786 459 786 476 777.5 c 128,-1,10
 493 769 493 769 505 754 c 128,-1,11
 517 739 517 739 523.5 720 c 128,-1,12
 530 701 530 701 530 680 c 0,13,14
 530 653 530 653 521.5 632.5 c 128,-1,15
 513 612 513 612 498 598 c 128,-1,16
 483 584 483 584 463.5 576.5 c 128,-1,17
 444 569 444 569 422 569 c 0,0,1
385 742 m 0,18,19
 392 749 392 749 393.5 754 c 128,-1,20
 395 759 395 759 393 759 c 0,21,22
 385 759 385 759 376 751.5 c 128,-1,23
 367 744 367 744 359.5 733.5 c 128,-1,24
 352 723 352 723 347 711 c 128,-1,25
 342 699 342 699 342 689 c 0,26,27
 342 687 342 687 343.5 681 c 128,-1,28
 345 675 345 675 348 675 c 0,29,30
 352 675 352 675 358 697 c 0,31,32
 361 711 361 711 369 722.5 c 128,-1,33
 377 734 377 734 385 742 c 0,18,19
426 626 m 0,34,35
 438 626 438 626 454.5 640 c 128,-1,36
 471 654 471 654 471 680 c 0,37,38
 471 700 471 700 460.5 713.5 c 128,-1,39
 450 727 450 727 433 727 c 256,40,41
 416 727 416 727 402 713.5 c 128,-1,42
 388 700 388 700 388 676 c 256,43,44
 388 652 388 652 399 639 c 128,-1,45
 410 626 410 626 426 626 c 0,34,35
295 0 m 2,46,47
 284 0 284 0 275.5 8 c 128,-1,48
 267 16 267 16 267 27 c 2,49,-1
 267 492 l 2,50,51
 267 503 267 503 268.5 514 c 128,-1,52
 270 525 270 525 276 534 c 128,-1,53
 282 543 282 543 293.5 549 c 128,-1,54
 305 555 305 555 325 555 c 0,55,56
 348 555 348 555 364.5 537 c 128,-1,57
 381 519 381 519 381 499 c 2,58,-1
 381 121 l 2,59,60
 381 103 381 103 388 98.5 c 128,-1,61
 395 94 395 94 404 94 c 0,62,63
 421 94 421 94 434.5 94.5 c 128,-1,64
 448 95 448 95 460.5 95.5 c 128,-1,65
 473 96 473 96 486.5 96.5 c 128,-1,66
 500 97 500 97 517 97 c 0,67,68
 531 97 531 97 536 82.5 c 128,-1,69
 541 68 541 68 541 54 c 0,70,71
 541 34 541 34 528.5 16.5 c 128,-1,72
 516 -1 516 -1 502 -1 c 2,73,-1
 455 -1 l 1,74,-1
 372 0 l 1,75,-1
 295 0 l 2,46,47
285 488 m 0,76,77
 288 488 288 488 292.5 494.5 c 128,-1,78
 297 501 297 501 301.5 510 c 128,-1,79
 306 519 306 519 309.5 527 c 128,-1,80
 313 535 313 535 313 538 c 0,81,82
 313 543 313 543 305 543 c 0,83,84
 300 543 300 543 295 536.5 c 128,-1,85
 290 530 290 530 286.5 522 c 128,-1,86
 283 514 283 514 281 506 c 128,-1,87
 279 498 279 498 280 494 c 0,88,89
 280 488 280 488 285 488 c 0,76,77
296 59 m 0,90,91
 301 59 301 59 303 70 c 128,-1,92
 305 81 305 81 306 96.5 c 128,-1,93
 307 112 307 112 306.5 128.5 c 128,-1,94
 306 145 306 145 306 155 c 0,95,96
 306 159 306 159 305.5 165 c 128,-1,97
 305 171 305 171 303.5 177 c 128,-1,98
 302 183 302 183 299.5 187 c 128,-1,99
 297 191 297 191 292 191 c 0,100,101
 289 191 289 191 287.5 182.5 c 128,-1,102
 286 174 286 174 285 163 c 128,-1,103
 284 152 284 152 284 142.5 c 128,-1,104
 284 133 284 133 284 130 c 256,105,106
 284 127 284 127 284.5 115.5 c 128,-1,107
 285 104 285 104 286.5 91.5 c 128,-1,108
 288 79 288 79 290 69 c 128,-1,109
 292 59 292 59 296 59 c 0,90,91
313 30 m 0,110,111
 313 41 313 41 306 41 c 0,112,113
 296 41 296 41 296 30 c 0,114,115
 296 22 296 22 304 22 c 0,116,117
 307 22 307 22 310 24 c 128,-1,118
 313 26 313 26 313 30 c 0,110,111
EndSplineSet
EndChar

StartChar: M
Encoding: 77 77 53
Width: 808
Flags: W
LayerCount: 2
Fore
SplineSet
427.5 599 m 0,0,1
 387.5 599 387.5 599 359 627 c 128,-1,2
 330.5 655 330.5 655 330.5 699 c 0,3,4
 330.5 723 330.5 723 339 744.5 c 128,-1,5
 347.5 766 347.5 766 362.5 781.5 c 128,-1,6
 377.5 797 377.5 797 398.5 806.5 c 128,-1,7
 419.5 816 419.5 816 444.5 816 c 0,8,9
 464.5 816 464.5 816 481.5 807.5 c 128,-1,10
 498.5 799 498.5 799 510.5 784 c 128,-1,11
 522.5 769 522.5 769 529 750 c 128,-1,12
 535.5 731 535.5 731 535.5 710 c 0,13,14
 535.5 683 535.5 683 527 662.5 c 128,-1,15
 518.5 642 518.5 642 503.5 628 c 128,-1,16
 488.5 614 488.5 614 469 606.5 c 128,-1,17
 449.5 599 449.5 599 427.5 599 c 0,0,1
390.5 772 m 0,18,19
 397.5 779 397.5 779 399 784 c 128,-1,20
 400.5 789 400.5 789 398.5 789 c 0,21,22
 390.5 789 390.5 789 381.5 781.5 c 128,-1,23
 372.5 774 372.5 774 365 763.5 c 128,-1,24
 357.5 753 357.5 753 352.5 741 c 128,-1,25
 347.5 729 347.5 729 347.5 719 c 0,26,27
 347.5 717 347.5 717 349 711 c 128,-1,28
 350.5 705 350.5 705 353.5 705 c 0,29,30
 357.5 705 357.5 705 363.5 727 c 0,31,32
 366.5 741 366.5 741 374.5 752.5 c 128,-1,33
 382.5 764 382.5 764 390.5 772 c 0,18,19
431.5 656 m 0,34,35
 443.5 656 443.5 656 460 670 c 128,-1,36
 476.5 684 476.5 684 476.5 710 c 0,37,38
 476.5 730 476.5 730 466 743.5 c 128,-1,39
 455.5 757 455.5 757 438.5 757 c 256,40,41
 421.5 757 421.5 757 407.5 743.5 c 128,-1,42
 393.5 730 393.5 730 393.5 706 c 256,43,44
 393.5 682 393.5 682 404.5 669 c 128,-1,45
 415.5 656 415.5 656 431.5 656 c 0,34,35
179.5 0 m 0,46,47
 164.5 0 164.5 0 155.5 5.5 c 128,-1,48
 146.5 11 146.5 11 142 20 c 128,-1,49
 137.5 29 137.5 29 136 40.5 c 128,-1,50
 134.5 52 134.5 52 134.5 65 c 2,51,-1
 134.5 496 l 2,52,53
 134.5 507 134.5 507 135 520 c 128,-1,54
 135.5 533 135.5 533 139.5 544 c 128,-1,55
 143.5 555 143.5 555 152.5 562.5 c 128,-1,56
 161.5 570 161.5 570 177.5 570 c 0,57,58
 197.5 570 197.5 570 207.5 555.5 c 128,-1,59
 217.5 541 217.5 541 222 523 c 128,-1,60
 226.5 505 226.5 505 227.5 490.5 c 128,-1,61
 228.5 476 228.5 476 230.5 476 c 256,62,63
 232.5 476 232.5 476 236.5 491.5 c 128,-1,64
 240.5 507 240.5 507 251 525 c 128,-1,65
 261.5 543 261.5 543 280.5 558.5 c 128,-1,66
 299.5 574 299.5 574 332.5 574 c 0,67,68
 360.5 574 360.5 574 378.5 559 c 128,-1,69
 396.5 544 396.5 544 407.5 525.5 c 128,-1,70
 418.5 507 418.5 507 424.5 492 c 128,-1,71
 430.5 477 430.5 477 433.5 477 c 256,72,73
 436.5 477 436.5 477 442 492 c 128,-1,74
 447.5 507 447.5 507 458.5 525.5 c 128,-1,75
 469.5 544 469.5 544 489 559 c 128,-1,76
 508.5 574 508.5 574 540.5 574 c 0,77,78
 581.5 574 581.5 574 607.5 554 c 128,-1,79
 633.5 534 633.5 534 648 498.5 c 128,-1,80
 662.5 463 662.5 463 668 414.5 c 128,-1,81
 673.5 366 673.5 366 673.5 310 c 2,82,-1
 673.5 27 l 2,83,84
 673.5 13 673.5 13 654.5 6.5 c 128,-1,85
 635.5 0 635.5 0 615.5 0 c 256,86,87
 595.5 0 595.5 0 584.5 5.5 c 128,-1,88
 573.5 11 573.5 11 573.5 26 c 2,89,-1
 573.5 301 l 2,90,91
 573.5 313 573.5 313 573.5 341.5 c 128,-1,92
 573.5 370 573.5 370 569 400 c 128,-1,93
 564.5 430 564.5 430 554 452.5 c 128,-1,94
 543.5 475 543.5 475 522.5 475 c 0,95,96
 504.5 475 504.5 475 493 461 c 128,-1,97
 481.5 447 481.5 447 474.5 422.5 c 128,-1,98
 467.5 398 467.5 398 464 363.5 c 128,-1,99
 460.5 329 460.5 329 458.5 287 c 0,100,101
 455.5 238 455.5 238 454.5 211 c 128,-1,102
 453.5 184 453.5 184 454 141.5 c 128,-1,103
 454.5 99 454.5 99 455 69.5 c 128,-1,104
 455.5 40 455.5 40 455.5 31 c 0,105,106
 455.5 17 455.5 17 439 8.5 c 128,-1,107
 422.5 0 422.5 0 398.5 0 c 256,108,109
 374.5 0 374.5 0 364.5 7 c 128,-1,110
 354.5 14 354.5 14 354.5 38 c 2,111,-1
 354.5 301 l 2,112,113
 354.5 312 354.5 312 354.5 341 c 128,-1,114
 354.5 370 354.5 370 350.5 400 c 128,-1,115
 346.5 430 346.5 430 336.5 453 c 128,-1,116
 326.5 476 326.5 476 306.5 476 c 0,117,118
 288.5 476 288.5 476 276 460.5 c 128,-1,119
 263.5 445 263.5 445 255.5 421 c 128,-1,120
 247.5 397 247.5 397 243 367 c 128,-1,121
 238.5 337 238.5 337 236.5 309 c 128,-1,122
 234.5 281 234.5 281 234 257 c 128,-1,123
 233.5 233 233.5 233 233.5 221 c 2,124,-1
 233.5 45 l 2,125,126
 233.5 26 233.5 26 217.5 13 c 128,-1,127
 201.5 0 201.5 0 179.5 0 c 0,46,47
158.5 476 m 0,128,129
 164.5 477 164.5 477 165 487.5 c 128,-1,130
 165.5 498 165.5 498 165.5 506 c 0,131,132
 165.5 513 165.5 513 167.5 521.5 c 128,-1,133
 169.5 530 169.5 530 171 537 c 128,-1,134
 172.5 544 172.5 544 172.5 549 c 128,-1,135
 172.5 554 172.5 554 168.5 554 c 0,136,137
 161.5 554 161.5 554 157 547.5 c 128,-1,138
 152.5 541 152.5 541 150.5 532 c 128,-1,139
 148.5 523 148.5 523 147.5 515 c 128,-1,140
 146.5 507 146.5 507 146.5 504 c 0,141,142
 146.5 496 146.5 496 148.5 485.5 c 128,-1,143
 150.5 475 150.5 475 158.5 476 c 0,128,129
389.5 23 m 0,144,145
 389.5 33 389.5 33 383 36.5 c 128,-1,146
 376.5 40 376.5 40 376.5 51 c 0,147,148
 376.5 53 376.5 53 376.5 58.5 c 128,-1,149
 376.5 64 376.5 64 376 69.5 c 128,-1,150
 375.5 75 375.5 75 373.5 79.5 c 128,-1,151
 371.5 84 371.5 84 368.5 84 c 0,152,153
 366.5 84 366.5 84 365.5 79.5 c 128,-1,154
 364.5 75 364.5 75 364 69 c 128,-1,155
 363.5 63 363.5 63 363.5 57.5 c 128,-1,156
 363.5 52 363.5 52 363.5 50 c 0,157,158
 363.5 38 363.5 38 367 24.5 c 128,-1,159
 370.5 11 370.5 11 380.5 11 c 0,160,161
 389.5 11 389.5 11 389.5 23 c 0,144,145
605.5 24 m 0,162,163
 605.5 34 605.5 34 600 41.5 c 128,-1,164
 594.5 49 594.5 49 594.5 60 c 0,165,166
 594.5 64 594.5 64 594 74 c 128,-1,167
 593.5 84 593.5 84 587.5 84 c 0,168,169
 582.5 84 582.5 84 582 73 c 128,-1,170
 581.5 62 581.5 62 581.5 59 c 256,171,172
 581.5 56 581.5 56 582 48 c 128,-1,173
 582.5 40 582.5 40 584.5 32.5 c 128,-1,174
 586.5 25 586.5 25 589.5 19 c 128,-1,175
 592.5 13 592.5 13 597.5 13 c 0,176,177
 601.5 13 601.5 13 603.5 17.5 c 128,-1,178
 605.5 22 605.5 22 605.5 24 c 0,162,163
177.5 24 m 0,179,180
 177.5 35 177.5 35 173 36 c 128,-1,181
 168.5 37 168.5 37 163.5 44 c 0,182,183
 162.5 46 162.5 46 162 51.5 c 128,-1,184
 161.5 57 161.5 57 161.5 62.5 c 128,-1,185
 161.5 68 161.5 68 160 72.5 c 128,-1,186
 158.5 77 158.5 77 155.5 77 c 0,187,188
 150.5 77 150.5 77 150 67.5 c 128,-1,189
 149.5 58 149.5 58 149.5 51 c 0,190,191
 149.5 47 149.5 47 150.5 41 c 128,-1,192
 151.5 35 151.5 35 154 29 c 128,-1,193
 156.5 23 156.5 23 160 18.5 c 128,-1,194
 163.5 14 163.5 14 168.5 14 c 0,195,196
 177.5 14 177.5 14 177.5 24 c 0,179,180
EndSplineSet
EndChar

StartChar: N
Encoding: 78 78 54
Width: 808
Flags: W
LayerCount: 2
Fore
SplineSet
383.5 558 m 4,0,1
 343.5 558 343.5 558 315 586 c 132,-1,2
 286.5 614 286.5 614 286.5 658 c 4,3,4
 286.5 682 286.5 682 295 703.5 c 132,-1,5
 303.5 725 303.5 725 318.5 740.5 c 132,-1,6
 333.5 756 333.5 756 354.5 765.5 c 132,-1,7
 375.5 775 375.5 775 400.5 775 c 4,8,9
 420.5 775 420.5 775 437.5 766.5 c 132,-1,10
 454.5 758 454.5 758 466.5 743 c 132,-1,11
 478.5 728 478.5 728 485 709 c 132,-1,12
 491.5 690 491.5 690 491.5 669 c 4,13,14
 491.5 642 491.5 642 483 621.5 c 132,-1,15
 474.5 601 474.5 601 459.5 587 c 132,-1,16
 444.5 573 444.5 573 425 565.5 c 132,-1,17
 405.5 558 405.5 558 383.5 558 c 4,0,1
346.5 731 m 4,18,19
 353.5 738 353.5 738 355 743 c 132,-1,20
 356.5 748 356.5 748 354.5 748 c 4,21,22
 346.5 748 346.5 748 337.5 740.5 c 132,-1,23
 328.5 733 328.5 733 321 722.5 c 132,-1,24
 313.5 712 313.5 712 308.5 700 c 132,-1,25
 303.5 688 303.5 688 303.5 678 c 4,26,27
 303.5 676 303.5 676 305 670 c 132,-1,28
 306.5 664 306.5 664 309.5 664 c 4,29,30
 313.5 664 313.5 664 319.5 686 c 4,31,32
 322.5 700 322.5 700 330.5 711.5 c 132,-1,33
 338.5 723 338.5 723 346.5 731 c 4,18,19
387.5 615 m 4,34,35
 399.5 615 399.5 615 416 629 c 132,-1,36
 432.5 643 432.5 643 432.5 669 c 4,37,38
 432.5 689 432.5 689 422 702.5 c 132,-1,39
 411.5 716 411.5 716 394.5 716 c 260,40,41
 377.5 716 377.5 716 363.5 702.5 c 132,-1,42
 349.5 689 349.5 689 349.5 665 c 260,43,44
 349.5 641 349.5 641 360.5 628 c 132,-1,45
 371.5 615 371.5 615 387.5 615 c 4,34,35
275.5 0 m 0,46,47
 250.5 0 250.5 0 240.5 14.5 c 128,-1,48
 230.5 29 230.5 29 230.5 65 c 2,49,-1
 230.5 422 l 2,50,51
 230.5 466 230.5 466 240 481 c 128,-1,52
 249.5 496 249.5 496 278.5 496 c 0,53,54
 297.5 496 297.5 496 315.5 486.5 c 128,-1,55
 333.5 477 333.5 477 333.5 451 c 2,56,-1
 333.5 437 l 2,57,58
 333.5 397 333.5 397 337.5 397 c 256,59,60
 341.5 397 341.5 397 346.5 413 c 128,-1,61
 351.5 429 351.5 429 363.5 448.5 c 128,-1,62
 375.5 468 375.5 468 397.5 484 c 128,-1,63
 419.5 500 419.5 500 455.5 500 c 0,64,65
 519.5 500 519.5 500 548.5 437 c 128,-1,66
 577.5 374 577.5 374 577.5 236 c 2,67,-1
 577.5 31 l 2,68,69
 577.5 0 577.5 0 521.5 0 c 0,70,71
 494.5 0 494.5 0 482.5 11.5 c 128,-1,72
 470.5 23 470.5 23 470.5 34 c 2,73,-1
 470.5 227 l 2,74,75
 470.5 279 470.5 279 467.5 311 c 128,-1,76
 464.5 343 464.5 343 458.5 361 c 128,-1,77
 452.5 379 452.5 379 443 385.5 c 128,-1,78
 433.5 392 433.5 392 419.5 392 c 0,79,80
 398.5 392 398.5 392 383 372.5 c 128,-1,81
 367.5 353 367.5 353 357.5 320 c 128,-1,82
 347.5 287 347.5 287 343 242.5 c 128,-1,83
 338.5 198 338.5 198 338.5 147 c 2,84,-1
 338.5 45 l 2,85,86
 338.5 30 338.5 30 331 21 c 128,-1,87
 323.5 12 323.5 12 313.5 7.5 c 128,-1,88
 303.5 3 303.5 3 293 1.5 c 128,-1,89
 282.5 0 282.5 0 275.5 0 c 0,46,47
250.5 395 m 0,90,91
 253.5 395 253.5 395 255.5 407 c 128,-1,92
 257.5 419 257.5 419 259.5 434 c 128,-1,93
 261.5 449 261.5 449 262.5 461.5 c 128,-1,94
 263.5 474 263.5 474 263.5 475 c 0,95,96
 263.5 477 263.5 477 263 480 c 128,-1,97
 262.5 483 262.5 483 260.5 483 c 0,98,99
 255.5 483 255.5 483 252 475.5 c 128,-1,100
 248.5 468 248.5 468 246.5 458.5 c 128,-1,101
 244.5 449 244.5 449 243.5 439.5 c 128,-1,102
 242.5 430 242.5 430 242.5 427 c 0,103,104
 242.5 419 242.5 419 244.5 407 c 128,-1,105
 246.5 395 246.5 395 250.5 395 c 0,90,91
507.5 29 m 0,106,107
 507.5 35 507.5 35 505.5 38 c 128,-1,108
 503.5 41 503.5 41 501 43 c 128,-1,109
 498.5 45 498.5 45 496.5 49 c 128,-1,110
 494.5 53 494.5 53 494.5 60 c 0,111,112
 494.5 76 494.5 76 493 80 c 128,-1,113
 491.5 84 491.5 84 486.5 84 c 256,114,115
 481.5 84 481.5 84 480 76.5 c 128,-1,116
 478.5 69 478.5 69 478.5 59 c 0,117,118
 478.5 39 478.5 39 484.5 27 c 128,-1,119
 490.5 15 490.5 15 498.5 15 c 0,120,121
 501.5 15 501.5 15 504.5 18.5 c 128,-1,122
 507.5 22 507.5 22 507.5 29 c 0,106,107
274.5 26 m 0,123,124
 274.5 31 274.5 31 272 33.5 c 128,-1,125
 269.5 36 269.5 36 266.5 38.5 c 128,-1,126
 263.5 41 263.5 41 261 45 c 128,-1,127
 258.5 49 258.5 49 258.5 56 c 0,128,129
 258.5 77 258.5 77 251.5 77 c 0,130,131
 249.5 77 249.5 77 247.5 69.5 c 128,-1,132
 245.5 62 245.5 62 245.5 51 c 0,133,134
 245.5 36 245.5 36 252 24 c 128,-1,135
 258.5 12 258.5 12 266.5 12 c 0,136,137
 268.5 12 268.5 12 271.5 16 c 128,-1,138
 274.5 20 274.5 20 274.5 26 c 0,123,124
EndSplineSet
EndChar

StartChar: O
Encoding: 79 79 55
Width: 808
Flags: W
LayerCount: 2
Fore
SplineSet
277.5 341.5 m 0,0,1
 264.5 346 264.5 346 256 355 c 128,-1,2
 247.5 364 247.5 364 245 374 c 128,-1,3
 242.5 384 242.5 384 246 394.5 c 0,4,5
 250.5 406 250.5 406 259.5 411.5 c 0,6,7
 264.5 414 264.5 414 272 416.5 c 0,8,9
 279.5 418 279.5 418 293 420 c 128,-1,10
 306.5 422 306.5 422 326.5 422 c 0,11,12
 386.5 422 386.5 422 417.5 422.5 c 0,13,14
 489.5 422 489.5 422 514.5 421 c 128,-1,15
 539.5 420 539.5 420 552 414.5 c 0,16,17
 564.5 410 564.5 410 567.5 400.5 c 0,18,19
 570.5 392 570.5 392 570.5 376.5 c 0,20,21
 570.5 364 570.5 364 565 357 c 128,-1,22
 559.5 350 559.5 350 545.5 345 c 128,-1,23
 531.5 340 531.5 340 507.5 338.5 c 0,24,25
 483.5 336 483.5 336 417.5 336.5 c 0,26,27
 339.5 336 339.5 336 311 338 c 128,-1,28
 282.5 340 282.5 340 277.5 341.5 c 0,0,1
285.5 402.5 m 0,29,30
 285.5 404 285.5 404 283 406 c 0,31,32
 281.5 407 281.5 407 276.5 404.5 c 128,-1,33
 271.5 402 271.5 402 269 392.5 c 0,34,35
 266.5 384 266.5 384 266.5 376.5 c 256,36,37
 266.5 370 266.5 370 268.5 369.5 c 0,38,39
 271.5 370 271.5 370 276.5 382.5 c 0,40,41
 282.5 396 282.5 396 282.5 396.5 c 0,42,43
 285.5 399 285.5 399 285.5 402.5 c 0,29,30
275.5 180.5 m 0,44,45
 256.5 184 256.5 184 247 198 c 128,-1,46
 237.5 212 237.5 212 244.5 226.5 c 0,47,48
 249.5 236 249.5 236 257 240.5 c 0,49,50
 264.5 246 264.5 246 280 248 c 0,51,52
 303.5 251 303.5 251 320.5 251 c 0,53,54
 384.5 251 384.5 251 438 251.5 c 128,-1,55
 491.5 252 491.5 252 517 250 c 128,-1,56
 542.5 248 542.5 248 556.5 245 c 128,-1,57
 570.5 242 570.5 242 576 235 c 128,-1,58
 581.5 228 581.5 228 581.5 217.5 c 0,59,60
 581.5 204 581.5 204 575.5 195.5 c 0,61,62
 569.5 186 569.5 186 554 181.5 c 0,63,64
 538.5 176 538.5 176 512.5 174 c 0,65,66
 475.5 171 475.5 171 418.5 171.5 c 0,67,68
 340.5 172 340.5 172 312 175 c 128,-1,69
 283.5 178 283.5 178 275.5 180.5 c 0,44,45
278.5 229.5 m 0,70,71
 278.5 232 278.5 232 275.5 232.5 c 256,72,73
 272.5 232 272.5 232 271.5 231.5 c 0,74,75
 269.5 230 269.5 230 266.5 226 c 128,-1,76
 263.5 222 263.5 222 263.5 214.5 c 0,77,78
 263.5 206 263.5 206 265 204.5 c 0,79,80
 266.5 204 266.5 204 271.5 208.5 c 0,81,82
 275.5 212 275.5 212 277 218.5 c 0,83,84
 278.5 224 278.5 224 278.5 229.5 c 0,70,71
401.5 -10 m 0,85,86
 329.5 -10 329.5 -10 276 17.5 c 128,-1,87
 222.5 45 222.5 45 187.5 88.5 c 128,-1,88
 152.5 132 152.5 132 135 186 c 128,-1,89
 117.5 240 117.5 240 117.5 294 c 0,90,91
 117.5 360 117.5 360 137.5 416 c 128,-1,92
 157.5 472 157.5 472 195 512.5 c 128,-1,93
 232.5 553 232.5 553 286.5 576 c 128,-1,94
 340.5 599 340.5 599 407.5 599 c 0,95,96
 469.5 599 469.5 599 521.5 576.5 c 128,-1,97
 573.5 554 573.5 554 611 514.5 c 128,-1,98
 648.5 475 648.5 475 669.5 420.5 c 128,-1,99
 690.5 366 690.5 366 690.5 303 c 0,100,101
 690.5 239 690.5 239 669 182 c 128,-1,102
 647.5 125 647.5 125 609 82.5 c 128,-1,103
 570.5 40 570.5 40 517.5 15 c 128,-1,104
 464.5 -10 464.5 -10 401.5 -10 c 0,85,86
403.5 67 m 0,105,106
 504.5 67 504.5 67 556 130.5 c 128,-1,107
 607.5 194 607.5 194 607.5 303 c 0,108,109
 607.5 347 607.5 347 594 387.5 c 128,-1,110
 580.5 428 580.5 428 554.5 459 c 128,-1,111
 528.5 490 528.5 490 491.5 508.5 c 128,-1,112
 454.5 527 454.5 527 407.5 527 c 0,113,114
 362.5 527 362.5 527 325 509 c 128,-1,115
 287.5 491 287.5 491 260.5 461 c 128,-1,116
 233.5 431 233.5 431 218.5 391 c 128,-1,117
 203.5 351 203.5 351 203.5 306 c 256,118,119
 203.5 261 203.5 261 217 218 c 128,-1,120
 230.5 175 230.5 175 256 141.5 c 128,-1,121
 281.5 108 281.5 108 318.5 87.5 c 128,-1,122
 355.5 67 355.5 67 403.5 67 c 0,105,106
EndSplineSet

EndChar

StartChar: P
Encoding: 80 80 56
Width: 808
Flags: W
LayerCount: 2
Fore
SplineSet
276 -14 m 0,0,1
 256 -14 256 -14 239 1 c 128,-1,2
 222 16 222 16 222 69 c 2,3,-1
 222 526 l 2,4,5
 222 547 222 547 230.5 564 c 128,-1,6
 239 581 239 581 253.5 592.5 c 128,-1,7
 268 604 268 604 286.5 610 c 128,-1,8
 305 616 305 616 325 616 c 2,9,-1
 384 616 l 2,10,11
 415 616 415 616 450.5 604 c 128,-1,12
 486 592 486 592 516 566 c 128,-1,13
 546 540 546 540 566 498 c 128,-1,14
 586 456 586 456 586 397 c 256,15,16
 586 338 586 338 566.5 291.5 c 128,-1,17
 547 245 547 245 518 213.5 c 128,-1,18
 489 182 489 182 455 165.5 c 128,-1,19
 421 149 421 149 391 149 c 2,20,-1
 362 149 l 2,21,22
 353 149 353 149 344.5 145 c 128,-1,23
 336 141 336 141 336 132 c 2,24,-1
 336 65 l 2,25,26
 336 33 336 33 330.5 21 c 128,-1,27
 325 9 325 9 316 1 c 128,-1,28
 307 -7 307 -7 296.5 -10.5 c 128,-1,29
 286 -14 286 -14 276 -14 c 0,0,1
380 238 m 2,30,31
 397 238 397 238 413 246 c 128,-1,32
 429 254 429 254 442.5 271.5 c 128,-1,33
 456 289 456 289 464 317 c 128,-1,34
 472 345 472 345 472 385 c 0,35,36
 472 428 472 428 464 456.5 c 128,-1,37
 456 485 456 485 443 501.5 c 128,-1,38
 430 518 430 518 414 525 c 128,-1,39
 398 532 398 532 383 532 c 2,40,-1
 361 532 l 2,41,42
 336 532 336 532 336 498 c 2,43,-1
 336 261 l 2,44,45
 336 238 336 238 367 238 c 2,46,-1
 380 238 l 2,30,31
262 21 m 256,47,48
 257 26 257 26 253.5 39 c 128,-1,49
 250 52 250 52 250 78.5 c 128,-1,50
 250 105 250 105 243 105 c 0,51,52
 238 105 238 105 236.5 96.5 c 128,-1,53
 235 88 235 88 235 76 c 0,54,55
 235 38 235 38 242 22 c 128,-1,56
 249 6 249 6 259 6 c 0,57,58
 261 6 261 6 264 8 c 128,-1,59
 267 10 267 10 267 12 c 0,60,61
 267 16 267 16 262 21 c 256,47,48
EndSplineSet

EndChar

StartChar: Q
Encoding: 81 81 57
Width: 808
Flags: W
LayerCount: 2
Fore
SplineSet
410 616 m 0,0,1
 369 616 369 616 336 601 c 2,2,3
 336 601 336 601 303 585 c 1,4,-1
 259 537 l 1,5,6
 227 492 227 492 211 432.5 c 128,-1,7
 195 373 195 373 195 311 c 0,8,9
 195 255 195 255 207 196.5 c 128,-1,10
 219 138 219 138 245 90.5 c 128,-1,11
 271 43 271 43 312 12.5 c 128,-1,12
 353 -18 353 -18 411 -18 c 0,13,14
 448 -18 448 -18 479 -4 c 1,15,16
 487 -22 487 -22 499.5 -40.5 c 128,-1,17
 512 -59 512 -59 535 -59 c 0,18,19
 542 -59 542 -59 550.5 -56.5 c 128,-1,20
 559 -54 559 -54 566.5 -49.5 c 128,-1,21
 574 -45 574 -45 579 -39 c 128,-1,22
 584 -33 584 -33 584 -26 c 0,23,24
 584 -18 584 -18 575 8.5 c 128,-1,25
 566 35 566 35 554 65 c 1,26,27
 584 112 584 112 598.5 177.5 c 128,-1,28
 613 243 613 243 613 316 c 0,29,30
 613 371 613 371 601 425 c 128,-1,31
 589 479 589 479 564.5 521.5 c 128,-1,32
 540 564 540 564 501.5 590 c 128,-1,33
 463 616 463 616 410 616 c 0,0,1
258 139 m 0,34,35
 261 139 261 139 265 133.5 c 128,-1,36
 269 128 269 128 273.5 119.5 c 128,-1,37
 278 111 278 111 283.5 102 c 128,-1,38
 289 93 289 93 294 86 c 0,39,40
 316 57 316 57 335.5 40 c 128,-1,41
 355 23 355 23 355 18 c 0,42,43
 355 15 355 15 350 14 c 0,44,45
 338 14 338 14 321.5 28 c 128,-1,46
 305 42 305 42 290 61.5 c 128,-1,47
 275 81 275 81 264.5 101.5 c 128,-1,48
 254 122 254 122 254 134 c 0,49,50
 254 139 254 139 258 139 c 0,34,35
315 395 m 1,51,52
 331 354 331 354 348 312 c 128,-1,53
 365 270 365 270 381.5 229.5 c 128,-1,54
 398 189 398 189 413.5 151 c 128,-1,55
 429 113 429 113 442 81 c 1,56,57
 429 74 429 74 411 74 c 0,58,59
 380 74 380 74 360 102 c 128,-1,60
 340 130 340 130 328.5 168.5 c 128,-1,61
 317 207 317 207 313 247 c 128,-1,62
 309 287 309 287 309 311 c 0,63,64
 309 327 309 327 310.5 349 c 128,-1,65
 312 371 312 371 315 395 c 1,51,52
259 161 m 256,66,67
 259 153 259 153 252 151 c 0,68,69
 249 151 249 151 244 154.5 c 128,-1,70
 239 158 239 158 239 166 c 0,71,72
 239 175 239 175 247 175 c 0,73,74
 250 175 250 175 254.5 172 c 128,-1,75
 259 169 259 169 259 161 c 256,66,67
410 536 m 0,76,77
 440 536 440 536 458.5 513.5 c 128,-1,78
 477 491 477 491 487.5 457.5 c 128,-1,79
 498 424 498 424 502 384 c 128,-1,80
 506 344 506 344 506 308 c 0,81,82
 506 282 506 282 505 254 c 128,-1,83
 504 226 504 226 500 198 c 1,84,85
 490 224 490 224 475 262.5 c 128,-1,86
 460 301 460 301 442.5 344.5 c 128,-1,87
 425 388 425 388 406.5 434.5 c 128,-1,88
 388 481 388 481 370 523 c 1,89,90
 388 536 388 536 410 536 c 0,76,77
EndSplineSet

EndChar

StartChar: R
Encoding: 82 82 58
Width: 808
Flags: W
LayerCount: 2
Fore
SplineSet
385.5 584 m 4,0,1
 345.5 584 345.5 584 317 612 c 132,-1,2
 288.5 640 288.5 640 288.5 684 c 4,3,4
 288.5 708 288.5 708 297 729.5 c 132,-1,5
 305.5 751 305.5 751 320.5 766.5 c 132,-1,6
 335.5 782 335.5 782 356.5 791.5 c 132,-1,7
 377.5 801 377.5 801 402.5 801 c 4,8,9
 422.5 801 422.5 801 439.5 792.5 c 132,-1,10
 456.5 784 456.5 784 468.5 769 c 132,-1,11
 480.5 754 480.5 754 487 735 c 132,-1,12
 493.5 716 493.5 716 493.5 695 c 4,13,14
 493.5 668 493.5 668 485 647.5 c 132,-1,15
 476.5 627 476.5 627 461.5 613 c 132,-1,16
 446.5 599 446.5 599 427 591.5 c 132,-1,17
 407.5 584 407.5 584 385.5 584 c 4,0,1
348.5 757 m 4,18,19
 355.5 764 355.5 764 357 769 c 132,-1,20
 358.5 774 358.5 774 356.5 774 c 4,21,22
 348.5 774 348.5 774 339.5 766.5 c 132,-1,23
 330.5 759 330.5 759 323 748.5 c 132,-1,24
 315.5 738 315.5 738 310.5 726 c 132,-1,25
 305.5 714 305.5 714 305.5 704 c 4,26,27
 305.5 702 305.5 702 307 696 c 132,-1,28
 308.5 690 308.5 690 311.5 690 c 4,29,30
 315.5 690 315.5 690 321.5 712 c 4,31,32
 324.5 726 324.5 726 332.5 737.5 c 132,-1,33
 340.5 749 340.5 749 348.5 757 c 4,18,19
389.5 641 m 4,34,35
 401.5 641 401.5 641 418 655 c 132,-1,36
 434.5 669 434.5 669 434.5 695 c 4,37,38
 434.5 715 434.5 715 424 728.5 c 132,-1,39
 413.5 742 413.5 742 396.5 742 c 260,40,41
 379.5 742 379.5 742 365.5 728.5 c 132,-1,42
 351.5 715 351.5 715 351.5 691 c 260,43,44
 351.5 667 351.5 667 362.5 654 c 132,-1,45
 373.5 641 373.5 641 389.5 641 c 4,34,35
329.5 0 m 0,46,47
 304.5 0 304.5 0 294.5 17 c 128,-1,48
 284.5 34 284.5 34 284.5 64 c 2,49,-1
 284.5 451 l 2,50,51
 284.5 505 284.5 505 295.5 525 c 128,-1,52
 306.5 545 306.5 545 332.5 545 c 0,53,54
 355.5 545 355.5 545 369 526.5 c 128,-1,55
 382.5 508 382.5 508 382.5 473 c 0,56,57
 382.5 462 382.5 462 382.5 456.5 c 128,-1,58
 382.5 451 382.5 451 385.5 451 c 0,59,60
 387.5 451 387.5 451 388 454 c 128,-1,61
 388.5 457 388.5 457 390.5 461 c 0,62,63
 393.5 468 393.5 468 399 482 c 128,-1,64
 404.5 496 404.5 496 415 510 c 128,-1,65
 425.5 524 425.5 524 441.5 534.5 c 128,-1,66
 457.5 545 457.5 545 479.5 545 c 0,67,68
 499.5 545 499.5 545 511.5 533 c 128,-1,69
 523.5 521 523.5 521 523.5 502 c 0,70,71
 523.5 482 523.5 482 515 464.5 c 128,-1,72
 506.5 447 506.5 447 486.5 447 c 256,73,74
 466.5 447 466.5 447 449 428.5 c 128,-1,75
 431.5 410 431.5 410 419 381.5 c 128,-1,76
 406.5 353 406.5 353 399 319 c 128,-1,77
 391.5 285 391.5 285 391.5 254 c 2,78,-1
 391.5 55 l 2,79,80
 391.5 25 391.5 25 371.5 12.5 c 128,-1,81
 351.5 0 351.5 0 329.5 0 c 0,46,47
311.5 503 m 256,82,83
 312.5 507 312.5 507 314 511.5 c 128,-1,84
 315.5 516 315.5 516 316.5 520 c 128,-1,85
 317.5 524 317.5 524 317 526.5 c 128,-1,86
 316.5 529 316.5 529 312.5 529 c 0,87,88
 307.5 529 307.5 529 302.5 518.5 c 128,-1,89
 297.5 508 297.5 508 297.5 497 c 0,90,91
 297.5 476 297.5 476 304.5 476 c 0,92,93
 309.5 476 309.5 476 310 487.5 c 128,-1,94
 310.5 499 310.5 499 311.5 503 c 256,82,83
311.5 50 m 0,95,96
 308.5 62 308.5 62 307 71.5 c 128,-1,97
 305.5 81 305.5 81 302.5 81 c 0,98,99
 297.5 81 297.5 81 297.5 64 c 0,100,101
 297.5 46 297.5 46 302.5 32 c 128,-1,102
 307.5 18 307.5 18 314.5 18 c 0,103,104
 316.5 18 316.5 18 319 19 c 128,-1,105
 321.5 20 321.5 20 321.5 25 c 0,106,107
 321.5 28 321.5 28 317.5 34 c 128,-1,108
 313.5 40 313.5 40 311.5 50 c 0,95,96
EndSplineSet
EndChar

StartChar: S
Encoding: 83 83 59
Width: 808
Flags: W
LayerCount: 2
Fore
SplineSet
414 622.5 m 4,0,1
 374 622.5 374 622.5 345.5 650.5 c 132,-1,2
 317 678.5 317 678.5 317 722.5 c 4,3,4
 317 746.5 317 746.5 325.5 768 c 132,-1,5
 334 789.5 334 789.5 349 805 c 132,-1,6
 364 820.5 364 820.5 385 830 c 132,-1,7
 406 839.5 406 839.5 431 839.5 c 4,8,9
 451 839.5 451 839.5 468 831 c 132,-1,10
 485 822.5 485 822.5 497 807.5 c 132,-1,11
 509 792.5 509 792.5 515.5 773.5 c 132,-1,12
 522 754.5 522 754.5 522 733.5 c 4,13,14
 522 706.5 522 706.5 513.5 686 c 132,-1,15
 505 665.5 505 665.5 490 651.5 c 132,-1,16
 475 637.5 475 637.5 455.5 630 c 132,-1,17
 436 622.5 436 622.5 414 622.5 c 4,0,1
377 795.5 m 4,18,19
 384 802.5 384 802.5 385.5 807.5 c 132,-1,20
 387 812.5 387 812.5 385 812.5 c 4,21,22
 377 812.5 377 812.5 368 805 c 132,-1,23
 359 797.5 359 797.5 351.5 787 c 132,-1,24
 344 776.5 344 776.5 339 764.5 c 132,-1,25
 334 752.5 334 752.5 334 742.5 c 4,26,27
 334 740.5 334 740.5 335.5 734.5 c 132,-1,28
 337 728.5 337 728.5 340 728.5 c 4,29,30
 344 728.5 344 728.5 350 750.5 c 4,31,32
 353 764.5 353 764.5 361 776 c 132,-1,33
 369 787.5 369 787.5 377 795.5 c 4,18,19
418 679.5 m 4,34,35
 430 679.5 430 679.5 446.5 693.5 c 132,-1,36
 463 707.5 463 707.5 463 733.5 c 4,37,38
 463 753.5 463 753.5 452.5 767 c 132,-1,39
 442 780.5 442 780.5 425 780.5 c 260,40,41
 408 780.5 408 780.5 394 767 c 132,-1,42
 380 753.5 380 753.5 380 729.5 c 260,43,44
 380 705.5 380 705.5 391 692.5 c 132,-1,45
 402 679.5 402 679.5 418 679.5 c 4,34,35
407 -46 m 4,46,47
 376 -46 376 -46 345 -32.5 c 132,-1,48
 314 -19 314 -19 289.5 6 c 132,-1,49
 265 31 265 31 250 68 c 132,-1,50
 235 105 235 105 235 151 c 4,51,52
 235 182 235 182 253 202 c 132,-1,53
 271 222 271 222 298 220 c 4,54,55
 315 219 315 219 322.5 207.5 c 132,-1,56
 330 196 330 196 330 170 c 4,57,58
 330 152 330 152 334.5 129 c 132,-1,59
 339 106 339 106 348 86 c 132,-1,60
 357 66 357 66 369.5 52.5 c 132,-1,61
 382 39 382 39 397 39 c 4,62,63
 461 39 461 39 461 104 c 4,64,65
 461 125 461 125 454.5 143 c 132,-1,66
 448 161 448 161 437.5 176 c 132,-1,67
 427 191 427 191 414 205 c 132,-1,68
 401 219 401 219 387 232 c 4,69,70
 315 304 315 304 284.5 352 c 132,-1,71
 254 400 254 400 254 440 c 4,72,73
 254 509 254 509 296.5 548 c 132,-1,74
 339 587 339 587 413 587 c 4,75,76
 447 587 447 587 475 572 c 132,-1,77
 503 557 503 557 523.5 533 c 132,-1,78
 544 509 544 509 555 479.5 c 132,-1,79
 566 450 566 450 566 422 c 4,80,81
 566 392 566 392 548.5 367.5 c 132,-1,82
 531 343 531 343 505 343 c 4,83,84
 493 343 493 343 479 353 c 132,-1,85
 465 363 465 363 465 380 c 4,86,87
 465 439 465 439 448 466.5 c 132,-1,88
 431 494 431 494 409 494 c 4,89,90
 367 494 367 494 367 446 c 4,91,92
 367 431 367 431 371 416.5 c 132,-1,93
 375 402 375 402 385.5 385 c 132,-1,94
 396 368 396 368 413.5 347.5 c 132,-1,95
 431 327 431 327 458 300 c 4,96,97
 491 267 491 267 513 241 c 132,-1,98
 535 215 535 215 548.5 193 c 132,-1,99
 562 171 562 171 567.5 152 c 132,-1,100
 573 133 573 133 573 114 c 4,101,102
 573 79 573 79 560.5 49.5 c 132,-1,103
 548 20 548 20 526 -1 c 132,-1,104
 504 -22 504 -22 473.5 -34 c 132,-1,105
 443 -46 443 -46 407 -46 c 4,46,47
312 506 m 4,106,107
 316 513 316 513 323 522.5 c 132,-1,108
 330 532 330 532 338 538 c 4,109,110
 346 543 346 543 348.5 549.5 c 132,-1,111
 351 556 351 556 348 556 c 4,112,113
 342 557 342 557 332 549.5 c 132,-1,114
 322 542 322 542 313 531 c 132,-1,115
 304 520 304 520 297 508 c 132,-1,116
 290 496 290 496 289 487 c 4,117,118
 289 481 289 481 295 481 c 4,119,120
 300 480 300 480 303 488 c 132,-1,121
 306 496 306 496 312 506 c 4,106,107
296 461 m 4,122,123
 296 468 296 468 290 468 c 4,124,125
 287 468 287 468 284.5 465 c 132,-1,126
 282 462 282 462 282 460 c 4,127,128
 282 455 282 455 289 454 c 4,129,130
 294 454 294 454 296 461 c 4,122,123
272 153 m 260,131,132
 277 167 277 167 282.5 176 c 132,-1,133
 288 185 288 185 289 193 c 4,134,135
 289 198 289 198 286 198 c 4,136,137
 278 199 278 199 271 192.5 c 132,-1,138
 264 186 264 186 259.5 176 c 132,-1,139
 255 166 255 166 254 153.5 c 132,-1,140
 253 141 253 141 257 129 c 4,141,142
 261 119 261 119 265 119 c 4,143,144
 270 119 270 119 268.5 129 c 132,-1,145
 267 139 267 139 272 153 c 260,131,132
EndSplineSet
EndChar

StartChar: T
Encoding: 84 84 60
Width: 808
Flags: W
LayerCount: 2
Fore
SplineSet
395.5 0 m 0,0,1
 387.5 0 387.5 0 378.5 3 c 128,-1,2
 369.5 6 369.5 6 361.5 11 c 128,-1,3
 353.5 16 353.5 16 348 23.5 c 128,-1,4
 342.5 31 342.5 31 342.5 40 c 2,5,-1
 342.5 525 l 1,6,7
 330.5 525 330.5 525 290.5 525 c 128,-1,8
 250.5 525 250.5 525 234 529 c 128,-1,9
 217.5 533 217.5 533 206 542.5 c 128,-1,10
 194.5 552 194.5 552 194.5 570 c 0,11,12
 194.5 592 194.5 592 208.5 604 c 128,-1,13
 222.5 616 222.5 616 243.5 616 c 2,14,-1
 580.5 616 l 2,15,16
 596.5 616 596.5 616 605 602 c 128,-1,17
 613.5 588 613.5 588 613.5 574 c 0,18,19
 613.5 556 613.5 556 605 546.5 c 128,-1,20
 596.5 537 596.5 537 583.5 532 c 128,-1,21
 570.5 527 570.5 527 523.5 526 c 128,-1,22
 476.5 525 476.5 525 463.5 525 c 2,23,-1
 455.5 525 l 1,24,-1
 455.5 47 l 2,25,26
 455.5 24 455.5 24 435.5 12 c 128,-1,27
 415.5 0 415.5 0 395.5 0 c 0,0,1
217.5 553 m 256,28,29
 222.5 553 222.5 553 222.5 560 c 0,30,31
 222.5 568 222.5 568 225.5 578.5 c 128,-1,32
 228.5 589 228.5 589 234.5 598 c 0,33,34
 237.5 603 237.5 603 229.5 603 c 0,35,36
 220.5 603 220.5 603 214.5 591.5 c 128,-1,37
 208.5 580 208.5 580 208.5 569 c 0,38,39
 208.5 565 208.5 565 210.5 559 c 128,-1,40
 212.5 553 212.5 553 217.5 553 c 256,28,29
376.5 23 m 0,41,42
 385.5 23 385.5 23 385.5 32 c 0,43,44
 385.5 36 385.5 36 381.5 37 c 0,45,46
 375.5 39 375.5 39 373 49.5 c 128,-1,47
 370.5 60 370.5 60 370.5 65 c 0,48,49
 370.5 67 370.5 67 371 73 c 128,-1,50
 371.5 79 371.5 79 371.5 85 c 128,-1,51
 371.5 91 371.5 91 370.5 95.5 c 128,-1,52
 369.5 100 369.5 100 365.5 100 c 256,53,54
 361.5 100 361.5 100 359.5 96 c 128,-1,55
 357.5 92 357.5 92 356.5 86.5 c 128,-1,56
 355.5 81 355.5 81 355 75.5 c 128,-1,57
 354.5 70 354.5 70 354.5 68 c 0,58,59
 354.5 64 354.5 64 355.5 56 c 128,-1,60
 356.5 48 356.5 48 359 41 c 128,-1,61
 361.5 34 361.5 34 366 28.5 c 128,-1,62
 370.5 23 370.5 23 376.5 23 c 0,41,42
EndSplineSet

EndChar

StartChar: U
Encoding: 85 85 61
Width: 808
Flags: W
LayerCount: 2
Fore
SplineSet
401.5 -4 m 0,0,1
 356.5 -4 356.5 -4 320 12.5 c 128,-1,2
 283.5 29 283.5 29 258.5 58.5 c 128,-1,3
 233.5 88 233.5 88 220 129.5 c 128,-1,4
 206.5 171 206.5 171 206.5 221 c 2,5,-1
 206.5 530 l 2,6,7
 206.5 540 206.5 540 208.5 555 c 128,-1,8
 210.5 570 210.5 570 216.5 583.5 c 128,-1,9
 222.5 597 222.5 597 233 606.5 c 128,-1,10
 243.5 616 243.5 616 259.5 616 c 0,11,12
 292.5 616 292.5 616 306.5 599 c 128,-1,13
 320.5 582 320.5 582 320.5 528 c 2,14,-1
 320.5 228 l 2,15,16
 320.5 204 320.5 204 320.5 179.5 c 128,-1,17
 320.5 155 320.5 155 328 135.5 c 128,-1,18
 335.5 116 335.5 116 353 103.5 c 128,-1,19
 370.5 91 370.5 91 405.5 91 c 0,20,21
 438.5 91 438.5 91 455.5 110 c 128,-1,22
 472.5 129 472.5 129 480 157.5 c 128,-1,23
 487.5 186 487.5 186 488 220 c 128,-1,24
 488.5 254 488.5 254 488.5 284 c 2,25,-1
 488.5 531 l 2,26,27
 488.5 541 488.5 541 490.5 556 c 128,-1,28
 492.5 571 492.5 571 498 584.5 c 128,-1,29
 503.5 598 503.5 598 513 608 c 128,-1,30
 522.5 618 522.5 618 538.5 618 c 0,31,32
 569.5 618 569.5 618 585.5 597.5 c 128,-1,33
 601.5 577 601.5 577 601.5 532 c 2,34,-1
 601.5 246 l 2,35,36
 601.5 189 601.5 189 589 143 c 128,-1,37
 576.5 97 576.5 97 551 64.5 c 128,-1,38
 525.5 32 525.5 32 488.5 14 c 128,-1,39
 451.5 -4 451.5 -4 401.5 -4 c 0,0,1
516.5 556 m 0,40,41
 516.5 560 516.5 560 519.5 568 c 128,-1,42
 522.5 576 522.5 576 529.5 584 c 0,43,44
 537.5 595 537.5 595 538 599 c 128,-1,45
 538.5 603 538.5 603 529.5 603 c 0,46,47
 524.5 603 524.5 603 520 598 c 128,-1,48
 515.5 593 515.5 593 512.5 588 c 0,49,50
 510.5 583 510.5 583 507 575 c 128,-1,51
 503.5 567 503.5 567 502.5 558 c 0,52,53
 502.5 553 502.5 553 503.5 548.5 c 128,-1,54
 504.5 544 504.5 544 509.5 544 c 256,55,56
 514.5 544 514.5 544 515.5 547.5 c 128,-1,57
 516.5 551 516.5 551 516.5 556 c 0,40,41
248.5 570 m 0,58,59
 252.5 579 252.5 579 258 585 c 128,-1,60
 263.5 591 263.5 591 263.5 598 c 0,61,62
 263.5 603 263.5 603 260.5 603 c 256,63,64
 257.5 603 257.5 603 251.5 600.5 c 128,-1,65
 245.5 598 245.5 598 240.5 590 c 0,66,67
 225.5 569 225.5 569 223.5 552 c 128,-1,68
 221.5 535 221.5 535 227.5 535 c 0,69,70
 232.5 535 232.5 535 238 545.5 c 128,-1,71
 243.5 556 243.5 556 248.5 570 c 0,58,59
317.5 48 m 0,72,73
 317.5 51 317.5 51 310 57 c 128,-1,74
 302.5 63 302.5 63 294.5 72 c 0,75,76
 286.5 80 286.5 80 276 93.5 c 128,-1,77
 265.5 107 265.5 107 258.5 122 c 0,78,79
 253.5 132 253.5 132 249 136 c 128,-1,80
 244.5 140 244.5 140 242.5 140 c 0,81,82
 238.5 140 238.5 140 238.5 133 c 0,83,84
 238.5 125 238.5 125 246.5 109.5 c 128,-1,85
 254.5 94 254.5 94 265.5 79 c 128,-1,86
 276.5 64 276.5 64 289 53 c 128,-1,87
 301.5 42 301.5 42 311.5 42 c 0,88,89
 317.5 42 317.5 42 317.5 48 c 0,72,73
340.5 39 m 0,90,91
 340.5 40 340.5 40 338 43 c 128,-1,92
 335.5 46 335.5 46 332.5 46 c 0,93,94
 327.5 45 327.5 45 325.5 42 c 128,-1,95
 323.5 39 323.5 39 323.5 37 c 0,96,97
 324.5 34 324.5 34 325.5 31.5 c 128,-1,98
 326.5 29 326.5 29 331.5 30 c 0,99,100
 340.5 30 340.5 30 340.5 39 c 0,90,91
EndSplineSet
EndChar

StartChar: V
Encoding: 86 86 62
Width: 808
Flags: W
LayerCount: 2
Fore
SplineSet
442.5 103 m 1,0,-1
 371.5 103 l 1,1,-1
 371.5 783 l 1,2,-1
 442.5 783 l 1,3,-1
 442.5 103 l 1,0,-1
359.5 0 m 1,4,-1
 133.5 545 l 1,5,-1
 133.5 599 l 1,6,-1
 674.5 599 l 1,7,-1
 674.5 544 l 1,8,-1
 449.5 0 l 1,9,-1
 359.5 0 l 1,4,-1
405.5 98 m 1,10,-1
 578.5 520 l 1,11,-1
 232.5 520 l 1,12,-1
 405.5 98 l 1,10,-1
EndSplineSet
EndChar

StartChar: W
Encoding: 87 87 63
Width: 808
Flags: W
LayerCount: 2
Fore
SplineSet
706.017578125 609.5 m 0,0,1
 705.517578125 578 705.517578125 578 685.017578125 568.5 c 0,2,3
 663.517578125 558 663.517578125 558 640.017578125 557.5 c 0,4,5
 604.517578125 557 604.517578125 557 395.017578125 556 c 128,-1,6
 185.517578125 555 185.517578125 555 155.017578125 555.5 c 4,7,8
 133.517578125 556 133.517578125 556 117.517578125 566 c 4,9,10
 102.517578125 575 102.517578125 575 102.017578125 599.5 c 4,11,12
 101.517578125 614 101.517578125 614 108.017578125 622 c 4,13,14
 113.517578125 630 113.517578125 630 123.017578125 635.5 c 4,15,16
 131.517578125 640 131.517578125 640 143.517578125 642.5 c 4,17,18
 155.517578125 644 155.517578125 644 166.017578125 644.5 c 4,19,20
 197.517578125 645 197.517578125 645 411.517578125 646 c 128,-1,21
 625.517578125 647 625.517578125 647 660.017578125 646.5 c 0,22,23
 677.517578125 646 677.517578125 646 691.517578125 639 c 128,-1,24
 705.517578125 632 705.517578125 632 706.017578125 609.5 c 0,0,1
120.017578125 580.5 m 4,25,26
 124.517578125 580 124.517578125 580 128.517578125 586 c 132,-1,27
 132.517578125 592 132.517578125 592 136.517578125 598 c 132,-1,28
 140.517578125 604 140.517578125 604 142.517578125 611 c 132,-1,29
 144.517578125 618 144.517578125 618 145.017578125 619.5 c 4,30,31
 144.517578125 624 144.517578125 624 144.517578125 627 c 132,-1,32
 144.517578125 630 144.517578125 630 139.017578125 630.5 c 4,33,34
 126.517578125 630 126.517578125 630 119.517578125 617 c 4,35,36
 113.517578125 607 113.517578125 607 113.017578125 593.5 c 4,37,38
 112.517578125 586 112.517578125 586 115.517578125 583 c 132,-1,39
 118.517578125 580 118.517578125 580 120.017578125 580.5 c 4,25,26
505.517578125 0 m 0,40,41
 482.517578125 0 482.517578125 0 466.017578125 6 c 128,-1,42
 449.517578125 12 449.517578125 12 438.017578125 23.5 c 128,-1,43
 426.517578125 35 426.517578125 35 418.517578125 51 c 0,44,45
 406.517578125 75 406.517578125 75 403.517578125 87 c 0,46,47
 402.517578125 91 402.517578125 91 401.517578125 97 c 128,-1,48
 400.517578125 103 400.517578125 103 399.017578125 109 c 128,-1,49
 397.517578125 115 397.517578125 115 396.017578125 119 c 128,-1,50
 394.517578125 123 394.517578125 123 392.517578125 123 c 256,51,52
 390.517578125 123 390.517578125 123 388.517578125 115.5 c 128,-1,53
 386.517578125 108 386.517578125 108 382.517578125 97 c 0,54,55
 372.517578125 71 372.517578125 71 363.517578125 52.5 c 128,-1,56
 354.517578125 34 354.517578125 34 343.017578125 22.5 c 128,-1,57
 331.517578125 11 331.517578125 11 317.517578125 5.5 c 128,-1,58
 303.517578125 0 303.517578125 0 283.517578125 0 c 0,59,60
 243.517578125 0 243.517578125 0 214.017578125 13.5 c 128,-1,61
 184.517578125 27 184.517578125 27 165.517578125 51.5 c 128,-1,62
 146.517578125 76 146.517578125 76 137.517578125 109.5 c 128,-1,63
 128.517578125 143 128.517578125 143 128.517578125 183 c 2,64,-1
 128.517578125 462 l 2,65,66
 128.517578125 472 128.517578125 472 131.517578125 485.5 c 128,-1,67
 134.517578125 499 134.517578125 499 141.517578125 511 c 128,-1,68
 148.517578125 523 148.517578125 523 160.017578125 531.5 c 128,-1,69
 171.517578125 540 171.517578125 540 189.517578125 540 c 0,70,71
 218.517578125 540 218.517578125 540 229.517578125 519.5 c 0,72,73
 240.400390625 499.21875 240.400390625 499.21875 240.517578125 467 c 2,74,-1
 241.517578125 193 l 2,75,76
 241.517578125 183 241.517578125 183 243.517578125 166.5 c 128,-1,77
 245.517578125 150 245.517578125 150 250.017578125 134 c 128,-1,78
 254.517578125 118 254.517578125 118 263.517578125 106.5 c 128,-1,79
 272.517578125 95 272.517578125 95 285.517578125 95 c 0,80,81
 308.517578125 95 308.517578125 95 322.017578125 129 c 128,-1,82
 335.517578125 163 335.517578125 163 342.517578125 219 c 128,-1,83
 349.517578125 275 349.517578125 275 351.017578125 308.5 c 128,-1,84
 352.517578125 342 352.517578125 342 352.517578125 418 c 0,85,86
 352.517578125 482 352.517578125 482 362.517578125 506.5 c 128,-1,87
 372.517578125 531 372.517578125 531 402.517578125 531 c 0,88,89
 416.517578125 531 416.517578125 531 425.517578125 526 c 128,-1,90
 434.517578125 521 434.517578125 521 440.517578125 505 c 128,-1,91
 446.517578125 489 446.517578125 489 449.017578125 459 c 128,-1,92
 451.517578125 429 451.517578125 429 451.517578125 379 c 0,93,94
 451.517578125 300 451.517578125 300 451.517578125 285.5 c 128,-1,95
 451.517578125 271 451.517578125 271 453.017578125 236.5 c 128,-1,96
 454.517578125 202 454.517578125 202 457.017578125 181.5 c 128,-1,97
 459.517578125 161 459.517578125 161 464.517578125 146 c 0,98,99
 473.517578125 117 473.517578125 117 483.517578125 105.5 c 128,-1,100
 493.517578125 94 493.517578125 94 506.517578125 94 c 0,101,102
 565.517578125 94 565.517578125 94 565.517578125 239 c 2,103,-1
 565.517578125 479 l 2,104,105
 565.517578125 490 565.517578125 490 567.517578125 501 c 128,-1,106
 569.517578125 512 569.517578125 512 575.017578125 520.5 c 128,-1,107
 580.517578125 529 580.517578125 529 590.517578125 534.5 c 128,-1,108
 600.517578125 540 600.517578125 540 615.517578125 540 c 0,109,110
 647.517578125 540 647.517578125 540 662.017578125 522.5 c 128,-1,111
 676.517578125 505 676.517578125 505 676.517578125 479 c 2,112,-1
 676.517578125 220 l 2,113,114
 676.517578125 178 676.517578125 178 665.017578125 138.5 c 128,-1,115
 653.517578125 99 653.517578125 99 632.017578125 68 c 128,-1,116
 610.517578125 37 610.517578125 37 578.517578125 18.5 c 128,-1,117
 546.517578125 0 546.517578125 0 505.517578125 0 c 0,40,41
153.517578125 455 m 0,118,119
 160.517578125 455 160.517578125 455 163.017578125 462 c 128,-1,120
 165.517578125 469 165.517578125 469 166.517578125 474 c 0,121,122
 168.517578125 488 168.517578125 488 177.517578125 497.5 c 0,123,124
 192.517578125 513 192.517578125 513 192.517578125 519 c 0,125,126
 192.517578125 521 192.517578125 521 190.517578125 524 c 128,-1,127
 188.517578125 527 188.517578125 527 185.517578125 527 c 0,128,129
 179.517578125 527 179.517578125 527 172.517578125 520.5 c 128,-1,130
 165.517578125 514 165.517578125 514 159.517578125 505 c 128,-1,131
 153.517578125 496 153.517578125 496 150.017578125 485.5 c 128,-1,132
 146.517578125 475 146.517578125 475 146.517578125 467 c 0,133,134
 146.517578125 463 146.517578125 463 147.517578125 459 c 128,-1,135
 148.517578125 455 148.517578125 455 153.517578125 455 c 0,118,119
598.517578125 473 m 0,136,137
 598.517578125 483 598.517578125 483 601.517578125 491 c 128,-1,138
 604.517578125 499 604.517578125 499 608.517578125 506 c 0,139,140
 613.517578125 514 613.517578125 514 612.517578125 519 c 128,-1,141
 611.517578125 524 611.517578125 524 608.517578125 524 c 0,142,143
 603.517578125 524 603.517578125 524 597.017578125 520.5 c 128,-1,144
 590.517578125 517 590.517578125 517 586.517578125 507 c 0,145,146
 581.517578125 491 581.517578125 491 583.017578125 476 c 128,-1,147
 584.517578125 461 584.517578125 461 592.517578125 461 c 0,148,149
 594.517578125 461 594.517578125 461 596.517578125 464.5 c 128,-1,150
 598.517578125 468 598.517578125 468 598.517578125 473 c 0,136,137
379.517578125 467 m 0,151,152
 379.517578125 468 379.517578125 468 381.517578125 477.5 c 128,-1,153
 383.517578125 487 383.517578125 487 386.517578125 493 c 0,154,155
 393.517578125 506 393.517578125 506 395.517578125 511 c 128,-1,156
 397.517578125 516 397.517578125 516 394.517578125 516 c 0,157,158
 392.517578125 516 392.517578125 516 387.017578125 514 c 128,-1,159
 381.517578125 512 381.517578125 512 376.517578125 505 c 0,160,161
 365.517578125 490 365.517578125 490 366.017578125 473 c 128,-1,162
 366.517578125 456 366.517578125 456 374.517578125 456 c 0,163,164
 379.517578125 456 379.517578125 456 379.517578125 467 c 0,151,152
230.517578125 37 m 0,165,166
 229.517578125 42 229.517578125 42 216.517578125 51 c 128,-1,167
 203.517578125 60 203.517578125 60 197.517578125 67 c 0,168,169
 186.517578125 78 186.517578125 78 182.017578125 89 c 128,-1,170
 177.517578125 100 177.517578125 100 172.517578125 99 c 0,171,172
 168.517578125 99 168.517578125 99 169.017578125 92 c 128,-1,173
 169.517578125 85 169.517578125 85 174.017578125 75 c 128,-1,174
 178.517578125 65 178.517578125 65 187.517578125 54 c 128,-1,175
 196.517578125 43 196.517578125 43 209.517578125 34 c 0,176,177
 218.517578125 27 218.517578125 27 225.517578125 29 c 0,178,179
 230.517578125 29 230.517578125 29 230.517578125 37 c 0,165,166
496.517578125 22 m 0,180,181
 496.517578125 26 496.517578125 26 493.017578125 27 c 128,-1,182
 489.517578125 28 489.517578125 28 486.517578125 28 c 0,183,184
 481.517578125 29 481.517578125 29 471.517578125 38 c 128,-1,185
 461.517578125 47 461.517578125 47 455.517578125 57 c 0,186,187
 445.517578125 72 445.517578125 72 437.517578125 74 c 0,188,189
 434.517578125 74 434.517578125 74 434.517578125 69 c 0,190,191
 434.517578125 67 434.517578125 67 438.017578125 59 c 128,-1,192
 441.517578125 51 441.517578125 51 448.517578125 42 c 128,-1,193
 455.517578125 33 455.517578125 33 465.017578125 25.5 c 128,-1,194
 474.517578125 18 474.517578125 18 485.517578125 17 c 0,195,196
 489.517578125 17 489.517578125 17 492.517578125 17 c 128,-1,197
 495.517578125 17 495.517578125 17 496.517578125 22 c 0,180,181
EndSplineSet
EndChar

StartChar: X
Encoding: 88 88 64
Width: 808
Flags: W
LayerCount: 2
Fore
SplineSet
490.534179688 174.834960938 m 0,0,1
 500.138671875 166.602539062 500.138671875 166.602539062 513.790039062 152.40234375 c 128,-1,2
 527.44140625 138.202148438 527.44140625 138.202148438 540.081054688 125.494140625 c 128,-1,3
 552.720703125 112.786132812 552.720703125 112.786132812 562.975585938 104.829101562 c 128,-1,4
 573.231445312 96.87109375 573.231445312 96.87109375 576.043945312 101.124023438 c 0,5,6
 577.725585938 102.598632812 577.725585938 102.598632812 579.611328125 107.229492188 c 128,-1,7
 581.498046875 111.860351562 581.498046875 111.860351562 578 116.524414062 c 0,8,9
 575.049804688 119.885742188 575.049804688 119.885742188 565 131 c 128,-1,10
 554.950195312 142.112304688 554.950195312 142.112304688 543.047851562 153.98046875 c 128,-1,11
 531.146484375 165.84765625 531.146484375 165.84765625 519.604492188 175.94921875 c 128,-1,12
 508.061523438 186.05078125 508.061523438 186.05078125 502.505859375 188.313476562 c 0,13,14
 496.0234375 190.955078125 496.0234375 190.955078125 491.340820312 184.764648438 c 128,-1,15
 486.659179688 178.573242188 486.659179688 178.573242188 490.534179688 174.834960938 c 0,0,1
233.453125 485.340820312 m 0,16,17
 243.057617188 477.108398438 243.057617188 477.108398438 256.708984375 462.908203125 c 128,-1,18
 270.360351562 448.708007812 270.360351562 448.708007812 283 436 c 128,-1,19
 295.639648438 423.291992188 295.639648438 423.291992188 305.89453125 415.334960938 c 128,-1,20
 316.150390625 407.376953125 316.150390625 407.376953125 318.962890625 411.629882812 c 0,21,22
 320.64453125 413.104492188 320.64453125 413.104492188 322.530273438 417.735351562 c 128,-1,23
 324.416992188 422.366210938 324.416992188 422.366210938 320.918945312 427.030273438 c 0,24,25
 317.96875 430.391601562 317.96875 430.391601562 307.918945312 441.505859375 c 128,-1,26
 297.869140625 452.618164062 297.869140625 452.618164062 285.966796875 464.486328125 c 128,-1,27
 274.065429688 476.353515625 274.065429688 476.353515625 262.5234375 486.455078125 c 128,-1,28
 250.98046875 496.556640625 250.98046875 496.556640625 245.424804688 498.819335938 c 0,29,30
 238.942382812 501.4609375 238.942382812 501.4609375 234.259765625 495.270507812 c 128,-1,31
 229.578125 489.079101562 229.578125 489.079101562 233.453125 485.340820312 c 0,16,17
496.004882812 411.383789062 m 0,32,33
 504.94921875 420.328125 504.94921875 420.328125 520.154296875 432.850585938 c 128,-1,34
 535.360351562 445.372070312 535.360351562 445.372070312 549 457 c 128,-1,35
 562.639648438 468.627929688 562.639648438 468.627929688 571.360351562 478.2421875 c 128,-1,36
 580.081054688 487.857421875 580.081054688 487.857421875 576.056640625 490.98828125 c 0,37,38
 574.71484375 492.77734375 574.71484375 492.77734375 570.2421875 495.012695312 c 128,-1,39
 565.770507812 497.249023438 565.770507812 497.249023438 560.8515625 494.119140625 c 0,40,41
 557.2734375 491.435546875 557.2734375 491.435546875 545.421875 482.267578125 c 128,-1,42
 533.571289062 473.099609375 533.571289062 473.099609375 520.825195312 462.142578125 c 128,-1,43
 508.080078125 451.186523438 508.080078125 451.186523438 497.123046875 440.453125 c 128,-1,44
 486.166015625 429.719726562 486.166015625 429.719726562 483.483398438 424.353515625 c 0,45,46
 480.352539062 418.092773438 480.352539062 418.092773438 486.166015625 412.94921875 c 128,-1,47
 491.98046875 407.806640625 491.98046875 407.806640625 496.004882812 411.383789062 c 0,32,33
222.004882812 123.383789062 m 0,48,49
 230.94921875 132.328125 230.94921875 132.328125 246.154296875 144.850585938 c 128,-1,50
 261.360351562 157.372070312 261.360351562 157.372070312 275 169 c 128,-1,51
 288.639648438 180.627929688 288.639648438 180.627929688 297.360351562 190.2421875 c 128,-1,52
 306.081054688 199.857421875 306.081054688 199.857421875 302.056640625 202.98828125 c 0,53,54
 300.71484375 204.77734375 300.71484375 204.77734375 296.2421875 207.012695312 c 128,-1,55
 291.770507812 209.249023438 291.770507812 209.249023438 286.8515625 206.119140625 c 0,56,57
 283.2734375 203.435546875 283.2734375 203.435546875 271.421875 194.267578125 c 128,-1,58
 259.571289062 185.099609375 259.571289062 185.099609375 246.825195312 174.142578125 c 128,-1,59
 234.080078125 163.186523438 234.080078125 163.186523438 223.123046875 152.453125 c 128,-1,60
 212.166015625 141.719726562 212.166015625 141.719726562 209.483398438 136.353515625 c 0,61,62
 206.352539062 130.092773438 206.352539062 130.092773438 212.166015625 124.94921875 c 128,-1,63
 217.98046875 119.806640625 217.98046875 119.806640625 222.004882812 123.383789062 c 0,48,49
222.004882812 123.383789062 m 0,64,65
 230.94921875 132.328125 230.94921875 132.328125 246.154296875 144.850585938 c 128,-1,66
 261.360351562 157.372070312 261.360351562 157.372070312 275 169 c 128,-1,67
 288.639648438 180.627929688 288.639648438 180.627929688 297.360351562 190.2421875 c 128,-1,68
 306.081054688 199.857421875 306.081054688 199.857421875 302.056640625 202.98828125 c 0,69,70
 300.71484375 204.77734375 300.71484375 204.77734375 296.2421875 207.012695312 c 128,-1,71
 291.770507812 209.249023438 291.770507812 209.249023438 286.8515625 206.119140625 c 0,72,73
 283.2734375 203.435546875 283.2734375 203.435546875 271.421875 194.267578125 c 128,-1,74
 259.571289062 185.099609375 259.571289062 185.099609375 246.825195312 174.142578125 c 128,-1,75
 234.080078125 163.186523438 234.080078125 163.186523438 223.123046875 152.453125 c 128,-1,76
 212.166015625 141.719726562 212.166015625 141.719726562 209.483398438 136.353515625 c 0,77,78
 206.352539062 130.092773438 206.352539062 130.092773438 212.166015625 124.94921875 c 128,-1,79
 217.98046875 119.806640625 217.98046875 119.806640625 222.004882812 123.383789062 c 0,64,65
243 71 m 1,80,-1
 174 140 l 1,81,-1
 335 301 l 1,82,-1
 174 462 l 1,83,-1
 243 531 l 1,84,-1
 404 370 l 1,85,-1
 565 531 l 1,86,-1
 634 462 l 1,87,-1
 473 301 l 1,88,-1
 634 140 l 1,89,-1
 565 71 l 1,90,-1
 404 232 l 1,91,-1
 243 71 l 1,80,-1
EndSplineSet
EndChar

StartChar: Y
Encoding: 89 89 65
Width: 808
Flags: W
LayerCount: 2
Fore
SplineSet
404.36328125 0 m 0,0,1
 378.36328125 0 378.36328125 0 364.86328125 16.5 c 128,-1,2
 351.36328125 33 351.36328125 33 351.36328125 52 c 2,3,-1
 351.36328125 191 l 2,4,5
 351.36328125 204 351.36328125 204 349.86328125 214.5 c 128,-1,6
 348.36328125 225 348.36328125 225 344.86328125 236 c 128,-1,7
 341.36328125 247 341.36328125 247 335.36328125 260.5 c 128,-1,8
 329.36328125 274 329.36328125 274 320.36328125 294 c 2,9,-1
 201.36328125 556 l 2,10,11
 198.36328125 563 198.36328125 563 200.86328125 573.5 c 128,-1,12
 203.36328125 584 203.36328125 584 210.86328125 593.5 c 128,-1,13
 218.36328125 603 218.36328125 603 230.36328125 609.5 c 128,-1,14
 242.36328125 616 242.36328125 616 258.36328125 616 c 0,15,16
 267.36328125 616 267.36328125 616 275.86328125 611.5 c 128,-1,17
 284.36328125 607 284.36328125 607 289.36328125 595 c 2,18,-1
 382.36328125 377 l 2,19,20
 387.36328125 366 387.36328125 366 393.86328125 354 c 128,-1,21
 400.36328125 342 400.36328125 342 406.36328125 342 c 256,22,23
 412.36328125 342 412.36328125 342 418.36328125 351.5 c 128,-1,24
 424.36328125 361 424.36328125 361 431.36328125 377 c 2,25,-1
 531.36328125 600 l 2,26,27
 536.36328125 611 536.36328125 611 546.36328125 613.5 c 128,-1,28
 556.36328125 616 556.36328125 616 563.36328125 616 c 0,29,30
 576.36328125 616 576.36328125 616 585.86328125 609 c 128,-1,31
 595.36328125 602 595.36328125 602 600.86328125 592 c 128,-1,32
 606.36328125 582 606.36328125 582 607.86328125 571 c 128,-1,33
 609.36328125 560 609.36328125 560 605.36328125 552 c 2,34,-1
 480.36328125 281 l 2,35,36
 473.36328125 266 473.36328125 266 469.36328125 255.5 c 128,-1,37
 465.36328125 245 465.36328125 245 463.86328125 234 c 128,-1,38
 462.36328125 223 462.36328125 223 461.86328125 209.5 c 128,-1,39
 461.36328125 196 461.36328125 196 461.36328125 174 c 2,40,-1
 461.36328125 52 l 2,41,42
 461.36328125 37 461.36328125 37 455.86328125 27 c 128,-1,43
 450.36328125 17 450.36328125 17 441.86328125 11 c 128,-1,44
 433.36328125 5 433.36328125 5 423.36328125 2.5 c 128,-1,45
 413.36328125 0 413.36328125 0 404.36328125 0 c 0,0,1
232.36328125 551 m 0,46,47
 230.36328125 559 230.36328125 559 230.86328125 564.5 c 128,-1,48
 231.36328125 570 231.36328125 570 230.36328125 575 c 256,49,50
 229.36328125 580 229.36328125 580 227.36328125 584 c 128,-1,51
 225.36328125 588 225.36328125 588 223.36328125 587 c 0,52,53
 212.36328125 582 212.36328125 582 213.86328125 568 c 128,-1,54
 215.36328125 554 215.36328125 554 218.36328125 546 c 0,55,56
 223.36328125 535 223.36328125 535 230.36328125 537 c 0,57,58
 234.36328125 539 234.36328125 539 234.36328125 543 c 128,-1,59
 234.36328125 547 234.36328125 547 232.36328125 551 c 0,46,47
388.36328125 33 m 0,60,61
 386.36328125 37 386.36328125 37 382.86328125 47 c 128,-1,62
 379.36328125 57 379.36328125 57 377.36328125 74 c 0,63,64
 376.36328125 97 376.36328125 97 372.36328125 97 c 0,65,66
 371.36328125 97 371.36328125 97 369.36328125 93.5 c 128,-1,67
 367.36328125 90 367.36328125 90 366.36328125 81 c 0,68,69
 364.36328125 49 364.36328125 49 371.86328125 35 c 128,-1,70
 379.36328125 21 379.36328125 21 388.36328125 21 c 0,71,72
 392.36328125 21 392.36328125 21 391.36328125 24.5 c 128,-1,73
 390.36328125 28 390.36328125 28 388.36328125 33 c 0,60,61
EndSplineSet

EndChar

StartChar: Z
Encoding: 90 90 66
Width: 808
Flags: W
LayerCount: 2
Fore
SplineSet
303.5 0 m 2,0,1
 292.5 0 292.5 0 280 2.5 c 128,-1,2
 267.5 5 267.5 5 257.5 11.5 c 128,-1,3
 247.5 18 247.5 18 241 28.5 c 128,-1,4
 234.5 39 234.5 39 234.5 55 c 0,5,6
 234.5 65 234.5 65 236 76 c 128,-1,7
 237.5 87 237.5 87 245.5 102 c 2,8,-1
 326.5 262 l 1,9,-1
 302.5 262 l 2,10,11
 287.5 262 287.5 262 279.5 273 c 128,-1,12
 271.5 284 271.5 284 271.5 301 c 256,13,14
 271.5 318 271.5 318 278 328 c 128,-1,15
 284.5 338 284.5 338 302.5 338 c 2,16,-1
 364.5 338 l 1,17,-1
 453.5 513 l 2,18,19
 456.5 519 456.5 519 456.5 525 c 0,20,21
 455.5 531 455.5 531 445.5 531 c 2,22,-1
 267.5 533 l 2,23,24
 254.5 533 254.5 533 246 543.5 c 128,-1,25
 237.5 554 237.5 554 237.5 569 c 0,26,27
 237.5 598 237.5 598 252 608 c 128,-1,28
 266.5 618 266.5 618 285.5 618 c 2,29,-1
 531.5 616 l 2,30,31
 543.5 616 543.5 616 551.5 609.5 c 128,-1,32
 559.5 603 559.5 603 564 593.5 c 128,-1,33
 568.5 584 568.5 584 570.5 572 c 128,-1,34
 572.5 560 572.5 560 572.5 548 c 0,35,36
 572.5 518 572.5 518 557.5 488 c 2,37,-1
 478.5 338 l 1,38,-1
 508.5 338 l 2,39,40
 526.5 338 526.5 338 534 329.5 c 128,-1,41
 541.5 321 541.5 321 541.5 307 c 0,42,43
 541.5 287 541.5 287 535 274.5 c 128,-1,44
 528.5 262 528.5 262 512.5 262 c 2,45,-1
 438.5 262 l 1,46,-1
 383.5 158 l 2,47,48
 371.5 135 371.5 135 365 121.5 c 128,-1,49
 358.5 108 358.5 108 358.5 100 c 0,50,51
 358.5 87 358.5 87 386.5 87 c 2,52,-1
 534.5 86 l 2,53,54
 554.5 86 554.5 86 564 72 c 128,-1,55
 573.5 58 573.5 58 573.5 35 c 0,56,57
 573.5 21 573.5 21 564 10.5 c 128,-1,58
 554.5 0 554.5 0 546.5 0 c 2,59,-1
 303.5 0 l 2,0,1
267.5 574 m 0,60,61
 269.5 578 269.5 578 273.5 585 c 128,-1,62
 277.5 592 277.5 592 276.5 595 c 0,63,64
 276.5 597 276.5 597 273 599.5 c 128,-1,65
 269.5 602 269.5 602 267.5 602 c 0,66,67
 256.5 600 256.5 600 253.5 586 c 128,-1,68
 250.5 572 250.5 572 252.5 560 c 0,69,70
 252.5 558 252.5 558 254.5 555 c 128,-1,71
 256.5 552 256.5 552 258.5 552 c 0,72,73
 262.5 553 262.5 553 264.5 562.5 c 128,-1,74
 266.5 572 266.5 572 267.5 574 c 0,60,61
294.5 306 m 0,75,76
 294.5 311 294.5 311 297.5 318.5 c 128,-1,77
 300.5 326 300.5 326 295.5 326 c 256,78,79
 290.5 326 290.5 326 285.5 318.5 c 128,-1,80
 280.5 311 280.5 311 280.5 300 c 0,81,82
 280.5 293 280.5 293 283 285.5 c 128,-1,83
 285.5 278 285.5 278 290.5 278 c 256,84,85
 295.5 278 295.5 278 295 287.5 c 128,-1,86
 294.5 297 294.5 297 294.5 306 c 0,75,76
260.5 49 m 0,87,88
 264.5 49 264.5 49 268.5 57.5 c 128,-1,89
 272.5 66 272.5 66 276.5 77.5 c 128,-1,90
 280.5 89 280.5 89 283 100.5 c 128,-1,91
 285.5 112 285.5 112 285.5 117 c 0,92,93
 285.5 121 285.5 121 281.5 121 c 0,94,95
 276.5 121 276.5 121 271.5 114 c 128,-1,96
 266.5 107 266.5 107 262 99 c 128,-1,97
 257.5 91 257.5 91 254.5 82.5 c 128,-1,98
 251.5 74 251.5 74 251.5 71 c 0,99,100
 250.5 63 250.5 63 253 56 c 128,-1,101
 255.5 49 255.5 49 260.5 49 c 0,87,88
275.5 27 m 0,102,103
 275.5 34 275.5 34 270.5 34 c 0,104,105
 261.5 34 261.5 34 261.5 25 c 0,106,107
 261.5 19 261.5 19 266.5 19 c 0,108,109
 269.5 19 269.5 19 272.5 21.5 c 128,-1,110
 275.5 24 275.5 24 275.5 27 c 0,102,103
EndSplineSet
EndChar

StartChar: a
Encoding: 97 97 67
Width: 808
Flags: W
LayerCount: 2
Fore
SplineSet
410 621 m 0,0,1
 442 621 442 621 463 611 c 128,-1,2
 484 601 484 601 492 587 c 0,3,4
 498 575 498 575 509.5 534 c 128,-1,5
 521 493 521 493 534.5 437 c 128,-1,6
 548 381 548 381 562.5 318 c 128,-1,7
 577 255 577 255 589 199 c 128,-1,8
 601 143 601 143 608.5 101.5 c 128,-1,9
 616 60 616 60 616 48 c 0,10,11
 616 28 616 28 595 12.5 c 128,-1,12
 574 -3 574 -3 550 -3 c 256,13,14
 526 -3 526 -3 517 11 c 0,15,16
 513 17 513 17 507 32 c 128,-1,17
 501 47 501 47 495 67 c 128,-1,18
 489 87 489 87 483.5 109 c 128,-1,19
 478 131 478 131 474 152 c 0,20,21
 470 172 470 172 462.5 176.5 c 128,-1,22
 455 181 455 181 445 181 c 0,23,24
 416 181 416 181 394 181.5 c 128,-1,25
 372 182 372 182 361 182 c 0,26,27
 341 182 341 182 331.5 177.5 c 128,-1,28
 322 173 322 173 319 162 c 2,29,-1
 293 62 l 2,30,31
 285 33 285 33 267.5 15.5 c 128,-1,32
 250 -2 250 -2 228 -2 c 0,33,34
 192 -2 192 -2 192 48 c 0,35,36
 192 65 192 65 196 95.5 c 128,-1,37
 200 126 200 126 206.5 164.5 c 128,-1,38
 213 203 213 203 222.5 246.5 c 128,-1,39
 232 290 232 290 242.5 334.5 c 128,-1,40
 253 379 253 379 264 421 c 128,-1,41
 275 463 275 463 286 497 c 0,42,43
 298 535 298 535 310.5 559 c 128,-1,44
 323 583 323 583 337 597 c 128,-1,45
 351 611 351 611 368.5 616 c 128,-1,46
 386 621 386 621 410 621 c 0,0,1
349 561 m 0,47,48
 360 574 360 574 369 585.5 c 128,-1,49
 378 597 378 597 371 598 c 0,50,51
 355 601 355 601 339 579 c 0,52,53
 328 562 328 562 323 543 c 128,-1,54
 318 524 318 524 326 522 c 0,55,56
 328 522 328 522 330 525.5 c 128,-1,57
 332 529 332 529 334 535 c 128,-1,58
 336 541 336 541 339.5 548 c 128,-1,59
 343 555 343 555 349 561 c 0,47,48
365 377 m 0,60,61
 354 320 354 320 350.5 298.5 c 128,-1,62
 347 277 347 277 356 277 c 2,63,-1
 444 277 l 2,64,65
 452 277 452 277 448 296.5 c 128,-1,66
 444 316 444 316 436 357 c 0,67,68
 434 368 434 368 431 393.5 c 128,-1,69
 428 419 428 419 423.5 445 c 128,-1,70
 419 471 419 471 414 491.5 c 128,-1,71
 409 512 409 512 403 512 c 0,72,73
 398 512 398 512 392 494 c 128,-1,74
 386 476 386 476 380.5 452.5 c 128,-1,75
 375 429 375 429 371 407 c 128,-1,76
 367 385 367 385 365 377 c 0,60,61
224 63 m 0,77,78
 226 75 226 75 224 82 c 128,-1,79
 222 89 222 89 218 90 c 0,80,81
 216 90 216 90 213.5 87.5 c 128,-1,82
 211 85 211 85 209 77 c 0,83,84
 205 57 205 57 208 38.5 c 128,-1,85
 211 20 211 20 219 18 c 0,86,87
 229 16 229 16 223 33 c 0,88,89
 221 39 221 39 221.5 46.5 c 128,-1,90
 222 54 222 54 224 63 c 0,77,78
529 64 m 0,91,92
 522 78 522 78 520 83 c 128,-1,93
 518 88 518 88 516 88 c 0,94,95
 513 88 513 88 511 78 c 0,96,97
 511 74 511 74 513.5 63.5 c 128,-1,98
 516 53 516 53 520 42.5 c 128,-1,99
 524 32 524 32 529.5 24 c 128,-1,100
 535 16 535 16 540 16 c 0,101,102
 543 16 543 16 543 21 c 128,-1,103
 543 26 543 26 540.5 34 c 128,-1,104
 538 42 538 42 535 50 c 128,-1,105
 532 58 532 58 529 64 c 0,91,92
EndSplineSet
EndChar

StartChar: b
Encoding: 98 98 68
Width: 808
Flags: W
LayerCount: 2
Fore
SplineSet
252 151 m 0,0,1
 197 151 197 151 154.5 175.5 c 128,-1,2
 112 200 112 200 87.5 246 c 128,-1,3
 63 292 63 292 63 354 c 0,4,5
 63 447 63 447 119 509.5 c 128,-1,6
 175 572 175 572 278 603 c 1,7,-1
 301 531 l 1,8,9
 213 503 213 503 179 457 c 128,-1,10
 145 411 145 411 145 353 c 0,11,12
 145 305 145 305 161 276.5 c 128,-1,13
 177 248 177 248 202 235.5 c 128,-1,14
 227 223 227 223 253 223 c 0,15,16
 281 223 281 223 300.5 232 c 128,-1,17
 320 241 320 241 333 258 c 256,18,19
 346 275 346 275 351 299 c 128,-1,20
 356 323 356 323 356 369 c 2,21,-1
 356 447 l 1,22,-1
 436 437 l 1,23,-1
 436 335 l 2,24,25
 436 256 436 256 391.5 203.5 c 128,-1,26
 347 151 347 151 252 151 c 0,0,1
494 228 m 0,27,28
 454 228 454 228 421.5 250 c 128,-1,29
 389 272 389 272 368 333 c 1,30,-1
 423 357 l 1,31,32
 433 325 433 325 451 312.5 c 128,-1,33
 469 300 469 300 494 300 c 0,34,35
 530 300 530 300 556 318.5 c 128,-1,36
 582 337 582 337 604 371 c 1,37,-1
 621 291 l 1,38,39
 595 261 595 261 567 244.5 c 128,-1,40
 539 228 539 228 494 228 c 0,27,28
727 0 m 2,41,42
 692 0 692 0 661.5 7.5 c 128,-1,43
 631 15 631 15 610 37 c 0,44,45
 591 57 591 57 585 81.5 c 128,-1,46
 579 106 579 106 579 148 c 2,47,-1
 579 603 l 1,48,-1
 659 592 l 1,49,-1
 659 152 l 2,50,51
 659 125 659 125 662 112.5 c 128,-1,52
 665 100 665 100 671 92 c 0,53,54
 682 78 682 78 703 75.5 c 128,-1,55
 724 73 724 73 745 73 c 1,56,-1
 737 0 l 1,57,-1
 727 0 l 2,41,42
EndSplineSet
EndChar

StartChar: c
Encoding: 99 99 69
Width: 808
Flags: W
LayerCount: 2
Fore
SplineSet
513 17 m 0,0,1
 395 17 395 17 330 84 c 128,-1,2
 265 151 265 151 265 272 c 0,3,4
 265 352 265 352 294 407.5 c 128,-1,5
 323 463 323 463 377 492 c 1,6,-1
 149 492 l 1,7,-1
 149 564 l 1,8,-1
 659 564 l 1,9,-1
 659 492 l 1,10,-1
 557 492 l 2,11,12
 463 492 463 492 409.5 438.5 c 128,-1,13
 356 385 356 385 356 279 c 0,14,15
 356 192 356 192 399 141.5 c 128,-1,16
 442 91 442 91 522 91 c 0,17,18
 559 91 559 91 593 100.5 c 128,-1,19
 627 110 627 110 659 126 c 1,20,-1
 659 48 l 1,21,22
 630 32 630 32 595 24.5 c 128,-1,23
 560 17 560 17 513 17 c 0,0,1
EndSplineSet
EndChar

StartChar: d
Encoding: 100 100 70
Width: 808
Flags: W
LayerCount: 2
Fore
SplineSet
532 674 m 0,0,1
 552 674 552 674 569 659 c 128,-1,2
 586 644 586 644 586 548 c 2,3,-1
 586 91 l 2,4,5
 586 70 586 70 577.5 53 c 128,-1,6
 569 36 569 36 554.5 24.5 c 128,-1,7
 540 13 540 13 521.5 7 c 128,-1,8
 503 1 503 1 483 1 c 2,9,-1
 424 1 l 2,10,11
 393 1 393 1 357.5 13 c 128,-1,12
 322 25 322 25 292 51 c 128,-1,13
 262 77 262 77 242 119 c 128,-1,14
 222 161 222 161 222 220 c 256,15,16
 222 279 222 279 241.5 325.5 c 128,-1,17
 261 372 261 372 290 403.5 c 128,-1,18
 319 435 319 435 353 451.5 c 128,-1,19
 387 468 387 468 417 468 c 2,20,-1
 446 468 l 2,21,22
 455 468 455 468 463.5 472 c 128,-1,23
 472 476 472 476 472 485 c 2,24,-1
 472 609 l 2,25,26
 472 627 472 627 477.5 639 c 128,-1,27
 483 651 483 651 492 659 c 128,-1,28
 501 667 501 667 511.5 670.5 c 128,-1,29
 522 674 522 674 532 674 c 0,0,1
428 379 m 2,30,31
 411 379 411 379 395 371 c 128,-1,32
 379 363 379 363 365.5 345.5 c 128,-1,33
 352 328 352 328 344 300 c 128,-1,34
 336 272 336 272 336 232 c 0,35,36
 336 189 336 189 344 160.5 c 128,-1,37
 352 132 352 132 365 115.5 c 128,-1,38
 378 99 378 99 394 92 c 128,-1,39
 410 85 410 85 425 85 c 2,40,-1
 447 85 l 2,41,42
 472 85 472 85 472 119 c 2,43,-1
 472 356 l 2,44,45
 472 379 472 379 441 379 c 2,46,-1
 428 379 l 2,30,31
546 639 m 256,47,48
 551 634 551 634 554.5 621 c 128,-1,49
 558 608 558 608 558 537 c 0,50,51
 558 512 558 512 565 512 c 0,52,53
 570 512 570 512 571.5 520.5 c 128,-1,54
 573 529 573 529 573 541 c 0,55,56
 573 622 573 622 566 638 c 128,-1,57
 559 654 559 654 549 654 c 0,58,59
 547 654 547 654 544 652 c 128,-1,60
 541 650 541 650 541 648 c 0,61,62
 541 644 541 644 546 639 c 256,47,48
EndSplineSet
EndChar

StartChar: e
Encoding: 101 101 71
Width: 808
Flags: W
LayerCount: 2
Fore
SplineSet
420.83984375 -10 m 0,0,1
 375.83984375 -10 375.83984375 -10 339.33984375 11.5 c 128,-1,2
 302.83984375 33 302.83984375 33 276.83984375 73 c 128,-1,3
 250.83984375 113 250.83984375 113 236.33984375 168.5 c 128,-1,4
 221.83984375 224 221.83984375 224 221.83984375 292 c 0,5,6
 221.83984375 364 221.83984375 364 237.83984375 424.5 c 128,-1,7
 253.83984375 485 253.83984375 485 282.33984375 529.5 c 128,-1,8
 310.83984375 574 310.83984375 574 350.33984375 598.5 c 128,-1,9
 389.83984375 623 389.83984375 623 435.83984375 623 c 0,10,11
 469.83984375 623 469.83984375 623 498.33984375 610 c 128,-1,12
 526.83984375 597 526.83984375 597 546.83984375 573.5 c 128,-1,13
 566.83984375 550 566.83984375 550 577.33984375 518.5 c 128,-1,14
 587.83984375 487 587.83984375 487 585.83984375 450 c 0,15,16
 583.83984375 407 583.83984375 407 565.83984375 366.5 c 128,-1,17
 547.83984375 326 547.83984375 326 517.83984375 295 c 128,-1,18
 487.83984375 264 487.83984375 264 448.33984375 245.5 c 128,-1,19
 408.83984375 227 408.83984375 227 363.83984375 227 c 0,20,21
 346.83984375 227 346.83984375 227 346.83984375 213 c 0,22,23
 346.83984375 149 346.83984375 149 369.33984375 118.5 c 128,-1,24
 391.83984375 88 391.83984375 88 426.83984375 88 c 0,25,26
 452.83984375 88 452.83984375 88 470.33984375 107 c 128,-1,27
 487.83984375 126 487.83984375 126 487.83984375 155 c 0,28,29
 487.83984375 179 487.83984375 179 500.83984375 193.5 c 128,-1,30
 513.83984375 208 513.83984375 208 533.83984375 208 c 0,31,32
 556.83984375 208 556.83984375 208 570.33984375 189.5 c 128,-1,33
 583.83984375 171 583.83984375 171 583.83984375 139 c 0,34,35
 583.83984375 109 583.83984375 109 570.83984375 81.5 c 128,-1,36
 557.83984375 54 557.83984375 54 535.83984375 34 c 128,-1,37
 513.83984375 14 513.83984375 14 483.83984375 2 c 128,-1,38
 453.83984375 -10 453.83984375 -10 420.83984375 -10 c 0,0,1
290.83984375 477 m 0,39,40
 293.83984375 477 293.83984375 477 303.33984375 491.5 c 128,-1,41
 312.83984375 506 312.83984375 506 325.83984375 523.5 c 128,-1,42
 338.83984375 541 338.83984375 541 353.83984375 556.5 c 128,-1,43
 368.83984375 572 368.83984375 572 383.83984375 573 c 0,44,45
 388.83984375 574 388.83984375 574 393.33984375 576.5 c 128,-1,46
 397.83984375 579 397.83984375 579 396.83984375 582 c 0,47,48
 396.83984375 592 396.83984375 592 383.83984375 590 c 0,49,50
 366.83984375 589 366.83984375 589 349.33984375 576 c 128,-1,51
 331.83984375 563 331.83984375 563 317.33984375 545.5 c 128,-1,52
 302.83984375 528 302.83984375 528 293.83984375 510 c 128,-1,53
 284.83984375 492 284.83984375 492 285.83984375 481 c 0,54,55
 287.83984375 474 287.83984375 474 290.83984375 477 c 0,39,40
343.83984375 315 m 0,56,57
 346.83984375 311 346.83984375 311 357.83984375 311 c 0,58,59
 383.83984375 311 383.83984375 311 407.83984375 324 c 128,-1,60
 431.83984375 337 431.83984375 337 449.83984375 357 c 128,-1,61
 467.83984375 377 467.83984375 377 478.83984375 403 c 128,-1,62
 489.83984375 429 489.83984375 429 489.83984375 454 c 0,63,64
 489.83984375 486 489.83984375 486 474.33984375 507 c 128,-1,65
 458.83984375 528 458.83984375 528 435.83984375 528 c 0,66,67
 418.83984375 528 418.83984375 528 404.33984375 513.5 c 128,-1,68
 389.83984375 499 389.83984375 499 378.33984375 477.5 c 128,-1,69
 366.83984375 456 366.83984375 456 358.83984375 429.5 c 128,-1,70
 350.83984375 403 350.83984375 403 346.33984375 379.5 c 128,-1,71
 341.83984375 356 341.83984375 356 340.83984375 338 c 128,-1,72
 339.83984375 320 339.83984375 320 343.83984375 315 c 0,56,57
277.83984375 467 m 0,73,74
 272.83984375 466 272.83984375 466 269.83984375 459.5 c 128,-1,75
 266.83984375 453 266.83984375 453 267.83984375 445 c 0,76,77
 269.83984375 436 269.83984375 436 271.83984375 437 c 0,78,79
 276.83984375 437 276.83984375 437 280.83984375 446 c 128,-1,80
 284.83984375 455 284.83984375 455 282.83984375 462 c 0,81,82
 280.83984375 468 280.83984375 468 277.83984375 467 c 0,73,74
EndSplineSet
EndChar

StartChar: f
Encoding: 102 102 72
Width: 808
Flags: W
LayerCount: 2
Fore
SplineSet
516 -178 m 2,0,1
 450 -178 450 -178 403 -148 c 128,-1,2
 356 -118 356 -118 321 -69 c 128,-1,3
 286 -20 286 -20 254 38 c 1,4,-1
 233 109 l 1,5,6
 262 93 262 93 285 82.5 c 128,-1,7
 308 72 308 72 333 66.5 c 128,-1,8
 358 61 358 61 394 61 c 0,9,10
 451 61 451 61 479.5 83 c 128,-1,11
 508 105 508 105 508 144 c 0,12,13
 508 163 508 163 498.5 184 c 128,-1,14
 489 205 489 205 462 230 c 128,-1,15
 435 255 435 255 383 285 c 1,16,-1
 356 306 l 2,17,18
 321 329 321 329 294.5 351.5 c 128,-1,19
 268 374 268 374 254 401 c 128,-1,20
 240 428 240 428 240 462 c 0,21,22
 240 524 240 524 287.5 563.5 c 128,-1,23
 335 603 335 603 414 603 c 0,24,25
 446 603 446 603 475 599.5 c 128,-1,26
 504 596 504 596 531 589 c 1,27,-1
 516 517 l 1,28,29
 490 523 490 523 469.5 526 c 128,-1,30
 449 529 449 529 423 529 c 0,31,32
 372 529 372 529 347 509 c 128,-1,33
 322 489 322 489 322 455 c 0,34,35
 322 437 322 437 332 419 c 128,-1,36
 342 401 342 401 364 383.5 c 128,-1,37
 386 366 386 366 422 347 c 1,38,-1
 450 322 l 1,39,40
 496 296 496 296 527 269 c 128,-1,41
 558 242 558 242 574 211 c 128,-1,42
 590 180 590 180 590 142 c 0,43,44
 590 105 590 105 571.5 70 c 128,-1,45
 553 35 553 35 510.5 12.5 c 128,-1,46
 468 -10 468 -10 396 -10 c 0,47,48
 371 -10 371 -10 342 -8 c 128,-1,49
 313 -6 313 -6 290 -4 c 0,50,51
 243 0 243 0 219.5 13.5 c 128,-1,52
 196 27 196 27 188 43.5 c 128,-1,53
 180 60 180 60 180 73 c 0,54,55
 180 96 180 96 195.5 109 c 128,-1,56
 211 122 211 122 233 122 c 0,57,58
 253 122 253 122 270.5 114 c 128,-1,59
 288 106 288 106 304.5 91.5 c 128,-1,60
 321 77 321 77 337 56 c 1,61,-1
 325 48 l 1,62,63
 359 -7 359 -7 388 -40.5 c 128,-1,64
 417 -74 417 -74 447 -88.5 c 128,-1,65
 477 -103 477 -103 515 -103 c 2,66,-1
 541 -103 l 1,67,-1
 532 -178 l 1,68,-1
 516 -178 l 2,0,1
202 211 m 1,69,-1
 175 282 l 1,70,-1
 366 350 l 1,71,-1
 601 438 l 1,72,-1
 633 368 l 1,73,-1
 426 297 l 1,74,-1
 202 211 l 1,69,-1
EndSplineSet
EndChar

StartChar: g
Encoding: 103 103 73
Width: 808
Flags: W
LayerCount: 2
Fore
SplineSet
423.5 -5 m 0,0,1
 356.5 -5 356.5 -5 312.5 28 c 128,-1,2
 268.5 61 268.5 61 242.5 111 c 128,-1,3
 216.5 161 216.5 161 206.5 219 c 128,-1,4
 196.5 277 196.5 277 196.5 328 c 0,5,6
 196.5 384 196.5 384 208 437.5 c 128,-1,7
 219.5 491 219.5 491 246.5 532.5 c 128,-1,8
 273.5 574 273.5 574 317 599.5 c 128,-1,9
 360.5 625 360.5 625 424.5 625 c 0,10,11
 455.5 625 455.5 625 484 616.5 c 128,-1,12
 512.5 608 512.5 608 534.5 589.5 c 128,-1,13
 556.5 571 556.5 571 569.5 540.5 c 128,-1,14
 582.5 510 582.5 510 582.5 466 c 0,15,16
 582.5 450 582.5 450 576 440.5 c 128,-1,17
 569.5 431 569.5 431 560 425.5 c 128,-1,18
 550.5 420 550.5 420 540.5 418.5 c 128,-1,19
 530.5 417 530.5 417 524.5 417 c 0,20,21
 510.5 417 510.5 417 498 427 c 128,-1,22
 485.5 437 485.5 437 485.5 466 c 0,23,24
 485.5 511 485.5 511 465 529 c 128,-1,25
 444.5 547 444.5 547 415.5 547 c 0,26,27
 395.5 547 395.5 547 377 530.5 c 128,-1,28
 358.5 514 358.5 514 344.5 483.5 c 128,-1,29
 330.5 453 330.5 453 322.5 410 c 128,-1,30
 314.5 367 314.5 367 314.5 314 c 0,31,32
 314.5 285 314.5 285 318 245 c 128,-1,33
 321.5 205 321.5 205 333.5 169 c 128,-1,34
 345.5 133 345.5 133 367.5 107.5 c 128,-1,35
 389.5 82 389.5 82 425.5 82 c 0,36,37
 454.5 82 454.5 82 471 96.5 c 128,-1,38
 487.5 111 487.5 111 495 132 c 128,-1,39
 502.5 153 502.5 153 504 175.5 c 128,-1,40
 505.5 198 505.5 198 504.5 214 c 256,41,42
 503.5 230 503.5 230 491 231.5 c 128,-1,43
 478.5 233 478.5 233 455.5 233 c 2,44,-1
 404.5 233 l 2,45,46
 398.5 233 398.5 233 393.5 239 c 128,-1,47
 388.5 245 388.5 245 385.5 253.5 c 128,-1,48
 382.5 262 382.5 262 380.5 271 c 128,-1,49
 378.5 280 378.5 280 378.5 286 c 0,50,51
 378.5 302 378.5 302 389 314.5 c 128,-1,52
 399.5 327 399.5 327 422.5 327 c 2,53,-1
 530.5 326 l 2,54,55
 561.5 326 561.5 326 586.5 306 c 128,-1,56
 611.5 286 611.5 286 611.5 249 c 0,57,58
 611.5 206 611.5 206 602 161 c 128,-1,59
 592.5 116 592.5 116 570.5 79 c 128,-1,60
 548.5 42 548.5 42 512.5 18.5 c 128,-1,61
 476.5 -5 476.5 -5 423.5 -5 c 0,0,1
328.5 58 m 0,62,63
 328.5 62 328.5 62 308.5 84 c 0,64,65
 299.5 93 299.5 93 290.5 106.5 c 128,-1,66
 281.5 120 281.5 120 274 133 c 128,-1,67
 266.5 146 266.5 146 262 157.5 c 128,-1,68
 257.5 169 257.5 169 257.5 173 c 0,69,70
 257.5 178 257.5 178 254.5 179.5 c 128,-1,71
 251.5 181 251.5 181 250.5 181 c 0,72,73
 242.5 181 242.5 181 242.5 170 c 256,74,75
 242.5 159 242.5 159 251.5 139 c 128,-1,76
 260.5 119 260.5 119 273 99.5 c 128,-1,77
 285.5 80 285.5 80 299 66 c 128,-1,78
 312.5 52 312.5 52 322.5 52 c 0,79,80
 328.5 52 328.5 52 328.5 58 c 0,62,63
351.5 45 m 0,81,82
 351.5 52 351.5 52 344.5 52 c 0,83,84
 340.5 52 340.5 52 339 49 c 128,-1,85
 337.5 46 337.5 46 337.5 44 c 0,86,87
 337.5 39 337.5 39 340 38 c 128,-1,88
 342.5 37 342.5 37 344.5 37 c 0,89,90
 351.5 37 351.5 37 351.5 45 c 0,81,82
EndSplineSet
EndChar

StartChar: h
Encoding: 104 104 74
Width: 808
Flags: W
LayerCount: 2
Fore
SplineSet
276.509765625 0 m 0,0,1
 251.509765625 0 251.509765625 0 241.509765625 14.5 c 128,-1,2
 231.509765625 29 231.509765625 29 231.509765625 65 c 2,3,-1
 231.509765625 343 l 2,4,5
 231.509765625 434 231.509765625 434 229.509765625 518 c 0,6,7
 228.509765625 616 228.509765625 616 279.509765625 616 c 0,8,9
 298.509765625 616 298.509765625 616 316.509765625 606.5 c 128,-1,10
 334.509765625 597 334.509765625 597 334.509765625 571 c 2,11,-1
 334.509765625 358 l 2,12,13
 334.509765625 318 334.509765625 318 338.509765625 318 c 256,14,15
 342.509765625 318 342.509765625 318 347.509765625 334 c 128,-1,16
 352.509765625 350 352.509765625 350 364.509765625 369.5 c 128,-1,17
 376.509765625 389 376.509765625 389 398.509765625 405 c 128,-1,18
 420.509765625 421 420.509765625 421 456.509765625 421 c 0,19,20
 520.509765625 421 520.509765625 421 549.509765625 358 c 128,-1,21
 578.509765625 295 578.509765625 295 578.509765625 157 c 2,22,-1
 578.509765625 31 l 2,23,24
 578.509765625 0 578.509765625 0 522.509765625 0 c 0,25,26
 495.509765625 0 495.509765625 0 483.509765625 11.5 c 128,-1,27
 471.509765625 23 471.509765625 23 471.509765625 34 c 2,28,-1
 471.509765625 148 l 2,29,30
 471.509765625 200 471.509765625 200 468.509765625 232 c 128,-1,31
 465.509765625 264 465.509765625 264 459.509765625 282 c 128,-1,32
 453.509765625 300 453.509765625 300 444.009765625 306.5 c 128,-1,33
 434.509765625 313 434.509765625 313 420.509765625 313 c 0,34,35
 399.509765625 313 399.509765625 313 384.009765625 293.5 c 128,-1,36
 368.509765625 274 368.509765625 274 358.509765625 241 c 128,-1,37
 348.509765625 208 348.509765625 208 344.009765625 163.5 c 0,38,39
 339.509765625 123 339.509765625 123 339.509765625 121 c 2,40,-1
 339.509765625 45 l 2,41,42
 339.509765625 30 339.509765625 30 332.009765625 21 c 128,-1,43
 324.509765625 12 324.509765625 12 314.509765625 7.5 c 128,-1,44
 304.509765625 3 304.509765625 3 294.009765625 1.5 c 128,-1,45
 283.509765625 0 283.509765625 0 276.509765625 0 c 0,0,1
251.509765625 316 m 0,46,47
 254.509765625 316 254.509765625 316 256.509765625 328 c 128,-1,48
 258.509765625 340 258.509765625 340 260.509765625 355 c 128,-1,49
 262.509765625 370 262.509765625 370 263.509765625 482 c 128,-1,50
 264.509765625 594 264.509765625 594 264.509765625 595 c 0,51,52
 264.509765625 597 264.509765625 597 264.009765625 600 c 128,-1,53
 263.509765625 603 263.509765625 603 261.509765625 603 c 0,54,55
 256.509765625 603 256.509765625 603 253.009765625 595.5 c 128,-1,56
 249.509765625 588 249.509765625 588 247.509765625 479 c 128,-1,57
 245.509765625 370 245.509765625 370 244.509765625 360.5 c 128,-1,58
 243.509765625 351 243.509765625 351 243.509765625 348 c 0,59,60
 243.509765625 340 243.509765625 340 245.509765625 328 c 128,-1,61
 247.509765625 316 247.509765625 316 251.509765625 316 c 0,46,47
508.509765625 29 m 0,62,63
 508.509765625 35 508.509765625 35 506.509765625 38 c 128,-1,64
 504.509765625 41 504.509765625 41 502.009765625 43 c 128,-1,65
 499.509765625 45 499.509765625 45 497.509765625 49 c 128,-1,66
 495.509765625 53 495.509765625 53 495.509765625 60 c 0,67,68
 495.509765625 76 495.509765625 76 494.009765625 80 c 128,-1,69
 492.509765625 84 492.509765625 84 487.509765625 84 c 256,70,71
 482.509765625 84 482.509765625 84 481.009765625 76.5 c 128,-1,72
 479.509765625 69 479.509765625 69 479.509765625 59 c 0,73,74
 479.509765625 39 479.509765625 39 485.509765625 27 c 128,-1,75
 491.509765625 15 491.509765625 15 499.509765625 15 c 0,76,77
 502.509765625 15 502.509765625 15 505.509765625 18.5 c 128,-1,78
 508.509765625 22 508.509765625 22 508.509765625 29 c 0,62,63
275.509765625 26 m 0,79,80
 275.509765625 31 275.509765625 31 273.009765625 33.5 c 128,-1,81
 270.509765625 36 270.509765625 36 267.509765625 38.5 c 128,-1,82
 264.509765625 41 264.509765625 41 262.009765625 45 c 128,-1,83
 259.509765625 49 259.509765625 49 259.509765625 56 c 0,84,85
 259.509765625 77 259.509765625 77 252.509765625 77 c 0,86,87
 250.509765625 77 250.509765625 77 248.509765625 69.5 c 128,-1,88
 246.509765625 62 246.509765625 62 246.509765625 51 c 0,89,90
 246.509765625 36 246.509765625 36 253.009765625 24 c 128,-1,91
 259.509765625 12 259.509765625 12 267.509765625 12 c 0,92,93
 269.509765625 12 269.509765625 12 272.509765625 16 c 128,-1,94
 275.509765625 20 275.509765625 20 275.509765625 26 c 0,79,80
EndSplineSet
EndChar

StartChar: i
Encoding: 105 105 75
Width: 808
Flags: W
LayerCount: 2
Fore
SplineSet
395.674804688 -4 m 256,0,1
 371.674804688 -4 371.674804688 -4 358.674804688 6.5 c 128,-1,2
 345.674804688 17 345.674804688 17 345.674804688 32 c 2,3,-1
 345.674804688 387 l 2,4,5
 345.674804688 396 345.674804688 396 348.174804688 408 c 128,-1,6
 350.674804688 420 350.674804688 420 356.174804688 430 c 128,-1,7
 361.674804688 440 361.674804688 440 371.174804688 447 c 128,-1,8
 380.674804688 454 380.674804688 454 395.674804688 454 c 256,9,10
 410.674804688 454 410.674804688 454 421.174804688 448 c 128,-1,11
 431.674804688 442 431.674804688 442 438.174804688 433 c 128,-1,12
 444.674804688 424 444.674804688 424 448.174804688 413 c 128,-1,13
 451.674804688 402 451.674804688 402 451.674804688 392 c 2,14,-1
 451.674804688 32 l 2,15,16
 451.674804688 16 451.674804688 16 435.674804688 6 c 128,-1,17
 419.674804688 -4 419.674804688 -4 395.674804688 -4 c 256,0,1
363.674804688 357 m 0,18,19
 366.674804688 357 366.674804688 357 367.674804688 363 c 128,-1,20
 368.674804688 369 368.674804688 369 368.674804688 377.5 c 128,-1,21
 368.674804688 386 368.674804688 386 369.174804688 395.5 c 128,-1,22
 369.674804688 405 369.674804688 405 371.674804688 411 c 0,23,24
 372.674804688 415 372.674804688 415 374.674804688 422 c 128,-1,25
 376.674804688 429 376.674804688 429 373.674804688 429 c 0,26,27
 368.674804688 429 368.674804688 429 365.174804688 423.5 c 128,-1,28
 361.674804688 418 361.674804688 418 359.174804688 410.5 c 128,-1,29
 356.674804688 403 356.674804688 403 355.674804688 395.5 c 128,-1,30
 354.674804688 388 354.674804688 388 354.674804688 383 c 0,31,32
 354.674804688 374 354.674804688 374 356.674804688 365.5 c 128,-1,33
 358.674804688 357 358.674804688 357 363.674804688 357 c 0,18,19
399.141601562 523.2265625 m 4,34,35
 363.674804688 523 363.674804688 523 338.676757812 552.055664062 c 132,-1,36
 313.674804688 581 313.674804688 581 313.51953125 626.186523438 c 4,37,38
 313.674804688 651 313.674804688 651 321.022460938 673.033203125 c 4,39,40
 328.674804688 695 328.674804688 695 341.765625 711.12890625 c 4,41,42
 354.674804688 727 354.674804688 727 373.54296875 736.868164062 c 4,43,44
 391.674804688 747 391.674804688 747 414.147460938 746.649414062 c 4,45,46
 431.674804688 747 431.674804688 747 446.806640625 737.8984375 c 4,47,48
 461.674804688 729 461.674804688 729 472.40625 713.702148438 c 4,49,50
 482.674804688 698 482.674804688 698 488.735351562 678.696289062 c 4,51,52
 494.674804688 659 494.674804688 659 494.473632812 637.51171875 c 4,53,54
 494.674804688 610 494.674804688 610 486.969726562 588.606445312 c 4,55,56
 479.674804688 567 479.674804688 567 466.2265625 553.083984375 c 132,-1,57
 452.674804688 539 452.674804688 539 435.7734375 530.948242188 c 4,58,59
 417.674804688 523 417.674804688 523 399.141601562 523.2265625 c 4,34,35
366.481445312 701.34765625 m 4,60,61
 372.674804688 709 372.674804688 709 373.984375 713.702148438 c 4,62,63
 375.674804688 719 375.674804688 719 373.54296875 718.850585938 c 4,64,65
 366.674804688 719 366.674804688 719 358.537109375 711.12890625 c 4,66,67
 350.674804688 703 350.674804688 703 343.97265625 692.595703125 c 4,68,69
 337.674804688 682 337.674804688 682 332.939453125 669.4296875 c 4,70,71
 327.674804688 654 327.674804688 654 328.525390625 646.778320312 c 4,72,73
 328.674804688 645 328.674804688 645 329.848632812 638.541015625 c 4,74,75
 330.674804688 632 330.674804688 632 333.822265625 632.36328125 c 4,76,77
 337.674804688 633 337.674804688 633 342.6484375 655.015625 c 4,78,79
 345.674804688 669 345.674804688 669 352.358398438 681.26953125 c 4,80,81
 358.674804688 693 358.674804688 693 366.481445312 701.34765625 c 4,60,61
402.671875 581.913085938 m 4,82,83
 413.674804688 582 413.674804688 582 427.829101562 596.328125 c 4,84,85
 442.674804688 611 442.674804688 611 442.393554688 637.51171875 c 4,86,87
 442.674804688 658 442.674804688 658 433.125976562 672.002929688 c 132,-1,88
 423.674804688 686 423.674804688 686 408.850585938 685.903320312 c 260,89,90
 393.674804688 686 393.674804688 686 381.487304688 672.002929688 c 4,91,92
 368.674804688 657 368.674804688 657 369.12890625 633.393554688 c 260,93,94
 369.674804688 609 369.674804688 609 378.838867188 595.298828125 c 4,95,96
 388.674804688 582 388.674804688 582 402.671875 581.913085938 c 4,82,83
EndSplineSet


EndChar

StartChar: j
Encoding: 106 106 76
Width: 808
Flags: W
LayerCount: 2
Fore
SplineSet
440 559 m 256,0,1
 414 559 414 559 398 574.5 c 128,-1,2
 382 590 382 590 382 616 c 0,3,4
 382 643 382 643 398.5 660 c 128,-1,5
 415 677 415 677 442 677 c 256,6,7
 469 677 469 677 486 661.5 c 128,-1,8
 503 646 503 646 503 621 c 0,9,10
 503 595 503 595 484.5 577 c 128,-1,11
 466 559 466 559 440 559 c 256,0,1
408 618 m 0,12,13
 410 627 410 627 413.5 631.5 c 128,-1,14
 417 636 417 636 421 638.5 c 128,-1,15
 425 641 425 641 428 643.5 c 128,-1,16
 431 646 431 646 431 650 c 0,17,18
 431 660 431 660 421 660 c 0,19,20
 409 660 409 660 401 646.5 c 128,-1,21
 393 633 393 633 393 618 c 0,22,23
 393 611 393 611 394.5 601.5 c 128,-1,24
 396 592 396 592 402 592 c 0,25,26
 407 592 407 592 407 603.5 c 128,-1,27
 407 615 407 615 408 618 c 0,12,13
495 82 m 2,28,29
 495 35 495 35 488.5 -3.5 c 128,-1,30
 482 -42 482 -42 467 -69.5 c 128,-1,31
 452 -97 452 -97 426.5 -112 c 128,-1,32
 401 -127 401 -127 362 -127 c 0,33,34
 331 -127 331 -127 318 -113.5 c 128,-1,35
 305 -100 305 -100 305 -72 c 0,36,37
 305 -56 305 -56 310 -38.5 c 128,-1,38
 315 -21 315 -21 329 -21 c 0,39,40
 336 -21 336 -21 342.5 -23.5 c 128,-1,41
 349 -26 349 -26 357 -26 c 0,42,43
 373 -26 373 -26 381 -3 c 128,-1,44
 389 20 389 20 389 82 c 2,45,-1
 389 439 l 2,46,47
 389 448 389 448 391.5 460 c 128,-1,48
 394 472 394 472 399.5 482 c 128,-1,49
 405 492 405 492 414.5 499 c 128,-1,50
 424 506 424 506 439 506 c 256,51,52
 454 506 454 506 464.5 500 c 128,-1,53
 475 494 475 494 481.5 485 c 128,-1,54
 488 476 488 476 491.5 465 c 128,-1,55
 495 454 495 454 495 444 c 2,56,-1
 495 82 l 2,28,29
407 409 m 0,57,58
 410 409 410 409 411 415 c 128,-1,59
 412 421 412 421 412 429.5 c 128,-1,60
 412 438 412 438 412.5 447.5 c 128,-1,61
 413 457 413 457 415 463 c 0,62,63
 416 467 416 467 418 474 c 128,-1,64
 420 481 420 481 417 481 c 0,65,66
 412 481 412 481 408.5 475.5 c 128,-1,67
 405 470 405 470 402.5 462.5 c 128,-1,68
 400 455 400 455 399 447.5 c 128,-1,69
 398 440 398 440 398 435 c 0,70,71
 398 426 398 426 400 417.5 c 128,-1,72
 402 409 402 409 407 409 c 0,57,58
349 -103 m 0,73,74
 349 -91 349 -91 340.5 -83 c 128,-1,75
 332 -75 332 -75 332 -66 c 0,76,77
 332 -52 332 -52 329.5 -47.5 c 128,-1,78
 327 -43 327 -43 323 -43 c 0,79,80
 320 -43 320 -43 318.5 -49.5 c 128,-1,81
 317 -56 317 -56 317 -64 c 0,82,83
 317 -83 317 -83 324 -97 c 128,-1,84
 331 -111 331 -111 339 -111 c 0,85,86
 342 -111 342 -111 345.5 -109.5 c 128,-1,87
 349 -108 349 -108 349 -103 c 0,73,74
EndSplineSet


EndChar

StartChar: k
Encoding: 107 107 77
Width: 808
Flags: W
LayerCount: 2
Fore
SplineSet
406 -10 m 0,0,1
 328 -10 328 -10 269 14.5 c 128,-1,2
 210 39 210 39 165 73 c 1,3,-1
 210 135 l 1,4,5
 259 97 259 97 305.5 80 c 128,-1,6
 352 63 352 63 401 63 c 0,7,8
 462 63 462 63 490 84 c 128,-1,9
 518 105 518 105 518 144 c 0,10,11
 518 164 518 164 508.5 184.5 c 128,-1,12
 499 205 499 205 472 230 c 128,-1,13
 445 255 445 255 393 285 c 1,14,-1
 366 306 l 2,15,16
 331 329 331 329 304.5 351.5 c 128,-1,17
 278 374 278 374 264 400.5 c 128,-1,18
 250 427 250 427 250 461 c 0,19,20
 250 524 250 524 297.5 563.5 c 128,-1,21
 345 603 345 603 424 603 c 0,22,23
 456 603 456 603 485 599.5 c 128,-1,24
 514 596 514 596 541 589 c 1,25,-1
 526 517 l 1,26,27
 500 523 500 523 479.5 526 c 128,-1,28
 459 529 459 529 433 529 c 0,29,30
 382 529 382 529 357 509 c 128,-1,31
 332 489 332 489 332 454 c 0,32,33
 332 436 332 436 342 418.5 c 128,-1,34
 352 401 352 401 374 383.5 c 128,-1,35
 396 366 396 366 432 347 c 1,36,-1
 460 322 l 1,37,38
 506 296 506 296 537 269 c 128,-1,39
 568 242 568 242 584 211 c 128,-1,40
 600 180 600 180 600 142 c 0,41,42
 600 105 600 105 581.5 70 c 128,-1,43
 563 35 563 35 520.5 12.5 c 128,-1,44
 478 -10 478 -10 406 -10 c 0,0,1
212 211 m 1,45,-1
 185 282 l 1,46,-1
 376 350 l 1,47,-1
 611 438 l 1,48,-1
 643 368 l 1,49,-1
 436 297 l 1,50,-1
 212 211 l 1,45,-1
EndSplineSet
EndChar

StartChar: l
Encoding: 108 108 78
Width: 808
Flags: W
LayerCount: 2
Fore
SplineSet
339.5 105 m 0,0,1
 268.5 105 268.5 105 215.5 133 c 128,-1,2
 162.5 161 162.5 161 133.5 213 c 128,-1,3
 104.5 265 104.5 265 104.5 337 c 0,4,5
 104.5 404 104.5 404 134.5 457.5 c 128,-1,6
 164.5 511 164.5 511 221.5 548 c 128,-1,7
 278.5 585 278.5 585 359.5 603 c 1,8,-1
 379.5 528 l 1,9,10
 286.5 509 286.5 509 236.5 462.5 c 128,-1,11
 186.5 416 186.5 416 186.5 333 c 0,12,13
 186.5 255 186.5 255 229.5 217 c 128,-1,14
 272.5 179 272.5 179 336.5 179 c 0,15,16
 368.5 179 368.5 179 393.5 184 c 128,-1,17
 418.5 189 418.5 189 440.5 199 c 1,18,-1
 471.5 132 l 1,19,20
 444.5 119 444.5 119 411 112 c 128,-1,21
 377.5 105 377.5 105 339.5 105 c 0,0,1
304.5 304 m 1,22,-1
 286.5 377 l 1,23,-1
 553.5 431 l 1,24,-1
 553.5 355 l 1,25,-1
 304.5 304 l 1,22,-1
685.5 0 m 2,26,27
 650.5 0 650.5 0 620 7.5 c 128,-1,28
 589.5 15 589.5 15 568.5 37 c 0,29,30
 549.5 57 549.5 57 543.5 81.5 c 128,-1,31
 537.5 106 537.5 106 537.5 148 c 2,32,-1
 537.5 603 l 1,33,-1
 617.5 592 l 1,34,-1
 617.5 152 l 2,35,36
 617.5 125 617.5 125 620.5 112.5 c 128,-1,37
 623.5 100 623.5 100 629.5 92 c 0,38,39
 640.5 78 640.5 78 661.5 75.5 c 128,-1,40
 682.5 73 682.5 73 703.5 73 c 1,41,-1
 695.5 0 l 1,42,-1
 685.5 0 l 2,26,27
EndSplineSet
EndChar

StartChar: m
Encoding: 109 109 79
Width: 808
Flags: W
LayerCount: 2
Fore
SplineSet
657 0 m 2,0,1
 614 0 614 0 585.5 9.5 c 128,-1,2
 557 19 557 19 540 37 c 0,3,4
 524 54 524 54 516.5 79 c 128,-1,5
 509 104 509 104 509 148 c 2,6,-1
 509 603 l 1,7,-1
 589 592 l 1,8,-1
 589 152 l 2,9,10
 589 125 589 125 592 112.5 c 128,-1,11
 595 100 595 100 601 92 c 0,12,13
 612 78 612 78 633.5 75.5 c 128,-1,14
 655 73 655 73 675 73 c 1,15,-1
 668 0 l 1,16,-1
 657 0 l 2,0,1
255 152 m 0,17,18
 235 152 235 152 215 163.5 c 128,-1,19
 195 175 195 175 178 193.5 c 128,-1,20
 161 212 161 212 150.5 233.5 c 128,-1,21
 140 255 140 255 140 274 c 0,22,23
 140 291 140 291 153 303.5 c 128,-1,24
 166 316 166 316 196 316 c 2,25,-1
 521 316 l 1,26,-1
 521 244 l 1,27,-1
 300 244 l 1,28,-1
 300 215 l 2,29,30
 300 181 300 181 286 166.5 c 128,-1,31
 272 152 272 152 255 152 c 0,17,18
220 300 m 1,32,-1
 220 440 l 2,33,34
 220 468 220 468 217 480 c 128,-1,35
 214 492 214 492 208 500 c 0,36,37
 198 514 198 514 176 517 c 128,-1,38
 154 520 154 520 133 520 c 1,39,-1
 141 592 l 1,40,-1
 152 592 l 2,41,42
 195 592 195 592 223.5 583 c 128,-1,43
 252 574 252 574 269 556 c 0,44,45
 280 545 280 545 287 530 c 128,-1,46
 294 515 294 515 297 494.5 c 128,-1,47
 300 474 300 474 300 444 c 2,48,-1
 300 300 l 1,49,-1
 220 300 l 1,32,-1
EndSplineSet
EndChar

StartChar: n
Encoding: 110 110 80
Width: 808
Flags: W
LayerCount: 2
Fore
SplineSet
643 0 m 2,0,1
 608 0 608 0 577.5 7.5 c 128,-1,2
 547 15 547 15 526 37 c 0,3,4
 507 57 507 57 501 81.5 c 128,-1,5
 495 106 495 106 495 148 c 2,6,-1
 495 603 l 1,7,-1
 575 592 l 1,8,-1
 575 152 l 2,9,10
 575 125 575 125 578 112.5 c 128,-1,11
 581 100 581 100 587 92 c 0,12,13
 598 78 598 78 619 75.5 c 128,-1,14
 640 73 640 73 661 73 c 1,15,-1
 653 0 l 1,16,-1
 643 0 l 2,0,1
263 214 m 0,17,18
 245 214 245 214 224.5 226.5 c 128,-1,19
 204 239 204 239 186.5 259 c 128,-1,20
 169 279 169 279 158 302.5 c 128,-1,21
 147 326 147 326 147 348 c 0,22,23
 147 371 147 371 160.5 385.5 c 128,-1,24
 174 400 174 400 207 400 c 2,25,-1
 531 400 l 1,26,-1
 531 328 l 1,27,-1
 314 328 l 1,28,-1
 314 271 l 2,29,30
 314 242 314 242 300 228 c 128,-1,31
 286 214 286 214 263 214 c 0,17,18
EndSplineSet
EndChar

StartChar: o
Encoding: 111 111 81
Width: 808
Flags: W
LayerCount: 2
Fore
SplineSet
414 247.5 m 4,0,1
 389 247.5 389 247.5 371.5 263 c 132,-1,2
 354 278.5 354 278.5 354 305.5 c 4,3,4
 354 331.5 354 331.5 371.5 353 c 132,-1,5
 389 374.5 389 374.5 417 374.5 c 4,6,7
 476 374.5 476 374.5 476 314.5 c 4,8,9
 476 290.5 476 290.5 458.5 269 c 132,-1,10
 441 247.5 441 247.5 414 247.5 c 4,0,1
380 294.5 m 260,11,12
 385 294.5 385 294.5 385.5 301.5 c 132,-1,13
 386 308.5 386 308.5 388 312.5 c 4,14,15
 392 323.5 392 323.5 399 331.5 c 132,-1,16
 406 339.5 406 339.5 412 350.5 c 4,17,18
 413 352.5 413 352.5 411.5 355.5 c 132,-1,19
 410 358.5 410 358.5 408 358.5 c 4,20,21
 402 358.5 402 358.5 396 352.5 c 132,-1,22
 390 346.5 390 346.5 385 338 c 132,-1,23
 380 329.5 380 329.5 377 320.5 c 132,-1,24
 374 311.5 374 311.5 374 306.5 c 4,25,26
 374 304.5 374 304.5 374.5 299.5 c 132,-1,27
 375 294.5 375 294.5 380 294.5 c 260,11,12
401.5 -10 m 0,28,29
 329.5 -10 329.5 -10 276 17.5 c 128,-1,30
 222.5 45 222.5 45 187.5 88.5 c 128,-1,31
 152.5 132 152.5 132 135 186 c 128,-1,32
 117.5 240 117.5 240 117.5 294 c 0,33,34
 117.5 360 117.5 360 137.5 416 c 128,-1,35
 157.5 472 157.5 472 195 512.5 c 128,-1,36
 232.5 553 232.5 553 286.5 576 c 128,-1,37
 340.5 599 340.5 599 407.5 599 c 0,38,39
 469.5 599 469.5 599 521.5 576.5 c 128,-1,40
 573.5 554 573.5 554 611 514.5 c 128,-1,41
 648.5 475 648.5 475 669.5 420.5 c 128,-1,42
 690.5 366 690.5 366 690.5 303 c 0,43,44
 690.5 239 690.5 239 669 182 c 128,-1,45
 647.5 125 647.5 125 609 82.5 c 128,-1,46
 570.5 40 570.5 40 517.5 15 c 128,-1,47
 464.5 -10 464.5 -10 401.5 -10 c 0,28,29
403.5 67 m 0,48,49
 504.5 67 504.5 67 556 130.5 c 128,-1,50
 607.5 194 607.5 194 607.5 303 c 0,51,52
 607.5 347 607.5 347 594 387.5 c 128,-1,53
 580.5 428 580.5 428 554.5 459 c 128,-1,54
 528.5 490 528.5 490 491.5 508.5 c 128,-1,55
 454.5 527 454.5 527 407.5 527 c 0,56,57
 362.5 527 362.5 527 325 509 c 128,-1,58
 287.5 491 287.5 491 260.5 461 c 128,-1,59
 233.5 431 233.5 431 218.5 391 c 128,-1,60
 203.5 351 203.5 351 203.5 306 c 256,61,62
 203.5 261 203.5 261 217 218 c 128,-1,63
 230.5 175 230.5 175 256 141.5 c 128,-1,64
 281.5 108 281.5 108 318.5 87.5 c 128,-1,65
 355.5 67 355.5 67 403.5 67 c 0,48,49
EndSplineSet
EndChar

StartChar: p
Encoding: 112 112 82
Width: 808
Flags: W
LayerCount: 2
Fore
SplineSet
290 0 m 0,0,1
 266 0 266 0 256.5 22 c 128,-1,2
 247 44 247 44 247 103 c 2,3,-1
 247 542 l 2,4,5
 247 585 247 585 257 601.5 c 128,-1,6
 267 618 267 618 290 618 c 256,7,8
 313 618 313 618 330 607 c 128,-1,9
 347 596 347 596 347 558 c 2,10,-1
 347 501 l 1,11,12
 352 502 352 502 359 502 c 128,-1,13
 366 502 366 502 376 502 c 0,14,15
 430 502 430 502 465.5 490 c 128,-1,16
 501 478 501 478 522.5 454.5 c 128,-1,17
 544 431 544 431 552.5 396.5 c 128,-1,18
 561 362 561 362 561 318 c 256,19,20
 561 274 561 274 549.5 236.5 c 128,-1,21
 538 199 538 199 512.5 172 c 128,-1,22
 487 145 487 145 446.5 130.5 c 128,-1,23
 406 116 406 116 347 118 c 1,24,-1
 347 117 l 2,25,26
 347 101 347 101 346 80.5 c 128,-1,27
 345 60 345 60 339.5 42 c 128,-1,28
 334 24 334 24 322.5 12 c 128,-1,29
 311 0 311 0 290 0 c 0,0,1
277 563 m 0,30,31
 276 564 276 564 276 566 c 0,32,33
 274 570 274 570 274 574 c 0,34,35
 274 586 274 586 283 592.5 c 128,-1,36
 292 599 292 599 292 602 c 256,37,38
 292 605 292 605 286 605 c 0,39,40
 277 605 277 605 269.5 595 c 128,-1,41
 262 585 262 585 262 570 c 0,42,43
 262 552 262 552 270 552 c 0,44,45
 277 552 277 552 277 563 c 0,30,31
392 201 m 2,46,47
 410 201 410 201 423 205.5 c 128,-1,48
 436 210 436 210 445 223 c 128,-1,49
 454 236 454 236 458 259.5 c 128,-1,50
 462 283 462 283 462 320 c 0,51,52
 462 334 462 334 460.5 351.5 c 128,-1,53
 459 369 459 369 453.5 384 c 128,-1,54
 448 399 448 399 438 409.5 c 128,-1,55
 428 420 428 420 411 420 c 0,56,57
 403 420 403 420 383.5 420.5 c 128,-1,58
 364 421 364 421 347 417 c 1,59,-1
 347 201 l 1,60,-1
 392 201 l 2,46,47
268 76 m 0,61,62
 270 76 270 76 271 84.5 c 128,-1,63
 272 93 272 93 272.5 103.5 c 128,-1,64
 273 114 273 114 273 124 c 128,-1,65
 273 134 273 134 273 138 c 0,66,67
 273 161 273 161 271 167 c 128,-1,68
 269 173 269 173 267 173 c 256,69,70
 265 173 265 173 263 167.5 c 128,-1,71
 261 162 261 162 261 138 c 0,72,73
 261 103 261 103 262 89.5 c 128,-1,74
 263 76 263 76 268 76 c 0,61,62
268 65 m 0,75,76
 262 65 262 65 262 56 c 0,77,78
 262 45 262 45 269 45 c 0,79,80
 274 45 274 45 274 56 c 0,81,82
 274 61 274 61 273.5 63 c 128,-1,83
 273 65 273 65 268 65 c 0,75,76
EndSplineSet
EndChar

StartChar: q
Encoding: 113 113 83
Width: 808
Flags: W
LayerCount: 2
Fore
SplineSet
450.487304688 55.400390625 m 0,0,1
 447.756835938 54 447.756835938 54 447.231445312 46.400390625 c 128,-1,2
 446.756835938 39 446.756835938 39 447.231445312 28.400390625 c 0,3,4
 448.756835938 6 448.756835938 6 451.227539062 -16.7001953125 c 0,5,6
 454.756835938 -70 454.756835938 -70 454.756835938 -83 c 0,7,8
 454.756835938 -95 454.756835938 -95 445.756835938 -109.5 c 128,-1,9
 436.756835938 -124 436.756835938 -124 411.756835938 -124 c 260,10,11
 386.756835938 -124 386.756835938 -124 378.256835938 -108.5 c 128,-1,12
 369.756835938 -93 369.756835938 -93 369.756835938 -75 c 0,13,14
 369.756835938 -61 369.756835938 -61 371.0625 -9.0498046875 c 0,15,16
 372.756835938 33 372.756835938 33 372.3671875 35.599609375 c 0,17,18
 372.756835938 51 372.756835938 51 367.716796875 53.599609375 c 0,19,20
 331.756835938 68 331.756835938 68 305.872070312 95 c 0,21,22
 280.756835938 122 280.756835938 122 264.952148438 158 c 0,23,24
 249.756835938 194 249.756835938 194 242.631835938 236.75 c 0,25,26
 235.756835938 279 235.756835938 279 235.657226562 323.599609375 c 0,27,28
 235.756835938 373 235.756835938 373 243.561523438 424.849609375 c 0,29,30
 251.756835938 477 251.756835938 477 270.997070312 519.349609375 c 0,31,32
 290.756835938 562 290.756835938 562 323.077148438 589.099609375 c 0,33,34
 355.756835938 616 355.756835938 616 404.916992188 616.099609375 c 256,35,36
 453.756835938 616 453.756835938 616 486.291992188 592.25 c 0,37,38
 518.756835938 568 518.756835938 568 537.44140625 528.349609375 c 0,39,40
 556.756835938 488 556.756835938 488 564.412109375 437 c 0,41,42
 572.756835938 386 572.756835938 386 572.31640625 331.700195312 c 0,43,44
 572.756835938 285 572.756835938 285 565.806640625 241.25 c 0,45,46
 559.756835938 198 559.756835938 198 544.416992188 161.150390625 c 0,47,48
 529.756835938 125 529.756835938 125 506.287109375 97.7001953125 c 0,49,50
 485.756835938 73 485.756835938 73 450.487304688 55.400390625 c 0,0,1
300.756835938 509.900390625 m 0,51,52
 305.756835938 520 305.756835938 520 315.63671875 535.549804688 c 0,53,54
 325.756835938 551 325.756835938 551 337.026367188 560.299804688 c 0,55,56
 342.756835938 565 342.756835938 565 338.421875 569.75 c 0,57,58
 333.756835938 575 333.756835938 575 332.376953125 574.700195312 c 0,59,60
 326.756835938 575 326.756835938 575 318.891601562 565.700195312 c 0,61,62
 310.756835938 557 310.756835938 557 303.08203125 544.549804688 c 0,63,64
 294.756835938 532 294.756835938 532 289.596679688 518.900390625 c 0,65,66
 283.756835938 505 283.756835938 505 284.016601562 497.299804688 c 0,67,68
 283.756835938 490 283.756835938 490 288.666992188 490.099609375 c 0,69,70
 290.756835938 490 290.756835938 490 300.756835938 509.900390625 c 0,51,52
404.916992188 105.799804688 m 0,71,72
 427.756835938 106 427.756835938 106 442.58203125 130.549804688 c 0,73,74
 456.756835938 155 456.756835938 155 464.901367188 190.849609375 c 0,75,76
 472.756835938 226 472.756835938 226 475.596679688 265.549804688 c 0,77,78
 477.028320312 283.423828125 477.028320312 283.423828125 478.38671875 332.599609375 c 0,79,80
 478.756835938 346 478.756835938 346 476.9921875 367.700195312 c 0,81,82
 475.756835938 389 475.756835938 389 472.341796875 414.5 c 128,-1,83
 468.756835938 440 468.756835938 440 463.971679688 465.799804688 c 0,84,85
 458.756835938 492 458.756835938 492 450.487304688 513.049804688 c 0,86,87
 441.756835938 534 441.756835938 534 430.95703125 547.25 c 0,88,89
 419.756835938 560 419.756835938 560 404.916992188 560.299804688 c 256,90,91
 389.756835938 560 389.756835938 560 378.876953125 546.799804688 c 0,92,93
 367.756835938 533 367.756835938 533 359.811523438 511.700195312 c 0,94,95
 351.756835938 490 351.756835938 490 346.791992188 464 c 128,-1,96
 341.756835938 438 341.756835938 438 338.88671875 412.700195312 c 0,97,98
 335.756835938 387 335.756835938 387 335.166992188 365.900390625 c 0,99,100
 333.756835938 344 333.756835938 344 334.237304688 331.700195312 c 0,101,102
 333.756835938 304 333.756835938 304 337.026367188 264.650390625 c 0,103,104
 339.756835938 225 339.756835938 225 347.721679688 190.400390625 c 0,105,106
 355.756835938 155 355.756835938 155 369.112304688 130.549804688 c 0,107,108
 382.756835938 106 382.756835938 106 404.916992188 105.799804688 c 0,71,72
287.737304688 470.299804688 m 0,109,110
 287.756835938 479 287.756835938 479 285.876953125 481.549804688 c 0,111,112
 283.756835938 484 283.756835938 484 279.3671875 483.799804688 c 256,113,114
 274.756835938 484 274.756835938 484 272.391601562 478.849609375 c 0,115,116
 269.756835938 474 269.756835938 474 270.06640625 468.5 c 0,117,118
 269.756835938 461 269.756835938 461 273.322265625 458.599609375 c 128,-1,119
 276.756835938 456 276.756835938 456 279.3671875 455.900390625 c 0,120,121
 280.756835938 456 280.756835938 456 284.481445312 459.5 c 0,122,123
 287.756835938 463 287.756835938 463 287.737304688 470.299804688 c 0,109,110
416.756835938 -97 m 0,124,125
 416.756835938 -91 416.756835938 -91 413.756835938 -87.5 c 128,-1,126
 410.756835938 -84 410.756835938 -84 407.256835938 -81 c 128,-1,127
 403.756835938 -78 403.756835938 -78 400.756835938 -75.5 c 128,-1,128
 397.756835938 -73 397.756835938 -73 397.756835938 -68 c 0,129,130
 397.756835938 -50 397.756835938 -50 388.756835938 -50 c 0,131,132
 383.756835938 -50 383.756835938 -50 383.756835938 -70 c 0,133,134
 383.756835938 -80 383.756835938 -80 389.256835938 -94.5 c 128,-1,135
 394.756835938 -109 394.756835938 -109 405.756835938 -109 c 0,136,137
 409.756835938 -109 409.756835938 -109 413.256835938 -106.5 c 128,-1,138
 416.756835938 -104 416.756835938 -104 416.756835938 -97 c 0,124,125
EndSplineSet
EndChar

